<svg width="55" height="54" viewBox="0 0 55 54" fill="none" xmlns="http://www.w3.org/2000/svg">
<g clip-path="url(#clip0_1841_757)">
<path d="M54.0175 26.7644C54.0175 41.2663 42.1227 53.0144 27.438 53.0144C12.7532 53.0144 0.858398 41.2663 0.858398 26.7644C0.858398 12.2617 12.7532 0.514404 27.438 0.514404C42.1227 0.514404 54.0175 12.2617 54.0175 26.7644Z" fill="#C7CFE2" fill-opacity="0.25"/>
<path d="M49.7307 26.7644C49.7307 38.9182 39.752 48.7806 27.4381 48.7806C15.1242 48.7806 5.14551 38.9182 5.14551 26.7644C5.14551 14.6115 15.1242 4.74829 27.4381 4.74829C39.752 4.74829 49.7307 14.6115 49.7307 26.7644Z" fill="#C7CFE2" fill-opacity="0.5"/>
<path d="M45.4436 26.7643C45.4436 36.5774 37.3866 44.5466 27.4381 44.5466C17.4896 44.5466 9.43262 36.5774 9.43262 26.7643C9.43262 16.952 17.4896 8.98206 27.4381 8.98206C37.3866 8.98206 45.4436 16.952 45.4436 26.7643Z" fill="#C7CFE2"/>
<path d="M34.7263 47.5103L33.0115 49.2039H21.8652L20.1504 47.5103V41.5829H34.7263V47.5103Z" fill="#164662"/>
<path d="M41.5854 26.7644C41.5854 19.0479 35.2507 12.7926 27.4382 12.7926C19.6257 12.7926 13.291 19.0479 13.291 26.7644C13.291 31.845 16.0449 36.2769 20.1502 38.7234V41.583H34.7262V38.7234C38.8315 36.2769 41.5854 31.845 41.5854 26.7644Z" fill="#205675" fill-opacity="0.75"/>
<path d="M23.5791 49.2039C23.5791 49.2039 24.4365 50.8974 27.4374 50.8974C30.4383 50.8974 31.2958 49.2039 31.2958 49.2039H23.5791Z" fill="#656D78"/>
<path d="M19.7216 44.5466C19.495 44.5466 19.3067 44.3713 19.2937 44.146C19.2799 43.9132 19.4607 43.7126 19.6986 43.6998L35.1309 42.8531C35.3587 42.832 35.5689 43.0197 35.5819 43.2537C35.5948 43.4873 35.4148 43.6871 35.177 43.6982L19.7446 44.545C19.7379 44.5466 19.7291 44.5466 19.7216 44.5466Z" fill="#205675"/>
<path d="M19.7216 47.087C19.495 47.087 19.3067 46.9117 19.2937 46.6864C19.2799 46.4536 19.4607 46.253 19.6986 46.2402L35.1309 45.3935C35.3587 45.3691 35.5689 45.5601 35.5819 45.7941C35.5948 46.0277 35.4148 46.2274 35.177 46.2386L19.7446 47.0854C19.7379 47.087 19.7291 47.087 19.7216 47.087Z" fill="#205675"/>
<path d="M34.2968 22.9539C35.2483 22.9539 36.0115 23.7084 36.0115 24.6474C36.0115 25.5864 35.2483 26.341 34.2968 26.341C35.0084 26.341 35.5828 26.9082 35.5828 27.6111C35.5828 28.1363 35.2655 28.5774 34.8113 28.7796C35.4112 29.9059 35.2312 31.3116 34.2804 32.2523C33.5687 32.9457 32.6083 33.2252 31.6902 33.0813H31.6818C31.6131 33.4869 31.4152 33.8772 31.0978 34.1906C30.2584 35.0205 28.9028 35.0205 28.0634 34.1906C27.6602 33.7842 27.4459 33.2591 27.4375 32.7257V19.5668C27.4375 18.6279 28.2007 17.8733 29.1523 17.8733C30.1039 17.8733 30.8671 18.6279 30.8671 19.5668C30.8671 19.8029 30.8156 20.0241 30.7298 20.2263C31.107 19.8972 31.6052 19.7024 32.1532 19.7024C33.3451 19.7024 34.2968 20.6414 34.2968 21.8193C34.2968 22.251 34.1682 22.6575 33.9367 22.9878C34.0569 22.9709 34.1766 22.9539 34.2968 22.9539Z" fill="#9EAFC6"/>
<path d="M27.4383 28.8814V32.7257C27.4299 33.2591 27.2239 33.7842 26.8124 34.1898C25.973 35.0197 24.6174 35.0197 23.778 34.1898C23.4606 33.8773 23.2626 33.4869 23.1939 33.0805H23.1856C22.2767 33.2244 21.3079 32.9449 20.6045 32.2515C19.653 31.3117 19.4729 29.9051 20.0645 28.7788C19.6102 28.5766 19.2929 28.1355 19.2929 27.6103C19.2929 26.9074 19.8673 26.3402 20.579 26.3402C19.6274 26.3402 18.8643 25.5856 18.8643 24.6466C18.8643 23.7076 19.6274 22.953 20.579 22.953C20.7076 22.953 20.8277 22.9701 20.9391 22.987C20.7076 22.6575 20.579 22.251 20.579 21.8193C20.579 20.6414 21.5395 19.7024 22.7225 19.7024C23.2714 19.7024 23.7688 19.8972 24.146 20.2263C24.0602 20.0241 24.0086 19.8029 24.0086 19.5668C24.0086 18.6279 24.7718 17.8733 25.7235 17.8733C26.6751 17.8733 27.4383 18.6279 27.4383 19.5668V28.8814Z" fill="#9EAFC6"/>
<path d="M36.0124 27.6111C36.0124 27.1377 35.8135 26.7102 35.4945 26.4018C36.0647 26.0218 36.4411 25.3772 36.4411 24.6474C36.4411 23.5873 35.6465 22.7162 34.6157 22.5619C34.6885 22.3254 34.7263 22.0757 34.7263 21.8193C34.7263 20.4186 33.5721 19.279 32.1541 19.279C31.8522 19.279 31.56 19.3323 31.282 19.4295C31.2091 18.3273 30.2877 17.4498 29.1531 17.4498C28.4493 17.4498 27.8294 17.7902 27.4383 18.3095C27.0473 17.7902 26.4273 17.4498 25.7235 17.4498C24.5889 17.4498 23.6675 18.3273 23.5946 19.4295C23.3175 19.3332 23.0245 19.279 22.7226 19.279C21.3046 19.279 20.1504 20.4186 20.1504 21.8193C20.1504 22.0765 20.188 22.3263 20.2609 22.5619C19.2302 22.7162 18.4355 23.5873 18.4355 24.6474C18.4355 25.3772 18.8111 26.0218 19.3822 26.4018C19.0631 26.7102 18.8643 27.1377 18.8643 27.6111C18.8643 28.1379 19.1205 28.6212 19.5321 28.9413C19.0493 30.1854 19.3315 31.5928 20.3011 32.5512C20.9471 33.1888 21.8225 33.5411 22.7193 33.5411C22.7691 33.5411 22.8176 33.5319 22.8666 33.5291C22.9901 33.8875 23.1949 34.2151 23.4737 34.4896C23.9606 34.9705 24.6074 35.2363 25.294 35.2363C25.9806 35.2363 26.6274 34.9713 27.1143 34.4896C27.2378 34.3684 27.3449 34.2357 27.4383 34.0959C27.5317 34.2345 27.6388 34.3668 27.7607 34.4896C28.2476 34.9705 28.8944 35.2363 29.581 35.2363C30.2676 35.2363 30.9144 34.9713 31.4013 34.4904C31.6818 34.2134 31.8882 33.8842 32.01 33.5291C32.0632 33.5319 32.1163 33.5419 32.1687 33.5419C33.0655 33.5419 33.9228 33.1958 34.5831 32.5512C35.559 31.5866 35.8366 30.1734 35.3463 28.9396C35.757 28.6196 36.0124 28.1371 36.0124 27.6111ZM24.0807 33.8901C23.8329 33.6469 23.6725 33.343 23.6143 32.9957C23.5013 32.454 23.6751 31.8918 24.0807 31.4928C24.2477 31.3286 24.2477 31.059 24.0807 30.894C23.9137 30.7291 23.6416 30.7291 23.4745 30.894C22.9843 31.3786 22.7322 32.0236 22.7347 32.6773C22.0548 32.6823 21.3963 32.4342 20.9081 31.9525C20.1094 31.1632 19.9239 29.9671 20.4464 28.9727C20.5661 28.7433 20.7206 28.534 20.9081 28.3504C21.9096 27.3639 23.5415 27.3656 24.5463 28.3587C24.7133 28.5241 24.9854 28.5241 25.1525 28.3587C25.3195 28.1937 25.3195 27.9254 25.1525 27.76C23.8132 26.4394 21.6378 26.4348 20.3032 27.7509C20.1709 27.8803 20.0529 28.0209 19.9444 28.1694C19.8075 28.0167 19.7217 27.8245 19.7217 27.6111C19.7217 27.144 20.106 26.7644 20.5791 26.7644C20.8156 26.7644 21.0078 26.5746 21.0078 26.341C21.0078 26.1074 20.8156 25.9176 20.5791 25.9176C19.8699 25.9176 19.293 25.3479 19.293 24.6474C19.293 23.947 19.8699 23.3773 20.5791 23.3773C20.6331 23.3773 20.6787 23.3868 20.729 23.3926C21.2125 23.9937 21.9347 24.3605 22.7226 24.3605C22.9592 24.3605 23.1513 24.1707 23.1513 23.9371C23.1513 23.7031 22.9592 23.5137 22.7226 23.5137C22.1457 23.5137 21.6132 23.2301 21.2916 22.748C21.1053 22.4829 21.0078 22.1621 21.0078 21.8202C21.0078 20.8862 21.7768 20.1267 22.7226 20.1267C23.1341 20.1267 23.526 20.2689 23.8304 20.5219C24.1912 21.2265 24.9096 21.6837 25.7235 21.6837C25.9601 21.6837 26.1522 21.494 26.1522 21.2604C26.1522 21.0267 25.9601 20.837 25.7235 20.837C25.204 20.837 24.7401 20.5339 24.5412 20.063C24.4726 19.9013 24.4374 19.7334 24.4374 19.5668C24.4374 18.8664 25.0143 18.2967 25.7235 18.2967C26.4327 18.2967 27.0096 18.8664 27.0096 19.5668V22.9539C27.0096 23.0064 26.9908 24.2241 25.2948 24.2241C25.0583 24.2241 24.8661 24.4138 24.8661 24.6474C24.8661 24.8811 25.0583 25.0708 25.2948 25.0708C26.063 25.0708 26.617 24.8736 27.0096 24.5883V28.766C26.9024 28.9281 26.6065 29.3047 26.1522 29.3047C25.9157 29.3047 25.7235 29.4945 25.7235 29.7281C25.7235 29.9617 25.9157 30.1515 26.1522 30.1515C26.4934 30.1515 26.7756 30.0481 27.0096 29.9109V32.7191C27.0029 33.1627 26.8246 33.5791 26.5089 33.8909C25.8571 34.5343 24.7325 34.5351 24.0807 33.8901ZM33.9794 31.9509C33.477 32.4396 32.8202 32.6852 32.1411 32.6781C32.1436 32.0187 31.8907 31.3758 31.4021 30.894C31.2351 30.7291 30.963 30.7291 30.7959 30.894C30.6289 31.059 30.6289 31.3286 30.7959 31.4928C31.2016 31.8926 31.3754 32.4549 31.2598 33.0118C31.2041 33.3438 31.0437 33.6469 30.7959 33.8909C30.1441 34.5343 29.0166 34.5317 28.3702 33.8934C28.0529 33.5742 27.8737 33.1566 27.867 32.7191V29.9109C28.1011 30.0481 28.3832 30.1515 28.7244 30.1515C28.961 30.1515 29.1531 29.9617 29.1531 29.7281C29.1531 29.4945 28.961 29.3047 28.7244 29.3047C28.2681 29.3047 27.9725 28.9264 27.867 28.7635V24.5883C28.2597 24.8736 28.8136 25.0708 29.5819 25.0708C29.8183 25.0708 30.0106 24.8811 30.0106 24.6474C30.0106 24.4138 29.8183 24.2241 29.5819 24.2241C27.9415 24.2241 27.8695 23.085 27.867 22.9506V19.5668C27.867 18.8664 28.444 18.2967 29.1531 18.2967C29.8623 18.2967 30.4392 18.8664 30.4392 19.5668C30.4392 19.7334 30.4041 19.9013 30.3346 20.0638C30.1365 20.5339 29.6727 20.837 29.1531 20.837C28.9166 20.837 28.7244 21.0267 28.7244 21.2604C28.7244 21.494 28.9166 21.6837 29.1531 21.6837C29.967 21.6837 30.6854 21.2265 31.0455 20.5219C31.3506 20.268 31.7425 20.1258 32.1541 20.1258C33.1153 20.1258 33.8688 20.8701 33.8688 21.8193C33.8688 22.1604 33.7713 22.4813 33.5791 22.755C33.2635 23.2293 32.7309 23.5129 32.1541 23.5129C31.9175 23.5129 31.7253 23.7023 31.7253 23.9363C31.7253 24.1699 31.9175 24.3597 32.1541 24.3597C32.9453 24.3597 33.67 23.9913 34.1485 23.3918C34.1979 23.3868 34.2477 23.3773 34.2975 23.3773C35.0067 23.3773 35.5837 23.947 35.5837 24.6474C35.5837 25.3479 35.0067 25.9176 34.2975 25.9176C34.061 25.9176 33.8688 26.1074 33.8688 26.341C33.8688 26.5746 34.061 26.7644 34.2975 26.7644C34.7706 26.7644 35.155 27.144 35.155 27.6111C35.155 27.8212 35.0708 28.0118 34.9373 28.1631C34.8334 28.0192 34.7158 27.8811 34.5839 27.7518C33.2489 26.4332 31.0727 26.4386 29.7334 27.76C29.5664 27.9254 29.5664 28.1937 29.7334 28.3587C29.9008 28.5241 30.1725 28.5241 30.3396 28.3587C31.3439 27.3664 32.9755 27.3623 33.9777 28.3504C34.1682 28.5386 34.3181 28.7449 34.4324 28.9768C34.9594 29.9658 34.7778 31.1616 33.9794 31.9509Z" fill="white"/>
</g>
<defs>
<clipPath id="clip0_1841_757">
<rect width="53.1591" height="52.5" fill="white" transform="translate(0.858398 0.514404)"/>
</clipPath>
</defs>
</svg>
