<svg width="57" height="54" viewBox="0 0 57 54" fill="none" xmlns="http://www.w3.org/2000/svg">
<path d="M17.1721 31.4705C16.6925 35.151 13.6309 37.99 9.92302 37.99C6.21507 37.99 3.15355 35.151 2.67383 31.4705H17.1721Z" fill="#D7DEED"/>
<path d="M16.7695 30.0241L10.458 12.4621C10.2961 12.0117 10.5196 11.5114 10.9575 11.3448C11.3951 11.178 11.8814 11.4083 12.0432 11.8588L18.3548 29.4208C18.5167 29.8712 18.2931 30.3715 17.8553 30.5381C17.4182 30.7046 16.9316 30.4749 16.7695 30.0241Z" fill="#CCD2DB"/>
<path d="M2.71724 30.5381C2.27952 30.3715 2.05584 29.8712 2.21772 29.4208L8.5293 11.8588C8.69118 11.4084 9.17702 11.178 9.6151 11.3448C10.0528 11.5114 10.2765 12.0117 10.1146 12.4621L3.803 30.024C3.64112 30.4744 3.15495 30.7046 2.71724 30.5381Z" fill="#CCD2DB"/>
<path d="M39.2847 30.5382C38.8475 30.37 38.6256 29.8688 38.7891 29.419L45.1007 12.0544C45.2643 11.6045 45.7513 11.3764 46.1883 11.5446C46.6255 11.7128 46.8475 12.2141 46.6839 12.6638L40.3723 30.0284C40.2087 30.4782 39.7217 30.7064 39.2847 30.5382Z" fill="#CCD2DB"/>
<path d="M53.3468 30.0284L47.0352 12.6638C46.8717 12.2139 47.0936 11.7128 47.5308 11.5446C47.968 11.3764 48.4548 11.6045 48.6184 12.0544L54.9299 29.419C55.0935 29.8689 54.8716 30.37 54.4345 30.5383C53.9976 30.7064 53.5105 30.4785 53.3468 30.0284Z" fill="#CCD2DB"/>
<path d="M11.6284 13.0879C11.1972 13.0879 10.8291 12.75 10.7879 12.2994C10.7443 11.8212 11.0857 11.3971 11.5504 11.3522C14.3587 11.0809 15.1069 10.7518 26.2389 7.60978C26.689 7.48283 27.1541 7.75516 27.2775 8.21849C27.401 8.68165 27.1362 9.16021 26.6861 9.28732C15.4954 12.4459 14.6622 12.7986 11.7085 13.0841C11.6815 13.0866 11.6549 13.0879 11.6284 13.0879Z" fill="#3E4B5A"/>
<path d="M45.678 13.1445C45.6515 13.1445 45.6249 13.1433 45.598 13.1407C42.5318 12.8443 41.7113 12.4911 30.0251 9.19262C29.5751 9.06559 29.3102 8.58712 29.4336 8.12379C29.5571 7.66071 30.0223 7.38822 30.4723 7.51516C42.1749 10.8181 42.8777 11.1307 45.7561 11.4088C46.2208 11.4538 46.5621 11.8778 46.5185 12.356C46.4774 12.8066 46.1091 13.1445 45.678 13.1445Z" fill="#3E4B5A"/>
<path d="M28.517 4.45965C29.1217 4.45965 29.688 4.62792 30.1754 4.92011V1.69296C30.1754 1.04218 29.6627 0.514526 29.0302 0.514526H28.0035C27.3711 0.514526 26.8584 1.04218 26.8584 1.69296V4.92011C27.3459 4.6277 27.9122 4.45965 28.517 4.45965Z" fill="#205675"/>
<path d="M30.1753 46.3715V10.7889C29.6879 11.0813 29.1216 11.2494 28.5168 11.2494C27.9121 11.2494 27.3458 11.0811 26.8584 10.7889V46.3715H30.1753Z" fill="#205675"/>
<path d="M29.0908 1.69296C29.0908 1.2701 29.3079 0.90036 29.6331 0.692472C29.4579 0.58037 29.2518 0.514526 29.0302 0.514526H28.0035C27.3711 0.514526 26.8584 1.04218 26.8584 1.69296V4.92011C27.3458 4.6277 27.9121 4.45965 28.5168 4.45965C28.7128 4.45965 28.9042 4.47912 29.0908 4.51289V1.69296Z" fill="#164662"/>
<path d="M28.5168 11.2497C27.9121 11.2497 27.3458 11.0815 26.8584 10.7892V46.3717H29.0908V11.1964C28.9042 11.2302 28.7128 11.2497 28.5168 11.2497Z" fill="#164662"/>
<path d="M38.5671 27.975H55.1516C55.9334 27.975 56.5731 28.6332 56.5731 29.4379V30.0068C56.5731 30.8114 55.9334 31.4697 55.1516 31.4697H38.5671C37.7853 31.4697 37.1455 30.8115 37.1455 30.0068V29.4379C37.1455 28.6332 37.7853 27.975 38.5671 27.975Z" fill="#92A2B8"/>
<path d="M55.1515 29.1531H38.5671C38.1039 29.1531 37.6918 28.921 37.4319 28.5654C37.253 28.81 37.1455 29.1126 37.1455 29.4405V30.0094C37.1455 30.814 37.7852 31.4723 38.5671 31.4723H55.1515C55.9334 31.4723 56.573 30.8141 56.573 30.0094V29.4405C56.573 29.1126 56.4655 28.81 56.2867 28.5654C56.0267 28.921 55.6148 29.1531 55.1515 29.1531Z" fill="#9EAFC6"/>
<path d="M54.4456 31.4705C53.966 35.151 50.9044 37.99 47.1965 37.99C43.4885 37.99 40.427 35.151 39.9473 31.4705H54.4456Z" fill="#D7DEED"/>
<path d="M6.05439 31.4705H2.67383C3.15355 35.151 6.21506 37.99 9.92301 37.99C10.5048 37.99 11.0706 37.9201 11.6132 37.7879C8.69845 37.0781 6.45874 34.5735 6.05439 31.4705Z" fill="#C7CFE2"/>
<path d="M43.3277 31.4705H39.9473C40.427 35.151 43.4885 37.99 47.1965 37.99C47.7783 37.99 48.3441 37.9201 48.8868 37.7879C45.9718 37.0781 43.7322 34.5735 43.3277 31.4705Z" fill="#C7CFE2"/>
<path d="M10.2664 14.4933C11.5175 14.4933 12.5317 13.4496 12.5317 12.1621C12.5317 10.8746 11.5175 9.83087 10.2664 9.83087C9.01525 9.83087 8.00098 10.8746 8.00098 12.1621C8.00098 13.4496 9.01525 14.4933 10.2664 14.4933Z" fill="#9EAFC6"/>
<path d="M46.8435 14.4932C48.0946 14.4932 49.1088 13.4494 49.1088 12.162C49.1088 10.8745 48.0946 9.83075 46.8435 9.83075C45.5924 9.83075 44.5781 10.8745 44.5781 12.162C44.5781 13.4494 45.5924 14.4932 46.8435 14.4932Z" fill="#9EAFC6"/>
<path d="M34.9008 46.0223H22.1071C21.3253 46.0223 20.6855 46.6805 20.6855 47.4852V49.8648H36.3224V47.4852C36.3224 46.6805 35.6827 46.0223 34.9008 46.0223Z" fill="#3E4B5A"/>
<path d="M20.7137 47.1996C20.6954 47.2927 20.6855 47.3887 20.6855 47.487V49.8666H36.3223V47.487C36.3223 47.3886 36.3125 47.2926 36.2942 47.1996H20.7137Z" fill="#303F49"/>
<path d="M36.8293 49.5172H20.2448C19.463 49.5172 18.8232 50.1755 18.8232 50.9801V51.5491C18.8232 52.3536 19.463 53.0119 20.2448 53.0119H36.8293C37.6111 53.0119 38.2509 52.3537 38.2509 51.5491V50.9801C38.2509 50.1755 37.6111 49.5172 36.8293 49.5172Z" fill="#576574"/>
<path d="M36.8292 50.6953H20.2447C19.7815 50.6953 19.3694 50.4633 19.1096 50.1075C18.9308 50.3523 18.8232 50.6548 18.8232 50.9827V51.5517C18.8232 52.3562 19.4629 53.0145 20.2448 53.0145H36.8293C37.6111 53.0145 38.2508 52.3563 38.2508 51.5517V50.9827C38.2508 50.6548 38.1433 50.3521 37.9645 50.1075C37.7044 50.4633 37.2924 50.6953 36.8292 50.6953Z" fill="#3E4B5A"/>
<path d="M28.501 11.2481C30.3235 11.2481 31.8008 9.72785 31.8008 7.8524C31.8008 5.977 30.3235 4.45667 28.501 4.45667C26.6785 4.45667 25.2012 5.977 25.2012 7.8524C25.2012 9.72785 26.6785 11.2481 28.501 11.2481Z" fill="#92A2B8"/>
<path d="M11.3815 12.1621C11.3815 11.567 11.6001 11.0257 11.9566 10.6138C11.5417 10.1346 10.9392 9.83087 10.2663 9.83087C9.0152 9.83087 8.00098 10.8746 8.00098 12.1621C8.00098 13.4496 9.0152 14.4933 10.2663 14.4933C10.9392 14.4933 11.5417 14.1897 11.9566 13.7104C11.6001 13.2984 11.3815 12.7572 11.3815 12.1621Z" fill="#92A2B8"/>
<path d="M47.9587 12.162C47.9587 11.5669 48.1772 11.0256 48.5337 10.6137C48.1189 10.1344 47.5164 9.83075 46.8435 9.83075C45.5924 9.83075 44.5781 10.8745 44.5781 12.162C44.5781 13.4494 45.5924 14.4932 46.8435 14.4932C47.5164 14.4932 48.1188 14.1896 48.5337 13.7102C48.1771 13.2983 47.9587 12.7571 47.9587 12.162Z" fill="#92A2B8"/>
<path d="M28.5817 7.8524C28.5817 6.61283 29.2275 5.52885 30.1912 4.93592C29.6969 4.6318 29.1189 4.45667 28.501 4.45667C26.6786 4.45667 25.2012 5.97704 25.2012 7.8524C25.2012 9.72777 26.6786 11.2481 28.501 11.2481C29.1189 11.2481 29.6968 11.073 30.1912 10.7689C29.2273 10.1761 28.5817 9.09197 28.5817 7.8524Z" fill="#9EAFC6"/>
<path d="M1.99088 27.975H18.5754C19.3573 27.975 19.9969 28.6332 19.9969 29.4379V30.0068C19.9969 30.8114 19.3573 31.4697 18.5754 31.4697H1.99088C1.20896 31.4696 0.569336 30.8112 0.569336 30.0067V29.4378C0.569336 28.6332 1.20896 27.975 1.99088 27.975Z" fill="#92A2B8"/>
<path d="M18.5753 29.1531H1.99088C1.52768 29.1531 1.11566 28.921 0.85568 28.5654C0.676852 28.81 0.569336 29.1126 0.569336 29.4405V30.0094C0.569336 30.814 1.20896 31.4723 1.99088 31.4723H18.5753C19.3571 31.4723 19.9969 30.8141 19.9969 30.0094V29.4405C19.9969 29.1126 19.8893 28.81 19.7105 28.5654C19.4505 28.921 19.0385 29.1531 18.5753 29.1531Z" fill="#9EAFC6"/>
</svg>
