<svg width="55" height="54" viewBox="0 0 55 54" fill="none" xmlns="http://www.w3.org/2000/svg">
<g clip-path="url(#clip0_1841_830)">
<path d="M51.1333 22.8832C50.3151 22.2875 49.2843 21.5433 49.1595 21.0571C49.2119 20.1161 49.484 19.1998 49.9545 18.3798C50.6756 16.7454 51.4197 15.0519 50.5924 13.6435C49.765 12.2352 47.8837 12.007 46.074 11.8175C45.1361 11.8113 44.2119 11.5934 43.3723 11.1807C42.9537 10.3485 42.7339 9.4325 42.7297 8.50325C42.5263 6.71608 42.3159 4.86724 40.8807 4.04094C39.4455 3.21464 37.7282 3.93823 36.0735 4.65946C35.2424 5.12392 34.3138 5.39258 33.3603 5.44468C32.861 5.31234 32.11 4.30339 31.5113 3.49539C30.4621 2.09849 29.281 0.514465 27.5754 0.514465C25.8697 0.514465 24.6888 2.09849 23.6463 3.49539C23.0408 4.30564 22.2896 5.32142 21.7973 5.44693C20.8446 5.39022 19.9171 5.12189 19.0841 4.66171C17.42 3.93812 15.7052 3.21688 14.2838 4.02949C12.8624 4.8421 12.6244 6.70463 12.421 8.50319C12.4144 9.42921 12.1947 10.3416 11.7785 11.1715C10.9404 11.5784 10.0198 11.7922 9.08597 11.7968C7.27406 11.9977 5.39963 12.2054 4.56533 13.6229C3.73104 15.0403 4.46382 16.7341 5.19411 18.3706C5.66613 19.1933 5.93828 20.113 5.98919 21.0571C5.85518 21.5502 4.83357 22.2943 4.01542 22.8832C2.60098 23.9103 0.99707 25.079 0.99707 26.7635C0.99707 28.448 2.60098 29.6166 4.0178 30.6438C4.83595 31.2395 5.86677 31.9836 5.99158 32.4698C5.93914 33.4109 5.667 34.3272 5.1965 35.1472C4.47541 36.7815 3.73125 38.4751 4.55862 39.8834C5.38598 41.2918 7.26734 41.52 9.077 41.7095C10.015 41.7157 10.939 41.9335 11.7788 42.3463C12.1974 43.1785 12.4172 44.0945 12.4213 45.0237C12.6246 46.8109 12.835 48.6597 14.2703 49.486C15.7055 50.3123 17.4089 49.5682 19.066 48.856C19.9055 48.3968 20.8395 48.1314 21.7978 48.0801C22.297 48.2124 23.0481 49.2213 23.6468 50.0293C24.6891 51.4262 25.8702 53.0103 27.5758 53.0103C29.2815 53.0103 30.4624 51.4262 31.5048 50.0293C32.1103 49.2191 32.8615 48.2033 33.3538 48.0778C34.3071 48.1311 35.2353 48.3996 36.0671 48.863C37.7219 49.5752 39.4367 50.3056 40.8603 49.4952C42.284 48.6849 42.5197 46.8201 42.7232 45.0306C42.7298 44.1046 42.9495 43.1922 43.3657 42.3624C44.2053 41.9522 45.1285 41.7359 46.0651 41.7302C47.8771 41.5293 49.7515 41.3215 50.5858 39.9041C51.4201 38.4867 50.6667 36.8044 49.9479 35.1679C49.4774 34.341 49.2084 33.4173 49.1621 32.4699C49.2962 31.9769 50.3178 31.2328 51.1359 30.6439C52.5504 29.6145 54.1567 28.4458 54.1567 26.7636C54.1567 25.0813 52.5499 23.9103 51.1333 22.8832Z" fill="#164662"/>
<path d="M12.7059 11.7235L12.6863 11.7081C12.4647 11.5475 12.2314 11.3721 11.9922 11.1925C10.7979 10.2957 9.56225 9.36786 8.7265 9.36786C7.9457 9.36786 7.40137 10.4024 7.40137 11.3309C7.40137 13.3195 8.51246 16.7102 9.11047 17.4029C9.17342 17.4757 9.26559 17.5177 9.36249 17.5177H9.37159C9.47188 17.515 9.56552 17.4676 9.62637 17.3888C9.93738 16.9847 10.2808 16.5709 10.6446 16.1308C11.4762 15.1781 12.233 14.1641 12.9082 13.0976C13.0292 12.919 13.098 12.711 13.107 12.4963C13.1021 12.1912 12.954 11.9055 12.7059 11.7235Z" fill="#C8C6CC"/>
<path d="M25.2905 9.36786C24.4547 9.36786 23.2191 10.2957 22.0248 11.1928C21.7856 11.3724 21.5525 11.5478 21.3291 11.7084L21.3105 11.7229C21.063 11.9052 20.9155 12.1906 20.9111 12.4957C20.9192 12.7086 20.9865 12.9153 21.1058 13.0931C21.7819 14.1612 22.5397 15.1768 23.3724 16.1308C23.7368 16.5699 24.0797 16.9847 24.3908 17.3888C24.4515 17.4676 24.5453 17.515 24.6456 17.5177H24.6545C24.7515 17.5177 24.8436 17.4757 24.9066 17.4029C25.5045 16.7102 26.6156 13.3195 26.6156 11.3309C26.6156 10.4024 26.0713 9.36786 25.2905 9.36786Z" fill="#C8C6CC"/>
<path d="M24.7719 20.5572C25.1399 20.3602 25.5393 20.2274 25.9529 20.1645C26.1358 20.1645 26.2842 20.018 26.2842 19.8373C26.2842 18.9036 25.5938 17.8743 24.918 16.9927C24.5996 16.5794 24.2525 16.1604 23.8852 15.7166C23.0733 14.787 22.3343 13.7976 21.6741 12.7574C21.6176 12.6796 21.5834 12.5882 21.5748 12.4926C21.58 12.395 21.6296 12.3049 21.7099 12.2475C21.7307 12.2329 21.7503 12.2162 21.7683 12.1982C21.8562 12.1067 21.8832 11.9733 21.8373 11.8556C21.7915 11.7377 21.681 11.6563 21.5536 11.6466C21.0031 11.6471 20.4554 11.7228 19.926 11.8717C18.9715 12.1098 17.9927 12.2401 17.0084 12.26C16.0249 12.2398 15.0469 12.1092 14.0932 11.8711C13.5637 11.7226 13.0161 11.6469 12.4656 11.6459C12.3382 11.6557 12.2277 11.737 12.1819 11.8547C12.136 11.9726 12.1628 12.106 12.251 12.1976C12.2689 12.2158 12.2887 12.2322 12.3095 12.2469C12.3908 12.3051 12.4406 12.3964 12.4448 12.4954C12.4346 12.5915 12.3986 12.6833 12.3411 12.7617C11.6818 13.8002 10.9437 14.7878 10.1331 15.7159C9.76573 16.1599 9.41846 16.579 9.09951 16.992C8.42305 17.8759 7.73262 18.9036 7.73262 19.8373C7.73262 20.018 7.88095 20.1645 8.06393 20.1645C8.47755 20.2274 8.87708 20.3602 9.2449 20.5572C8.12331 21.9571 7.40137 23.0285 7.40137 24.4178C7.40137 24.5227 7.45235 24.6214 7.53856 24.6829C7.62457 24.7444 7.73537 24.7613 7.83631 24.7286C8.07975 24.6498 8.33453 24.61 8.59059 24.6107C8.91915 24.6075 9.24445 24.6737 9.54483 24.8048C8.99403 25.4179 8.70127 26.2157 8.7265 27.0351C8.7258 27.1488 8.78504 27.2546 8.88271 27.3147C8.98058 27.3747 9.10291 27.3803 9.20589 27.3295C9.82689 27.0407 10.4879 26.8437 11.1671 26.7452C11.0745 27.1626 11.0336 27.5895 11.0454 28.0166C11.0454 28.1372 11.1127 28.2482 11.2204 28.3051C11.3282 28.362 11.4589 28.3558 11.5606 28.2888C12.1695 27.8877 13.8152 27.7179 15.1529 27.6926C15.2936 27.6901 15.4174 27.6 15.4614 27.4679C15.5054 27.3357 15.4601 27.1907 15.3485 27.106C15.3176 27.0829 15.2878 27.0583 15.2576 27.0328C15.2891 27.0351 15.3189 27.0351 15.352 27.0351C15.8261 27.0351 16.5778 27.0351 17.0084 26.6196C17.4391 27.0351 18.1907 27.0351 18.6648 27.0351C18.6979 27.0351 18.7287 27.0351 18.7606 27.0328C18.7305 27.0591 18.6993 27.0841 18.6685 27.1087C18.5585 27.1944 18.515 27.3388 18.5596 27.4698C18.6042 27.6008 18.7274 27.6901 18.8671 27.6926C20.2032 27.7179 21.847 27.8874 22.4567 28.2888C22.5582 28.3556 22.6888 28.3618 22.7966 28.3048C22.9041 28.2479 22.9714 28.1372 22.9714 28.0166C22.9834 27.5891 22.9426 27.1616 22.8499 26.7439C23.529 26.8439 24.1898 27.0412 24.8113 27.3295C24.9143 27.3802 25.0365 27.3746 25.1341 27.3145C25.2317 27.2544 25.291 27.1487 25.2903 27.0351C25.3156 26.2157 25.0228 25.4179 24.4721 24.8048C24.7725 24.6737 25.0978 24.6075 25.4262 24.6107C25.6824 24.61 25.937 24.6498 26.1805 24.7286C26.2814 24.7613 26.3922 24.7444 26.4784 24.6829C26.5645 24.6214 26.6154 24.5227 26.6154 24.4178C26.6154 23.0285 25.8937 21.9571 24.7719 20.5572Z" fill="#C8C6CC"/>
<path d="M13.6958 19.8373C13.3299 19.8373 13.0332 19.5443 13.0332 19.183C13.0332 18.8217 13.3299 18.5287 13.6958 18.5287C14.0617 18.5287 14.3583 18.8217 14.3583 19.183C14.3583 19.5443 14.0617 19.8373 13.6958 19.8373Z" fill="#164662"/>
<path d="M19.9897 19.8373C19.6238 19.8373 19.3271 19.5443 19.3271 19.183C19.3271 18.8217 19.6238 18.5287 19.9897 18.5287C20.3556 18.5287 20.6523 18.8217 20.6523 19.183C20.6523 19.5443 20.3556 19.8373 19.9897 19.8373Z" fill="#164662"/>
<path d="M20.8006 16.2728C20.7545 16.2501 20.7039 16.2384 20.6524 16.2384C20.0813 16.2477 19.5179 16.3707 18.9961 16.5999V16.5656C18.9961 16.4522 18.9367 16.3469 18.839 16.2871C18.7415 16.2276 18.6195 16.2221 18.5168 16.2728C17.9626 16.545 17.4539 16.8993 17.0084 17.3236C16.5629 16.8993 16.0542 16.545 15.5002 16.2728C15.3975 16.2221 15.2755 16.2276 15.1778 16.2871C15.0801 16.3469 15.0207 16.4522 15.0207 16.5656V16.5999C14.4989 16.3707 13.9355 16.2477 13.3643 16.2384C13.3129 16.2384 13.2623 16.2501 13.2163 16.2728C12.7319 16.5303 12.3348 16.9225 12.074 17.401C11.9923 17.5626 12.0587 17.7591 12.2225 17.8399C12.3862 17.9208 12.5853 17.8551 12.667 17.6933C12.85 17.3628 13.1196 17.0868 13.4478 16.8947C13.8344 16.9097 14.6882 17.0273 15.1178 17.4509C15.2126 17.5444 15.3549 17.5724 15.4787 17.5218C15.6024 17.4714 15.6832 17.3522 15.6833 17.2199V17.1257C16.0901 17.3436 16.4418 17.6495 16.7119 18.0205C16.7221 18.0382 16.7339 18.0548 16.747 18.0703C16.7514 18.0773 16.7562 18.084 16.7613 18.0906C16.7871 18.119 16.8179 18.1427 16.852 18.1606C16.8554 18.1606 16.857 18.1655 16.8604 18.1671C16.8636 18.1687 16.8699 18.1671 16.8749 18.1703C16.9167 18.1899 16.9622 18.2005 17.0084 18.2014C17.0543 18.2005 17.0995 18.1901 17.1409 18.1706C17.1459 18.1687 17.1509 18.1706 17.1555 18.1674C17.1601 18.1642 17.1605 18.1625 17.1639 18.1609C17.198 18.143 17.2287 18.1193 17.2546 18.0909C17.2602 18.0847 17.2635 18.0774 17.2688 18.0709C17.282 18.0552 17.2937 18.0385 17.3039 18.0209C17.5745 17.6498 17.9265 17.3439 18.3336 17.126V17.2199C18.3336 17.3522 18.4143 17.4715 18.538 17.5222C18.6619 17.5728 18.8042 17.5447 18.899 17.4512C19.3691 16.987 20.2904 16.9084 20.5703 16.895C20.8977 17.0875 21.1669 17.3631 21.3498 17.6929C21.4316 17.8548 21.6306 17.9205 21.7945 17.8396C21.9582 17.7588 22.0246 17.5623 21.9428 17.4005C21.6821 16.9223 21.285 16.5302 20.8006 16.2728Z" fill="#D8D8DA"/>
<path d="M11.2967 21.8101C11.2386 21.8243 9.87399 22.1675 9.15487 22.8777C9.06879 22.9598 9.03414 23.0815 9.06456 23.1959C9.09485 23.3103 9.18522 23.3996 9.30108 23.4295C9.41688 23.4595 9.54017 23.4253 9.62331 23.3404C10.2119 22.7593 11.4453 22.4478 11.4573 22.445C11.6318 22.3986 11.7367 22.2227 11.6928 22.0496C11.649 21.8764 11.4727 21.7698 11.2967 21.8101Z" fill="#D8D8DA"/>
<path d="M24.8614 22.8777C24.1422 22.1675 22.7777 21.8243 22.7198 21.8101C22.5436 21.7698 22.3673 21.8764 22.3234 22.0496C22.2796 22.2227 22.3844 22.3986 22.5589 22.445C22.5712 22.4478 23.8043 22.7593 24.393 23.3404C24.523 23.4643 24.7296 23.4626 24.8574 23.3363C24.9852 23.2101 24.987 23.0061 24.8614 22.8777Z" fill="#D8D8DA"/>
<path d="M9.71084 15.001C9.56609 15.0012 9.43812 14.9084 9.39477 14.7721C9.01932 13.6591 8.79464 12.502 8.72656 11.3309C8.72688 11.2571 8.73367 11.1836 8.74706 11.111C8.78478 10.9392 8.95335 10.8275 9.12852 10.8582C9.30388 10.8887 9.42339 11.0507 9.39912 11.2248C9.39265 11.2598 9.38945 11.2952 9.38913 11.3309C9.44844 12.4365 9.66312 13.5286 10.0269 14.5757C10.0817 14.7481 9.9847 14.9318 9.81017 14.986C9.77796 14.9959 9.74446 15.001 9.71084 15.001Z" fill="#F5F5F5"/>
<path d="M19.899 26.0991C19.778 26.0036 19.6062 26.0036 19.4852 26.0991C19.2528 26.2829 18.9632 26.3825 18.6653 26.3807C17.539 26.3807 17.3402 26.2093 17.3402 25.7264C17.3402 25.5457 17.1918 25.3992 17.0089 25.3992C16.8259 25.3992 16.6776 25.5457 16.6776 25.7264C16.6776 26.2093 16.4788 26.3807 15.3525 26.3807C15.0546 26.3825 14.7651 26.2829 14.5326 26.0991C14.4117 26.0034 14.24 26.0032 14.1188 26.0986C13.9978 26.194 13.9598 26.3597 14.0274 26.4972C14.1621 26.7716 14.3354 27.0261 14.5419 27.253C14.6618 27.3867 14.7941 27.5092 14.9371 27.6188C15.4754 28.0531 16.1406 28.3054 16.835 28.3385C16.8913 28.3421 16.9479 28.3425 17.0086 28.3425C17.0692 28.3425 17.1259 28.3425 17.1779 28.3388C17.8728 28.3078 18.5393 28.0573 19.079 27.6239C19.2215 27.513 19.3537 27.3899 19.4742 27.2558C19.6816 27.0282 19.8554 26.7729 19.9904 26.4972C20.0579 26.3597 20.0198 26.1944 19.899 26.0991Z" fill="#C8C6CC"/>
<path d="M24.3061 15.001C24.2722 15.001 24.2388 14.9959 24.2066 14.986C24.0321 14.9318 23.935 14.7481 23.99 14.5757C24.3536 13.5286 24.5683 12.4365 24.6276 11.3309C24.6275 11.2952 24.6241 11.2598 24.6178 11.2248C24.5935 11.0507 24.7129 10.8887 24.8882 10.8582C25.0636 10.8275 25.232 10.9392 25.2696 11.111C25.2831 11.1836 25.2901 11.2571 25.2902 11.3309C25.2221 12.502 24.9974 13.6591 24.622 14.7721C24.5786 14.9084 24.4507 15.0012 24.3061 15.001Z" fill="#F5F5F5"/>
<path d="M19.4755 21.5059C19.3116 21.4251 19.1126 21.4907 19.0308 21.6524C18.9491 21.8143 19.0154 22.0107 19.1793 22.0916C19.717 22.3585 19.9899 22.6389 19.9899 23.4362V25.0721C19.9918 25.4721 19.8061 25.8505 19.487 26.097C19.2542 26.2823 18.9637 26.3825 18.6648 26.3808C17.5384 26.3808 17.3396 26.2093 17.3396 25.7264C17.3396 25.5457 17.1913 25.3992 17.0084 25.3992C16.8254 25.3992 16.677 25.5457 16.677 25.7264C16.677 26.2093 16.4783 26.3808 15.352 26.3808C15.054 26.3825 14.7646 26.283 14.532 26.0991C14.2116 25.8526 14.0249 25.4732 14.0268 25.0721V23.4362C14.0268 22.6389 14.2999 22.3585 14.8376 22.0948C15.0013 22.0141 15.0677 21.8174 14.9859 21.6558C14.9042 21.494 14.7051 21.4284 14.5414 21.5091C13.7053 21.9205 13.3643 22.4793 13.3643 23.4362V25.0721C13.3615 25.672 13.6393 26.2394 14.117 26.6098H14.1186C14.4693 26.8852 14.904 27.0351 15.352 27.0351C15.8261 27.0351 16.5778 27.0351 17.0084 26.6186C17.4391 27.0351 18.1906 27.0351 18.6648 27.0351C19.111 27.0352 19.5444 26.8865 19.8945 26.613H19.8962C20.3762 26.2427 20.6553 25.6737 20.6524 25.0721V23.4362C20.6524 22.4793 20.3116 21.9205 19.4755 21.5059Z" fill="#D8D8DA"/>
<path d="M18.3329 24.7449C18.3329 25.4676 17.7396 26.0536 17.0078 26.0536C16.276 26.0536 15.6826 25.4676 15.6826 24.7449C15.6826 24.0222 16.276 23.4362 17.0078 23.4362C17.7396 23.4362 18.3329 24.0222 18.3329 24.7449Z" fill="#164662"/>
<path d="M33.8416 11.7235L33.822 11.7081C33.6004 11.5475 33.3672 11.3721 33.1279 11.1925C31.9337 10.2957 30.698 9.36786 29.8622 9.36786C29.0814 9.36786 28.5371 10.4024 28.5371 11.3309C28.5371 13.3195 29.6482 16.7102 30.2462 17.4029C30.3092 17.4757 30.4013 17.5177 30.4982 17.5177H30.5073C30.6076 17.515 30.7013 17.4676 30.7621 17.3888C31.0731 16.9847 31.4165 16.5709 31.7803 16.1308C32.6119 15.1781 33.3688 14.1641 34.0439 13.0976C34.1649 12.919 34.2337 12.711 34.2428 12.4963C34.2379 12.1912 34.0897 11.9055 33.8416 11.7235Z" fill="#C8C6CC"/>
<path d="M46.4263 9.36786C45.5905 9.36786 44.3548 10.2957 43.1605 11.1928C42.9213 11.3724 42.6882 11.5478 42.4648 11.7084L42.4462 11.7229C42.1987 11.9052 42.0512 12.1906 42.0469 12.4957C42.0549 12.7086 42.1223 12.9153 42.2416 13.0931C42.9176 14.1612 43.6754 15.1768 44.5081 16.1308C44.8726 16.5699 45.2155 16.9847 45.5266 17.3888C45.5872 17.4676 45.681 17.515 45.7813 17.5177H45.7902C45.8873 17.5177 45.9793 17.4757 46.0424 17.4029C46.6403 16.7102 47.7514 13.3195 47.7514 11.3309C47.7514 10.4024 47.2071 9.36786 46.4263 9.36786Z" fill="#C8C6CC"/>
<path d="M45.9076 20.5572C46.2756 20.3602 46.675 20.2274 47.0886 20.1645C47.2716 20.1645 47.4199 20.018 47.4199 19.8373C47.4199 18.9036 46.7295 17.8743 46.0537 16.9927C45.7353 16.5794 45.3882 16.1604 45.0209 15.7166C44.209 14.787 43.47 13.7976 42.8099 12.7574C42.7534 12.6796 42.7191 12.5882 42.7105 12.4926C42.7157 12.395 42.7654 12.3049 42.8456 12.2475C42.8665 12.2329 42.886 12.2162 42.904 12.1982C42.992 12.1067 43.019 11.9733 42.9731 11.8556C42.9273 11.7377 42.8168 11.6563 42.6893 11.6466C42.1388 11.6471 41.5912 11.7228 41.0618 11.8717C40.1072 12.1098 39.1284 12.2401 38.1442 12.26C37.1607 12.2398 36.1827 12.1092 35.2289 11.8711C34.6994 11.7226 34.1519 11.6469 33.6014 11.6459C33.4739 11.6557 33.3634 11.737 33.3176 11.8547C33.2717 11.9726 33.2986 12.106 33.3868 12.1976C33.4047 12.2158 33.4244 12.2322 33.4453 12.2469C33.5265 12.3051 33.5763 12.3964 33.5805 12.4954C33.5703 12.5915 33.5344 12.6833 33.4768 12.7617C32.8175 13.8002 32.0794 14.7878 31.2688 15.7159C30.9015 16.1599 30.5542 16.579 30.2353 16.992C29.5588 17.8759 28.8684 18.9036 28.8684 19.8373C28.8684 20.018 29.0167 20.1645 29.1997 20.1645C29.6133 20.2274 30.0128 20.3602 30.3806 20.5572C29.259 21.9571 28.5371 23.0285 28.5371 24.4178C28.5371 24.5227 28.5881 24.6214 28.6743 24.6829C28.7603 24.7444 28.8711 24.7613 28.9721 24.7286C29.2155 24.6498 29.4703 24.61 29.7263 24.6107C30.0549 24.6075 30.3802 24.6737 30.6806 24.8048C30.1298 25.4179 29.837 26.2157 29.8622 27.0351C29.8615 27.1488 29.9208 27.2546 30.0185 27.3147C30.1163 27.3747 30.2386 27.3803 30.3416 27.3295C30.9626 27.0407 31.6236 26.8437 32.3028 26.7452C32.2103 27.1626 32.1693 27.5895 32.1811 28.0166C32.1811 28.1372 32.2484 28.2482 32.3562 28.3051C32.4639 28.362 32.5946 28.3558 32.6963 28.2888C33.3052 27.8877 34.9509 27.7179 36.2887 27.6926C36.4294 27.6901 36.5531 27.6 36.5971 27.4679C36.6411 27.3357 36.5958 27.1907 36.4842 27.106C36.4533 27.0829 36.4235 27.0583 36.3933 27.0328C36.4248 27.0351 36.4546 27.0351 36.4878 27.0351C36.9619 27.0351 37.7136 27.0351 38.1442 26.6196C38.5749 27.0351 39.3264 27.0351 39.8006 27.0351C39.8337 27.0351 39.8644 27.0351 39.8963 27.0328C39.8662 27.0591 39.835 27.0841 39.8043 27.1087C39.6942 27.1944 39.6507 27.3388 39.6954 27.4698C39.7399 27.6008 39.8631 27.6901 40.0029 27.6926C41.339 27.7179 42.9827 27.8874 43.5924 28.2888C43.694 28.3556 43.8246 28.3618 43.9323 28.3048C44.0398 28.2479 44.1071 28.1372 44.1071 28.0166C44.1191 27.5891 44.0783 27.1616 43.9856 26.7439C44.6647 26.8439 45.3255 27.0412 45.9471 27.3295C46.05 27.3802 46.1723 27.3746 46.2698 27.3145C46.3675 27.2544 46.4267 27.1487 46.4261 27.0351C46.4513 26.2157 46.1585 25.4179 45.6079 24.8048C45.9083 24.6737 46.2336 24.6075 46.5619 24.6107C46.8182 24.61 47.0728 24.6498 47.3162 24.7286C47.4172 24.7613 47.528 24.7444 47.6142 24.6829C47.7002 24.6214 47.7512 24.5227 47.7512 24.4178C47.7512 23.0285 47.0294 21.9571 45.9076 20.5572Z" fill="#C8C6CC"/>
<path d="M34.8315 19.8373C34.4656 19.8373 34.1689 19.5443 34.1689 19.183C34.1689 18.8217 34.4656 18.5287 34.8315 18.5287C35.1974 18.5287 35.4941 18.8217 35.4941 19.183C35.4941 19.5443 35.1974 19.8373 34.8315 19.8373Z" fill="#164662"/>
<path d="M41.1255 19.8373C40.7596 19.8373 40.4629 19.5443 40.4629 19.183C40.4629 18.8217 40.7596 18.5287 41.1255 18.5287C41.4914 18.5287 41.788 18.8217 41.788 19.183C41.788 19.5443 41.4914 19.8373 41.1255 19.8373Z" fill="#164662"/>
<path d="M41.9364 16.2728C41.8903 16.2501 41.8397 16.2384 41.7882 16.2384C41.2171 16.2477 40.6536 16.3707 40.1318 16.5999V16.5656C40.1318 16.4522 40.0724 16.3469 39.9747 16.2871C39.8772 16.2276 39.7553 16.2221 39.6525 16.2728C39.0983 16.545 38.5896 16.8993 38.1442 17.3236C37.6986 16.8993 37.1899 16.545 36.6359 16.2728C36.5332 16.2221 36.4112 16.2276 36.3136 16.2871C36.2158 16.3469 36.1565 16.4522 36.1565 16.5656V16.5999C35.6347 16.3707 35.0712 16.2477 34.5001 16.2384C34.4486 16.2384 34.398 16.2501 34.3521 16.2728C33.8676 16.5303 33.4705 16.9225 33.2098 17.401C33.1281 17.5626 33.1944 17.7591 33.3582 17.8399C33.5219 17.9208 33.7211 17.8551 33.8028 17.6933C33.9857 17.3628 34.2553 17.0868 34.5836 16.8947C34.9702 16.9097 35.8239 17.0273 36.2536 17.4509C36.3483 17.5444 36.4907 17.5724 36.6144 17.5218C36.7381 17.4714 36.8189 17.3522 36.819 17.2199V17.1257C37.2258 17.3436 37.5775 17.6495 37.8476 18.0205C37.8579 18.0382 37.8697 18.0548 37.8828 18.0703C37.8871 18.0773 37.8919 18.084 37.897 18.0906C37.9229 18.119 37.9536 18.1427 37.9878 18.1606C37.9911 18.1606 37.9928 18.1655 37.9961 18.1671C37.9993 18.1687 38.0057 18.1671 38.0107 18.1703C38.0524 18.1899 38.0979 18.2005 38.1442 18.2014C38.1901 18.2005 38.2352 18.1901 38.2766 18.1706C38.2817 18.1687 38.2867 18.1706 38.2912 18.1674C38.2959 18.1642 38.2962 18.1625 38.2996 18.1609C38.3337 18.143 38.3645 18.1193 38.3904 18.0909C38.396 18.0847 38.3993 18.0774 38.4046 18.0709C38.4177 18.0552 38.4295 18.0385 38.4397 18.0209C38.7103 17.6498 39.0623 17.3439 39.4693 17.126V17.2199C39.4693 17.3522 39.55 17.4715 39.6737 17.5222C39.7976 17.5728 39.94 17.5447 40.0348 17.4512C40.5048 16.987 41.4262 16.9084 41.706 16.895C42.0334 17.0875 42.3026 17.3631 42.4855 17.6929C42.5674 17.8548 42.7664 17.9205 42.9302 17.8396C43.0939 17.7588 43.1604 17.5623 43.0785 17.4005C42.8178 16.9223 42.4207 16.5302 41.9364 16.2728Z" fill="#D8D8DA"/>
<path d="M32.4324 21.8101C32.3743 21.8243 31.0097 22.1675 30.2906 22.8777C30.2045 22.9598 30.1699 23.0815 30.2003 23.1959C30.2306 23.3103 30.321 23.3996 30.4368 23.4295C30.5526 23.4595 30.6759 23.4253 30.759 23.3404C31.3476 22.7593 32.5811 22.4478 32.593 22.445C32.7676 22.3986 32.8724 22.2227 32.8285 22.0496C32.7847 21.8764 32.6084 21.7698 32.4324 21.8101Z" fill="#D8D8DA"/>
<path d="M45.9972 22.8777C45.278 22.1675 43.9134 21.8243 43.8555 21.8101C43.6793 21.7698 43.503 21.8764 43.4592 22.0496C43.4154 22.2227 43.5201 22.3986 43.6947 22.445C43.707 22.4478 44.9401 22.7593 45.5287 23.3404C45.6587 23.4643 45.8653 23.4626 45.9931 23.3363C46.1209 23.2101 46.1227 23.0061 45.9972 22.8777Z" fill="#D8D8DA"/>
<path d="M30.8466 15.001C30.7018 15.0012 30.5739 14.9084 30.5305 14.7721C30.1551 13.6591 29.9304 12.502 29.8623 11.3309C29.8626 11.2571 29.8694 11.1836 29.8828 11.111C29.9205 10.9392 30.0891 10.8275 30.2643 10.8582C30.4396 10.8887 30.5591 11.0507 30.5349 11.2248C30.5284 11.2598 30.5252 11.2952 30.5249 11.3309C30.5842 12.4365 30.7989 13.5286 31.1627 14.5757C31.2175 14.7481 31.1204 14.9318 30.9459 14.986C30.9137 14.9959 30.8802 15.001 30.8466 15.001Z" fill="#F5F5F5"/>
<path d="M41.0348 26.0991C40.9137 26.0036 40.742 26.0036 40.621 26.0991C40.3885 26.2829 40.099 26.3825 39.801 26.3807C38.6747 26.3807 38.4759 26.2093 38.4759 25.7264C38.4759 25.5457 38.3276 25.3992 38.1447 25.3992C37.9617 25.3992 37.8133 25.5457 37.8133 25.7264C37.8133 26.2093 37.6145 26.3807 36.4883 26.3807C36.1903 26.3825 35.9009 26.2829 35.6683 26.0991C35.5475 26.0034 35.3757 26.0032 35.2545 26.0986C35.1335 26.194 35.0955 26.3597 35.1631 26.4972C35.2979 26.7716 35.4711 27.0261 35.6777 27.253C35.7976 27.3867 35.9298 27.5092 36.0729 27.6188C36.6112 28.0531 37.2763 28.3054 37.9708 28.3385C38.0271 28.3421 38.0837 28.3425 38.1443 28.3425C38.205 28.3425 38.2616 28.3425 38.3137 28.3388C39.0086 28.3078 39.675 28.0573 40.2148 27.6239C40.3573 27.513 40.4895 27.3899 40.61 27.2558C40.8173 27.0282 40.9911 26.7729 41.1262 26.4972C41.1936 26.3597 41.1556 26.1944 41.0348 26.0991Z" fill="#C8C6CC"/>
<path d="M45.4418 15.001C45.408 15.001 45.3745 14.9959 45.3423 14.986C45.1678 14.9318 45.0708 14.7481 45.1257 14.5757C45.4894 13.5286 45.704 12.4365 45.7634 11.3309C45.7632 11.2952 45.7599 11.2598 45.7535 11.2248C45.7292 11.0507 45.8486 10.8887 46.024 10.8582C46.1993 10.8275 46.3677 10.9392 46.4054 11.111C46.4188 11.1836 46.4258 11.2571 46.4259 11.3309C46.3579 12.502 46.1332 13.6591 45.7577 14.7721C45.7144 14.9084 45.5864 15.0012 45.4418 15.001Z" fill="#F5F5F5"/>
<path d="M40.6112 21.5059C40.4474 21.4251 40.2484 21.4907 40.1665 21.6524C40.0849 21.8143 40.1512 22.0107 40.315 22.0916C40.8527 22.3585 41.1256 22.6389 41.1256 23.4362V25.0721C41.1276 25.4721 40.9419 25.8505 40.6227 26.097C40.3899 26.2823 40.0994 26.3825 39.8005 26.3808C38.6742 26.3808 38.4754 26.2093 38.4754 25.7264C38.4754 25.5457 38.327 25.3992 38.1441 25.3992C37.9611 25.3992 37.8128 25.5457 37.8128 25.7264C37.8128 26.2093 37.6141 26.3808 36.4877 26.3808C36.1898 26.3825 35.9003 26.283 35.6678 26.0991C35.3473 25.8526 35.1607 25.4732 35.1626 25.0721V23.4362C35.1626 22.6389 35.4356 22.3585 35.9733 22.0948C36.137 22.0141 36.2035 21.8174 36.1216 21.6558C36.04 21.494 35.8408 21.4284 35.6771 21.5091C34.841 21.9205 34.5 22.4793 34.5 23.4362V25.0721C34.4973 25.672 34.775 26.2394 35.2527 26.6098H35.2543C35.605 26.8852 36.0398 27.0351 36.4877 27.0351C36.9618 27.0351 37.7135 27.0351 38.1441 26.6186C38.5749 27.0351 39.3264 27.0351 39.8005 27.0351C40.2468 27.0352 40.6801 26.8865 41.0302 26.613H41.0319C41.5119 26.2427 41.7911 25.6737 41.7881 25.0721V23.4362C41.7881 22.4793 41.4473 21.9205 40.6112 21.5059Z" fill="#D8D8DA"/>
<path d="M39.4686 24.7449C39.4686 25.4676 38.8753 26.0536 38.1435 26.0536C37.4117 26.0536 36.8184 25.4676 36.8184 24.7449C36.8184 24.0222 37.4117 23.4362 38.1435 23.4362C38.8753 23.4362 39.4686 24.0222 39.4686 24.7449Z" fill="#164662"/>
<path d="M22.3133 31.9645L22.2937 31.9491C22.0721 31.7885 21.8388 31.6131 21.5996 31.4335C20.4053 30.5367 19.1697 29.6088 18.3339 29.6088C17.5531 29.6088 17.0088 30.6434 17.0088 31.5719C17.0088 33.5604 18.1199 36.9512 18.7179 37.6438C18.7808 37.7167 18.873 37.7587 18.9699 37.7587H18.979C19.0793 37.756 19.1729 37.7086 19.2338 37.6298C19.5448 37.2256 19.8882 36.8119 20.252 36.3718C21.0836 35.4191 21.8404 34.405 22.5156 33.3385C22.6366 33.16 22.7054 32.9519 22.7144 32.7373C22.7096 32.4321 22.5614 32.1465 22.3133 31.9645Z" fill="#C8C6CC"/>
<path d="M34.898 29.6088C34.0622 29.6088 32.8265 30.5367 31.6322 31.4338C31.393 31.6134 31.1599 31.7888 30.9365 31.9494L30.9179 31.9639C30.6704 32.1462 30.5229 32.4316 30.5186 32.7366C30.5266 32.9495 30.5939 33.1562 30.7133 33.334C31.3893 34.4022 32.1471 35.4177 32.9798 36.3718C33.3442 36.8109 33.6872 37.2256 33.9982 37.6298C34.0589 37.7086 34.1527 37.756 34.253 37.7587H34.2619C34.3589 37.7587 34.451 37.7167 34.5141 37.6438C35.1119 36.9512 36.223 33.5604 36.223 31.5719C36.223 30.6434 35.6788 29.6088 34.898 29.6088Z" fill="#C8C6CC"/>
<path d="M34.3793 40.7981C34.7473 40.6012 35.1467 40.4684 35.5603 40.4055C35.7433 40.4055 35.8916 40.259 35.8916 40.0783C35.8916 39.1446 35.2012 38.1153 34.5254 37.2336C34.207 36.8203 33.8599 36.4013 33.4926 35.9576C32.6807 35.0279 31.9417 34.0386 31.2815 32.9983C31.2251 32.9205 31.1908 32.8291 31.1822 32.7336C31.1874 32.636 31.237 32.5459 31.3173 32.4885C31.3382 32.4738 31.3577 32.4572 31.3757 32.4392C31.4636 32.3476 31.4907 32.2142 31.4447 32.0965C31.3989 31.9786 31.2885 31.8973 31.161 31.8875C30.6105 31.888 30.0629 31.9638 29.5334 32.1127C28.5789 32.3508 27.6001 32.481 26.6158 32.501C25.6323 32.4807 24.6543 32.3502 23.7006 32.112C23.1711 31.9636 22.6235 31.8879 22.0731 31.8869C21.9456 31.8966 21.8351 31.978 21.7893 32.0957C21.7434 32.2136 21.7702 32.347 21.8584 32.4385C21.8764 32.4567 21.8961 32.4732 21.917 32.4879C21.9982 32.5461 22.048 32.6374 22.0522 32.7363C22.042 32.8325 22.0061 32.9243 21.9485 33.0026C21.2892 34.0412 20.5511 35.0287 19.7405 35.9569C19.3731 36.4008 19.0259 36.82 18.7069 37.233C18.0305 38.1169 17.34 39.1446 17.34 40.0783C17.34 40.259 17.4884 40.4055 17.6714 40.4055C18.085 40.4684 18.4845 40.6012 18.8523 40.7981C17.7307 42.1981 17.0088 43.2695 17.0088 44.6587C17.0088 44.7637 17.0598 44.8624 17.146 44.9239C17.232 44.9854 17.3428 45.0023 17.4437 44.9696C17.6872 44.8908 17.942 44.851 18.198 44.8517C18.5266 44.8485 18.8519 44.9146 19.1523 45.0458C18.6014 45.6589 18.3087 46.4567 18.3339 47.2761C18.3332 47.3898 18.3925 47.4956 18.4901 47.5557C18.588 47.6157 18.7103 47.6213 18.8133 47.5705C19.4343 47.2816 20.0953 47.0847 20.7745 46.9861C20.682 47.4035 20.641 47.8304 20.6528 48.2576C20.6528 48.3782 20.7201 48.4892 20.8279 48.5461C20.9356 48.6029 21.0663 48.5967 21.168 48.5298C21.7769 48.1287 23.4226 47.9588 24.7603 47.9336C24.9011 47.9311 25.0248 47.8409 25.0688 47.7089C25.1128 47.5767 25.0675 47.4317 24.9559 47.347C24.925 47.3238 24.8952 47.2992 24.865 47.2738C24.8965 47.2761 24.9263 47.2761 24.9595 47.2761C25.4335 47.2761 26.1853 47.2761 26.6158 46.8606C27.0466 47.2761 27.7981 47.2761 28.2722 47.2761C28.3053 47.2761 28.3361 47.2761 28.368 47.2738C28.3379 47.3 28.3067 47.3251 28.2759 47.3497C28.1659 47.4353 28.1224 47.5798 28.1671 47.7107C28.2116 47.8417 28.3348 47.9311 28.4746 47.9336C29.8106 47.9588 31.4544 48.1283 32.0641 48.5298C32.1657 48.5965 32.2962 48.6028 32.404 48.5458C32.5115 48.4889 32.5788 48.3782 32.5788 48.2576C32.5908 47.8301 32.55 47.4026 32.4573 46.9849C33.1364 47.0849 33.7972 47.2822 34.4188 47.5705C34.5217 47.6211 34.644 47.6156 34.7415 47.5555C34.8392 47.4954 34.8984 47.3897 34.8978 47.2761C34.923 46.4567 34.6302 45.6589 34.0796 45.0458C34.3799 44.9146 34.7052 44.8485 35.0336 44.8517C35.2899 44.851 35.5445 44.8908 35.7879 44.9696C35.8888 45.0023 35.9996 44.9854 36.0858 44.9239C36.1719 44.8624 36.2228 44.7637 36.2228 44.6587C36.2228 43.2695 35.5011 42.1981 34.3793 40.7981Z" fill="#C8C6CC"/>
<path d="M23.3032 40.0783C22.9373 40.0783 22.6406 39.7853 22.6406 39.424C22.6406 39.0626 22.9373 38.7697 23.3032 38.7697C23.6691 38.7697 23.9658 39.0626 23.9658 39.424C23.9658 39.7853 23.6691 40.0783 23.3032 40.0783Z" fill="#164662"/>
<path d="M29.5971 40.0783C29.2312 40.0783 28.9346 39.7853 28.9346 39.4239C28.9346 39.0626 29.2312 38.7697 29.5971 38.7697C29.963 38.7697 30.2597 39.0626 30.2597 39.4239C30.2597 39.7853 29.963 40.0783 29.5971 40.0783Z" fill="#164662"/>
<path d="M30.4081 36.5138C30.362 36.4911 30.3114 36.4795 30.2599 36.4795C29.6888 36.4887 29.1253 36.6117 28.6035 36.841V36.8066C28.6035 36.6932 28.5441 36.5879 28.4464 36.5282C28.3489 36.4686 28.2269 36.4631 28.1242 36.5138C27.57 36.786 27.0613 37.1403 26.6158 37.5646C26.1703 37.1403 25.6616 36.786 25.1076 36.5138C25.0049 36.4631 24.8829 36.4686 24.7852 36.5282C24.6875 36.5879 24.6281 36.6932 24.6281 36.8066V36.841C24.1063 36.6117 23.5429 36.4887 22.9718 36.4795C22.9203 36.4795 22.8697 36.4911 22.8237 36.5138C22.3393 36.7713 21.9422 37.1635 21.6815 37.642C21.5997 37.8036 21.6661 38.0001 21.8299 38.081C21.9936 38.1618 22.1927 38.0961 22.2745 37.9343C22.4574 37.6038 22.727 37.3279 23.0553 37.1357C23.4419 37.1507 24.2956 37.2683 24.7252 37.692C24.82 37.7854 24.9623 37.8134 25.0861 37.7629C25.2098 37.7124 25.2906 37.5932 25.2907 37.461V37.3667C25.6975 37.5846 26.0492 37.8905 26.3193 38.2615C26.3295 38.2792 26.3413 38.2958 26.3545 38.3113C26.3588 38.3184 26.3636 38.3251 26.3687 38.3316C26.3946 38.36 26.4253 38.3837 26.4594 38.4016C26.4628 38.4016 26.4644 38.4065 26.4678 38.4081C26.471 38.4098 26.4774 38.4081 26.4824 38.4113C26.5241 38.4309 26.5696 38.4415 26.6158 38.4425C26.6618 38.4415 26.7069 38.4311 26.7483 38.4116C26.7533 38.4098 26.7583 38.4116 26.7629 38.4084C26.7676 38.4053 26.7679 38.4035 26.7713 38.4019C26.8054 38.384 26.8362 38.3604 26.862 38.332C26.8677 38.3257 26.8709 38.3185 26.8763 38.312C26.8894 38.2963 26.9012 38.2795 26.9114 38.2619C27.1819 37.8908 27.534 37.5849 27.941 37.367V37.461C27.941 37.5932 28.0217 37.7126 28.1454 37.7632C28.2693 37.8138 28.4117 37.7858 28.5064 37.6923C28.9765 37.2281 29.8979 37.1494 30.1777 37.136C30.5051 37.3285 30.7743 37.6041 30.9572 37.934C31.0391 38.0958 31.238 38.1615 31.4019 38.0806C31.5656 37.9998 31.6321 37.8033 31.5502 37.6415C31.2895 37.1634 30.8924 36.7712 30.4081 36.5138Z" fill="#D8D8DA"/>
<path d="M20.9041 42.0511C20.846 42.0653 19.4814 42.4085 18.7623 43.1187C18.6762 43.2009 18.6416 43.3226 18.672 43.4369C18.7023 43.5514 18.7926 43.6407 18.9085 43.6705C19.0243 43.7006 19.1476 43.6663 19.2307 43.5814C19.8193 43.0004 21.0527 42.6888 21.0647 42.686C21.2392 42.6396 21.3441 42.4638 21.3002 42.2906C21.2564 42.1174 21.0801 42.0108 20.9041 42.0511Z" fill="#D8D8DA"/>
<path d="M34.4688 43.1186C33.7497 42.4084 32.3851 42.0653 32.3272 42.0511C32.151 42.0108 31.9747 42.1173 31.9309 42.2905C31.887 42.4637 31.9918 42.6396 32.1664 42.6859C32.1787 42.6888 33.4118 43.0003 34.0004 43.5813C34.1304 43.7052 34.337 43.7035 34.4648 43.5773C34.5926 43.4511 34.5944 43.2471 34.4688 43.1186Z" fill="#D8D8DA"/>
<path d="M19.3183 35.242C19.1735 35.2421 19.0455 35.1493 19.0022 35.013C18.6267 33.9001 18.4021 32.743 18.334 31.5719C18.3343 31.4981 18.3411 31.4246 18.3545 31.352C18.3922 31.1801 18.5608 31.0684 18.7359 31.0991C18.9113 31.1297 19.0308 31.2917 19.0065 31.4658C19.0001 31.5008 18.9969 31.5362 18.9966 31.5719C19.0559 32.6775 19.2705 33.7695 19.6343 34.8167C19.6892 34.9891 19.5921 35.1728 19.4176 35.2269C19.3854 35.2369 19.3519 35.242 19.3183 35.242Z" fill="#F5F5F5"/>
<path d="M29.5065 46.34C29.3854 46.2445 29.2136 46.2445 29.0927 46.34C28.8602 46.5239 28.5707 46.6235 28.2727 46.6217C27.1464 46.6217 26.9476 46.4503 26.9476 45.9673C26.9476 45.7867 26.7993 45.6402 26.6163 45.6402C26.4334 45.6402 26.285 45.7867 26.285 45.9673C26.285 46.4503 26.0862 46.6217 24.9599 46.6217C24.662 46.6235 24.3726 46.5239 24.14 46.34C24.0192 46.2444 23.8474 46.2442 23.7262 46.3396C23.6052 46.435 23.5672 46.6006 23.6348 46.7381C23.7696 47.0126 23.9428 47.2671 24.1494 47.494C24.2693 47.6277 24.4015 47.7502 24.5445 47.8597C25.0829 48.2941 25.748 48.5464 26.4424 48.5794C26.4987 48.5831 26.5554 48.5834 26.616 48.5834C26.6767 48.5834 26.7333 48.5834 26.7854 48.5798C27.4803 48.5488 28.1467 48.2983 28.6865 47.8649C28.829 47.754 28.9612 47.6308 29.0816 47.4968C29.289 47.2692 29.4628 47.0139 29.5979 46.7381C29.6653 46.6006 29.6273 46.4354 29.5065 46.34Z" fill="#C8C6CC"/>
<path d="M33.9135 35.242C33.8797 35.242 33.8462 35.2369 33.814 35.2269C33.6395 35.1728 33.5425 34.9891 33.5974 34.8167C33.9611 33.7695 34.1757 32.6775 34.2351 31.5719C34.2349 31.5362 34.2315 31.5008 34.2252 31.4658C34.2009 31.2917 34.3203 31.1297 34.4957 31.0991C34.671 31.0684 34.8394 31.1801 34.8771 31.352C34.8905 31.4246 34.8975 31.4981 34.8976 31.5719C34.8295 32.743 34.6049 33.9001 34.2294 35.013C34.1861 35.1493 34.0581 35.2421 33.9135 35.242Z" fill="#F5F5F5"/>
<path d="M29.0829 41.7469C28.9191 41.666 28.7201 41.7317 28.6382 41.8934C28.5565 42.0552 28.6228 42.2517 28.7867 42.3325C29.3244 42.5995 29.5973 42.8799 29.5973 43.6772V45.313C29.5992 45.713 29.4136 46.0915 29.0944 46.338C28.8616 46.5233 28.5711 46.6234 28.2722 46.6217C27.1458 46.6217 26.947 46.4503 26.947 45.9674C26.947 45.7867 26.7987 45.6402 26.6158 45.6402C26.4328 45.6402 26.2845 45.7867 26.2845 45.9674C26.2845 46.4503 26.0857 46.6217 24.9594 46.6217C24.6615 46.6234 24.372 46.5239 24.1395 46.3401C23.819 46.0936 23.6323 45.7142 23.6343 45.313V43.6772C23.6343 42.8799 23.9073 42.5995 24.445 42.3358C24.6087 42.2551 24.6752 42.0584 24.5933 41.8967C24.5117 41.7349 24.3125 41.6694 24.1488 41.7501C23.3127 42.1614 22.9717 42.7203 22.9717 43.6772V45.313C22.9689 45.9129 23.2467 46.4804 23.7244 46.8508H23.726C24.0767 47.1262 24.5115 47.2761 24.9594 47.2761C25.4335 47.2761 26.1852 47.2761 26.6158 46.8596C27.0466 47.2761 27.798 47.2761 28.2722 47.2761C28.7185 47.2762 29.1518 47.1275 29.5019 46.854H29.5036C29.9836 46.4837 30.2628 45.9146 30.2598 45.313V43.6772C30.2598 42.7203 29.919 42.1614 29.0829 41.7469Z" fill="#D8D8DA"/>
<path d="M27.9403 44.9859C27.9403 45.7086 27.347 46.2946 26.6152 46.2946C25.8834 46.2946 25.29 45.7086 25.29 44.9859C25.29 44.2632 25.8834 43.6772 26.6152 43.6772C27.347 43.6772 27.9403 44.2632 27.9403 44.9859Z" fill="#164662"/>
</g>
<defs>
<clipPath id="clip0_1841_830">
<rect width="53.1591" height="52.5" fill="white" transform="translate(0.99707 0.514465)"/>
</clipPath>
</defs>
</svg>
