<svg width="33" height="33" viewBox="0 0 33 33" fill="none" xmlns="http://www.w3.org/2000/svg">
<path fill-rule="evenodd" clip-rule="evenodd" d="M9.49634 0.727806C11.2193 0.648486 11.7687 0.630859 16.1577 0.630859C20.5468 0.630859 21.0961 0.649955 22.8177 0.727806C24.5392 0.805657 25.7143 1.08034 26.7425 1.47841C27.8192 1.88529 28.796 2.52131 29.6039 3.34389C30.4265 4.15031 31.0611 5.12565 31.4665 6.20381C31.866 7.23203 32.1392 8.40714 32.2185 10.1257C32.2979 11.8517 32.3155 12.401 32.3155 16.7886C32.3155 21.1776 32.2964 21.727 32.2185 23.45C32.1407 25.1686 31.866 26.3437 31.4665 27.3719C31.061 28.4502 30.4254 29.4272 29.6039 30.2348C28.796 31.0573 27.8192 31.6919 26.7425 32.0973C25.7143 32.4969 24.5392 32.7701 22.8206 32.8494C21.0961 32.9287 20.5468 32.9463 16.1577 32.9463C11.7687 32.9463 11.2193 32.9272 9.49634 32.8494C7.77775 32.7715 6.60264 32.4969 5.57442 32.0973C4.49614 31.6919 3.51919 31.0563 2.71156 30.2348C1.88954 29.4279 1.25342 28.4514 0.847547 27.3734C0.449479 26.3452 0.176266 25.1701 0.0969464 23.4515C0.0176266 21.7255 0 21.1762 0 16.7886C0 12.3996 0.0190955 11.8502 0.0969464 10.1287C0.174797 8.40714 0.449479 7.23203 0.847547 6.20381C1.25402 5.12577 1.89063 4.1493 2.71303 3.34242C3.51951 2.52058 4.49548 1.88447 5.57295 1.47841C6.60117 1.08034 7.77628 0.807126 9.49487 0.727806H9.49634ZM22.6869 3.6362C20.983 3.55835 20.4719 3.54219 16.1577 3.54219C11.8436 3.54219 11.3324 3.55835 9.62854 3.6362C8.05243 3.70817 7.19754 3.9711 6.62761 4.19291C5.87407 4.48668 5.33499 4.83481 4.76947 5.40033C4.23339 5.92186 3.82084 6.55676 3.56205 7.25847C3.34025 7.8284 3.07731 8.68329 3.00534 10.2594C2.92749 11.9633 2.91133 12.4745 2.91133 16.7886C2.91133 21.1027 2.92749 21.6139 3.00534 23.3178C3.07731 24.8939 3.34025 25.7488 3.56205 26.3187C3.82057 27.0194 4.23333 27.6554 4.76947 28.1769C5.29093 28.713 5.92695 29.1258 6.62761 29.3843C7.19754 29.6061 8.05243 29.869 9.62854 29.941C11.3324 30.0188 11.8422 30.035 16.1577 30.035C20.4733 30.035 20.983 30.0188 22.6869 29.941C24.263 29.869 25.1179 29.6061 25.6879 29.3843C26.4414 29.0905 26.9805 28.7424 27.546 28.1769C28.0821 27.6554 28.4949 27.0194 28.7534 26.3187C28.9752 25.7488 29.2382 24.8939 29.3101 23.3178C29.388 21.6139 29.4041 21.1027 29.4041 16.7886C29.4041 12.4745 29.388 11.9633 29.3101 10.2594C29.2382 8.68329 28.9752 7.8284 28.7534 7.25847C28.4597 6.50493 28.1115 5.96585 27.546 5.40033C27.0244 4.86429 26.3896 4.45174 25.6879 4.19291C25.1179 3.9711 24.263 3.70817 22.6869 3.6362ZM14.094 21.7696C15.2465 22.2494 16.5299 22.3141 17.7249 21.9528C18.9199 21.5915 19.9524 20.8264 20.6461 19.7884C21.3397 18.7504 21.6515 17.5038 21.5281 16.2614C21.4047 15.0191 20.8538 13.8581 19.9695 12.9768C19.4058 12.4135 18.7242 11.9821 17.9738 11.7138C17.2233 11.4455 16.4228 11.3469 15.6297 11.4251C14.8366 11.5034 14.0707 11.7565 13.3871 12.1662C12.7036 12.576 12.1194 13.1322 11.6766 13.7948C11.2338 14.4574 10.9435 15.21 10.8264 15.9983C10.7094 16.7866 10.7686 17.591 10.9998 18.3537C11.231 19.1164 11.6284 19.8183 12.1634 20.409C12.6985 20.9996 13.3578 21.4643 14.094 21.7696ZM10.2851 10.916C11.0563 10.1448 11.9719 9.53304 12.9795 9.11567C13.9871 8.6983 15.0671 8.48348 16.1577 8.48348C17.2484 8.48348 18.3283 8.6983 19.336 9.11567C20.3436 9.53304 21.2591 10.1448 22.0303 10.916C22.8015 11.6872 23.4133 12.6027 23.8307 13.6104C24.248 14.618 24.4629 15.698 24.4629 16.7886C24.4629 17.8792 24.248 18.9592 23.8307 19.9668C23.4133 20.9745 22.8015 21.89 22.0303 22.6612C20.4728 24.2187 18.3604 25.0937 16.1577 25.0937C13.9551 25.0937 11.8426 24.2187 10.2851 22.6612C8.72762 21.1037 7.85262 18.9913 7.85262 16.7886C7.85262 14.5859 8.72762 12.4735 10.2851 10.916ZM26.3048 9.72032C26.4959 9.54004 26.6489 9.32325 26.7547 9.08279C26.8605 8.84232 26.917 8.58306 26.9209 8.32037C26.9247 8.05768 26.8758 7.79689 26.777 7.55344C26.6783 7.30999 26.5316 7.08883 26.3459 6.90306C26.1601 6.71728 25.9389 6.57068 25.6955 6.47191C25.452 6.37314 25.1912 6.32422 24.9286 6.32805C24.6659 6.33188 24.4066 6.38838 24.1661 6.4942C23.9257 6.60003 23.7089 6.75302 23.5286 6.94413C23.178 7.3158 22.986 7.80948 22.9935 8.32037C23.0009 8.83126 23.2072 9.31914 23.5685 9.68043C23.9298 10.0417 24.4177 10.248 24.9286 10.2554C25.4394 10.2629 25.9331 10.0709 26.3048 9.72032Z" fill="black"/>
</svg>
