<svg width="35" height="32" viewBox="0 0 35 32" fill="none" xmlns="http://www.w3.org/2000/svg">
<path d="M8.04391 10.3988V31.9973H0.740628V10.3988H8.04391ZM8.50824 3.7307L8.51094 3.86134C8.51094 4.85982 8.08046 5.75832 7.39278 6.38753L7.39007 6.38886C6.98497 6.75372 6.51042 7.03584 5.99388 7.21889C5.47734 7.40195 4.92905 7.48231 4.38076 7.45533H4.39024H4.34557C3.80988 7.48035 3.27457 7.39867 2.77168 7.2152C2.26879 7.03172 1.80866 6.75022 1.41884 6.38753L1.42019 6.38886C1.05822 6.04494 0.773125 5.6304 0.583148 5.17176C0.393171 4.71312 0.302494 4.22049 0.316916 3.72537V3.7307L0.315562 3.63872C0.315562 2.62291 0.754165 1.70842 1.45404 1.06721L1.45674 1.06587C2.2697 0.336753 3.34325 -0.044887 4.44168 0.00474139H4.43356C4.97174 -0.0211615 5.50974 0.0592618 6.01587 0.241273C6.52199 0.423285 6.98602 0.703204 7.38059 1.06454L7.37789 1.06187C7.73581 1.4007 8.02045 1.8073 8.2147 2.25723C8.40895 2.70716 8.5088 3.19113 8.50824 3.68004V3.73603V3.73337V3.7307ZM34.3127 19.621V31.9973H27.0324V20.4462C27.1064 19.1786 26.7878 17.9188 26.1187 16.8335L26.1349 16.8615C25.8201 16.4249 25.3957 16.076 24.9032 15.8489C24.4107 15.6218 23.8668 15.5243 23.3246 15.5658H23.3355C22.4882 15.536 21.6579 15.8044 20.9935 16.323L21.0017 16.3176C20.3882 16.8045 19.908 17.4346 19.6046 18.1506L19.5938 18.1813C19.4084 18.7543 19.3264 19.3548 19.3515 19.9556V19.9463V32H12.0712C12.101 26.2029 12.1159 21.5024 12.1159 17.8987C12.1159 14.2949 12.1087 12.1447 12.0942 11.4479L12.0726 10.4014H19.3528V13.5395H19.3082C19.5979 13.0796 19.897 12.681 20.226 12.3077L20.2151 12.3197C20.5955 11.9078 21.0044 11.5359 21.4443 11.2026L21.466 11.1866C22.0293 10.761 22.6684 10.4427 23.3503 10.2481L23.391 10.2388C24.1812 10.0118 25.0004 9.89773 25.8236 9.9002H25.9305H25.9251C27.0599 9.85313 28.1915 10.0494 29.2417 10.4755C30.2919 10.9015 31.2355 11.5472 32.0073 12.3677L32.0114 12.3731C33.5474 14.0225 34.3154 16.4381 34.3154 19.6197L34.3127 19.621Z" fill="black"/>
</svg>
