<svg width="70" height="42" viewBox="0 0 70 42" fill="none" xmlns="http://www.w3.org/2000/svg">
<path d="M11.9124 22.8144H16.7397V9.7343H11.9124V4.41016H27.8155V9.7343H22.9847V22.8179H27.812V28.142H11.9124V22.8144Z" fill="url(#paint0_linear_1434_1022)"/>
<path d="M50.7093 28.1383L38.0723 13.9139V28.1383H31.7537V4.40996H38.7829L51.3499 18.7077V4.40996H57.5985V28.1418H50.7093V28.1383Z" fill="url(#paint1_linear_1434_1022)"/>
<path d="M18.3219 40.6674C18.3219 40.9047 18.2764 41.107 18.1819 41.271C18.0874 41.4385 17.9684 41.5746 17.8214 41.6792C17.6743 41.7874 17.5028 41.8641 17.3103 41.9165C17.1177 41.9688 16.9252 41.9932 16.7292 41.9932H11.4468C11.2613 41.9932 11.0723 41.9653 10.8832 41.9095C10.6942 41.8537 10.5227 41.7699 10.3721 41.6548C10.2216 41.5397 10.0991 41.4001 10.0081 41.2326C9.91707 41.0652 9.86806 40.8768 9.86806 40.6639V39.4323H11.9194V40.2836H16.2671V36.3028H14.8529V34.5967H18.3219V40.6674Z" fill="url(#paint2_linear_1434_1022)"/>
<path d="M21.3605 34.5999V40.2868H25.7082V34.5999H27.7596V40.6637C27.7596 40.8765 27.7105 41.0649 27.616 41.2324C27.518 41.3998 27.3955 41.5394 27.245 41.6545C27.0944 41.7697 26.9264 41.8534 26.7409 41.9092C26.5554 41.965 26.3698 41.9929 26.1843 41.9929H20.8984C20.6989 41.9929 20.5029 41.9685 20.3173 41.9162C20.1318 41.8639 19.9638 41.7871 19.8133 41.6789C19.6627 41.5708 19.5437 41.4347 19.4527 41.2707C19.3652 41.1033 19.3197 40.9044 19.3197 40.6671V34.5999H21.3605Z" fill="url(#paint3_linear_1434_1022)"/>
<path d="M35.0443 41.9929L30.8226 37.562V41.9929H28.7572V34.5999H30.9136L35.1563 39.0518V34.5999H37.1971V41.9895H35.0443V41.9929Z" fill="url(#paint4_linear_1434_1022)"/>
<path d="M40.2532 34.5999V41.9894H38.2123V34.5999H40.2532Z" fill="url(#paint5_linear_1434_1022)"/>
<path d="M41.2472 35.9292C41.2472 35.6919 41.2927 35.4896 41.3802 35.3256C41.4677 35.1581 41.5903 35.0221 41.7408 34.9174C41.8913 34.8127 42.0593 34.7325 42.2449 34.6801C42.4304 34.6278 42.6229 34.6034 42.826 34.6034H48.1153C48.3009 34.6034 48.4864 34.6313 48.6719 34.6871C48.8575 34.7429 49.0255 34.8267 49.176 34.9418C49.3265 35.0569 49.4491 35.1965 49.5471 35.364C49.6451 35.5314 49.6906 35.7198 49.6906 35.9327V40.6707C49.6906 40.8835 49.6416 41.0719 49.5471 41.2394C49.4491 41.4068 49.3265 41.5464 49.176 41.6615C49.0255 41.7767 48.8575 41.8604 48.6719 41.9162C48.4864 41.9721 48.3009 42 48.1153 42H42.826C42.6264 42 42.4304 41.9755 42.2449 41.9232C42.0593 41.8709 41.8913 41.7941 41.7408 41.686C41.5903 41.5778 41.4712 41.4417 41.3802 41.2778C41.2927 41.1103 41.2472 40.9114 41.2472 40.6742V35.9292ZM47.6393 40.2869V36.306H43.2915V40.2869H47.6393Z" fill="url(#paint6_linear_1434_1022)"/>
<path d="M56.5342 37.6806C56.6427 37.6492 56.7058 37.6004 56.7198 37.5376V36.4002C56.7058 36.3618 56.6778 36.3304 56.6427 36.313C56.6077 36.292 56.5727 36.2746 56.5342 36.2606H50.6883V34.6034H57.8329C57.9415 34.6034 58.0535 34.6383 58.176 34.7046C58.295 34.7709 58.407 34.8581 58.5051 34.9593C58.6066 35.0604 58.6871 35.1756 58.7536 35.2977C58.8201 35.4198 58.8516 35.5349 58.8516 35.6466V38.0156C58.8516 38.2668 58.7956 38.4866 58.6836 38.668C58.5716 38.8494 58.4245 38.9995 58.2425 39.1111C58.0605 39.2262 57.8574 39.31 57.6264 39.3588C57.3989 39.4112 57.1678 39.4356 56.9368 39.4356L59.6147 41.993H56.8213L54.0033 39.4356H52.7641V41.993H50.6883V37.6806H56.5342Z" fill="url(#paint7_linear_1434_1022)"/>
<path d="M8.47138 32.5519C6.65109 32.5519 5.35588 32.1751 4.58575 31.418C3.81562 30.6609 3.43056 29.4153 3.43056 27.6778V20.4627C3.43056 19.4055 3.19952 18.6484 2.73745 18.1949C2.27537 17.7413 1.69428 17.5145 1.00116 17.5145H0V15.1072H1.00116C1.69428 15.1072 2.27187 14.8804 2.73395 14.4233C3.19602 13.9663 3.43056 13.2092 3.43056 12.145V4.895C3.43056 3.15052 3.81562 1.89799 4.58575 1.1374C5.35588 0.376807 6.65109 0 8.47138 0H9.89612V2.40738H9.01047C7.54723 2.40738 6.68609 2.73534 6.43055 3.39126C6.27653 3.77156 6.19951 4.42748 6.19951 5.36252V12.487C6.19951 14.2559 5.39088 15.5189 3.77712 16.276C5.39088 17.0331 6.19951 18.2961 6.19951 20.065V27.1894C6.19951 28.6059 6.44455 29.4747 6.93113 29.8026C7.26369 30.0294 7.9568 30.1445 9.01047 30.1445H9.89612V32.5519H8.47138Z" fill="url(#paint8_linear_1434_1022)"/>
<path d="M69.4793 17.5145H68.5167C67.8235 17.5145 67.2459 17.7413 66.7874 18.1949C66.3253 18.6484 66.0943 19.4055 66.0943 20.4627V27.6778C66.0943 29.4153 65.7092 30.6644 64.9391 31.418C64.169 32.1751 62.8702 32.5519 61.0465 32.5519H59.5832V30.1445H60.5109C61.6696 30.1445 62.4292 29.9666 62.7897 29.6142C63.1503 29.2618 63.3323 28.4524 63.3323 27.1894V20.065C63.3323 18.2961 64.1375 17.0331 65.7477 16.276C64.1375 15.5189 63.3323 14.2559 63.3323 12.487V5.36252C63.3323 3.97392 63.0733 3.10168 62.5587 2.74929C62.2226 2.52251 61.54 2.40738 60.5109 2.40738H59.5832V0H61.0465C62.8702 0 64.1655 0.380296 64.9391 1.1374C65.7092 1.89799 66.0943 3.15052 66.0943 4.895V12.145C66.0943 13.2092 66.3253 13.9663 66.7874 14.4233C67.2495 14.8804 67.8235 15.1072 68.5167 15.1072H69.4793V17.5145Z" fill="url(#paint9_linear_1434_1022)"/>
<defs>
<linearGradient id="paint0_linear_1434_1022" x1="69" y1="-1.83316e-06" x2="8" y2="35.5" gradientUnits="userSpaceOnUse">
<stop stop-color="#004B96"/>
<stop offset="1" stop-color="#047EF8"/>
</linearGradient>
<linearGradient id="paint1_linear_1434_1022" x1="69" y1="-1.83316e-06" x2="8" y2="35.5" gradientUnits="userSpaceOnUse">
<stop stop-color="#004B96"/>
<stop offset="1" stop-color="#047EF8"/>
</linearGradient>
<linearGradient id="paint2_linear_1434_1022" x1="69" y1="-1.83316e-06" x2="8" y2="35.5" gradientUnits="userSpaceOnUse">
<stop stop-color="#004B96"/>
<stop offset="1" stop-color="#047EF8"/>
</linearGradient>
<linearGradient id="paint3_linear_1434_1022" x1="69" y1="-1.83316e-06" x2="8" y2="35.5" gradientUnits="userSpaceOnUse">
<stop stop-color="#004B96"/>
<stop offset="1" stop-color="#047EF8"/>
</linearGradient>
<linearGradient id="paint4_linear_1434_1022" x1="69" y1="-1.83316e-06" x2="8" y2="35.5" gradientUnits="userSpaceOnUse">
<stop stop-color="#004B96"/>
<stop offset="1" stop-color="#047EF8"/>
</linearGradient>
<linearGradient id="paint5_linear_1434_1022" x1="69" y1="-1.83316e-06" x2="8" y2="35.5" gradientUnits="userSpaceOnUse">
<stop stop-color="#004B96"/>
<stop offset="1" stop-color="#047EF8"/>
</linearGradient>
<linearGradient id="paint6_linear_1434_1022" x1="69" y1="-1.83316e-06" x2="8" y2="35.5" gradientUnits="userSpaceOnUse">
<stop stop-color="#004B96"/>
<stop offset="1" stop-color="#047EF8"/>
</linearGradient>
<linearGradient id="paint7_linear_1434_1022" x1="69" y1="-1.83316e-06" x2="8" y2="35.5" gradientUnits="userSpaceOnUse">
<stop stop-color="#004B96"/>
<stop offset="1" stop-color="#047EF8"/>
</linearGradient>
<linearGradient id="paint8_linear_1434_1022" x1="69" y1="-1.83316e-06" x2="8" y2="35.5" gradientUnits="userSpaceOnUse">
<stop stop-color="#004B96"/>
<stop offset="1" stop-color="#047EF8"/>
</linearGradient>
<linearGradient id="paint9_linear_1434_1022" x1="69" y1="-1.83316e-06" x2="8" y2="35.5" gradientUnits="userSpaceOnUse">
<stop stop-color="#004B96"/>
<stop offset="1" stop-color="#047EF8"/>
</linearGradient>
</defs>
</svg>
