<svg width="1440" height="452" viewBox="0 0 1440 452" fill="none" xmlns="http://www.w3.org/2000/svg">
<g filter="url(#filter0_d_1427_696)">
<path d="M357.975 9.636C263.737 14.1734 177.844 25.9349 117.224 41.2988C113.244 42.3579 109.265 43.4326 105.287 44.5073C105.287 44.5073 105.288 44.5619 105.048 44.5894C66.4972 55.1886 41.2265 67.2818 31.5011 79.7849C14.6351 102.704 50.0001 124.956 56.5327 147.709C68.3037 188.485 -11.9715 229.344 -48.2802 270.333C-84.5889 311.322 -62.5301 358.485 102.176 381.227C103.085 381.364 104.036 381.491 105.024 381.607C158.331 388.796 221.657 392.84 280.968 398.21C291.348 399.141 301.448 400.099 311.429 401.115C405.91 410.854 483.462 426.213 585.008 433.115C687.434 440 803.716 437.714 904.59 426.832C993.125 417.141 1061.9 401.583 1128.33 386.424C1132.59 385.438 1136.85 384.483 1141.11 383.505C1198.14 370.487 1255.21 357.457 1312.35 344.416C1343.61 337.248 1375.15 330.076 1405.04 322.674C1444.77 312.857 1482.17 302.736 1513.04 291.845C1588.84 265.343 1644.49 269.745 1617.64 241.853C1576.49 199.105 1637.03 161.663 1590.18 119.15C1553.51 101.828 1491.02 87.4684 1429.53 73.3805C1419.53 71.1012 1409.68 68.8192 1399.67 66.5477C1343.41 53.658 1287.15 40.8151 1229.58 28.1507C1217 25.3847 1204.1 22.6008 1190.37 20.0419C1169.05 16.0597 1145.58 12.6059 1117.74 10.6081C1084.45 8.19625 1047.32 8.07399 1011 7.96924C959.87 7.82884 908.863 7.69157 857.976 7.55744C827.692 7.4665 797.408 7.40669 767.284 7.31299C698.607 7.11882 630.011 6.92847 561.495 6.74194C493.726 6.58168 425.157 6.41172 357.975 9.636Z" fill="#005FBF"/>
</g>
<defs>
<filter id="filter0_d_1427_696" x="-73.2832" y="0.671021" width="1707.77" height="450.352" filterUnits="userSpaceOnUse" color-interpolation-filters="sRGB">
<feFlood flood-opacity="0" result="BackgroundImageFix"/>
<feColorMatrix in="SourceAlpha" type="matrix" values="0 0 0 0 0 0 0 0 0 0 0 0 0 0 0 0 0 0 127 0" result="hardAlpha"/>
<feOffset dy="4"/>
<feGaussianBlur stdDeviation="5"/>
<feColorMatrix type="matrix" values="0 0 0 0 0 0 0 0 0 0 0 0 0 0 0 0 0 0 0.25 0"/>
<feBlend mode="normal" in2="BackgroundImageFix" result="effect1_dropShadow_1427_696"/>
<feBlend mode="normal" in="SourceGraphic" in2="effect1_dropShadow_1427_696" result="shape"/>
</filter>
</defs>
</svg>
