<svg width="57" height="54" viewBox="0 0 57 54" fill="none" xmlns="http://www.w3.org/2000/svg">
<path d="M30.1317 13.8345C29.819 13.6303 29.4199 13.5822 29.0619 13.7055L27.8605 14.1197L28.3783 12.7819C28.468 12.5503 28.4723 12.2964 28.3886 12.0624L27.3435 9.12247C27.2161 8.76518 26.9026 8.49443 26.5121 8.40548C26.1225 8.3166 25.7106 8.42145 25.4226 8.68433L18.5934 14.9136L15.2173 15.8725C15.0814 15.9109 14.955 15.9726 14.843 16.0535C14.749 16.1216 12.4992 17.7526 9.66062 20.2184C5.8291 23.5469 2.91264 26.6535 0.990881 29.4516C0.760204 29.7881 0.743906 30.2175 0.948115 30.5684C1.15232 30.9193 1.54543 31.1372 1.97179 31.1372H4.40194C3.33901 32.8034 2.03238 35.5047 1.97266 38.7763C1.965 39.1961 2.21536 39.5837 2.617 39.7728L4.34309 40.5819C4.48233 42.048 5.13269 45.5056 8.149 48.3189C8.49595 48.6425 9.0215 48.7291 9.46494 48.5368L11.6814 47.569C12.078 48.125 12.6462 48.9052 13.2614 49.6936C15.4266 52.4701 16.3222 53.0132 17.139 53.0132C18.0773 53.0132 18.9985 52.2698 20.4247 50.3601C20.7468 49.9274 21.0468 49.4981 21.2955 49.1296L23.4479 50.6132C23.8973 50.9225 24.5168 50.8921 24.9279 50.538C27.2112 48.5737 27.6426 45.8357 27.681 44.2622H28.8056C29.4362 44.2622 29.9531 43.7945 29.972 43.2017C30.1309 38.2188 27.0794 31.1693 26.4737 29.8234L26.5276 21.6796L30.4172 16.5214C30.5557 16.3372 30.6309 16.1161 30.6309 15.8902V14.7319C30.6309 14.3745 30.4445 14.0396 30.1317 13.8345Z" fill="#C8C6CC"/>
<path d="M26.4663 29.8239C26.4663 29.8239 22.0922 32.7334 20.6232 32.7078C19.1534 32.6853 11.8134 29.2599 11.7015 29.8543C11.5896 30.4488 18.699 34.8964 20.6232 34.8964C22.5467 34.8964 26.5603 30.0338 26.4663 29.8239Z" fill="#B3B2B6"/>
<path d="M45.141 0.514404C38.7082 0.514404 33.4736 5.4211 33.4736 11.4516C33.4736 17.4829 38.7082 22.3896 45.141 22.3896C51.5737 22.3896 56.8082 17.4829 56.8082 11.4516C56.8082 5.421 51.5737 0.514404 45.141 0.514404Z" fill="#245E7E"/>
<path d="M52.1409 10.3599C51.4966 10.3599 50.9736 10.8493 50.9736 11.4534C50.9736 12.0573 51.4966 12.5476 52.1409 12.5476C52.7853 12.5476 53.3082 12.0573 53.3082 11.4534C53.3082 10.8493 52.7853 10.3599 52.1409 10.3599Z" fill="#164662"/>
<path d="M45.1507 14.7338C44.5064 14.7338 43.9834 15.224 43.9834 15.8279C43.9834 16.4321 44.5064 16.9214 45.1507 16.9214C45.795 16.9214 46.318 16.4321 46.318 15.8279C46.318 15.224 45.795 14.7338 45.1507 14.7338Z" fill="#164662"/>
<path d="M45.1359 8.16902C45.1359 6.36021 43.5653 4.88782 41.6358 4.88782C39.7062 4.88782 38.1357 6.36021 38.1357 8.16902C38.1357 9.9787 39.7062 11.4503 41.6358 11.4503C43.5653 11.4503 45.1359 9.9787 45.1359 8.16902Z" fill="#164662"/>
<path d="M4.28251 31.1383L3.49805 32.7612L8.48754 27.8091L4.28251 31.1383Z" fill="#AAB2BC"/>
<path d="M15.9704 15.6401L14.791 20.1398L18.5987 14.9135L15.9704 15.6401Z" fill="#B3B2B6"/>
<path d="M27.8591 14.12L28.2514 13.1066L26.1143 15.5692L29.0606 13.7059L27.8591 14.12Z" fill="#AAB2BC"/>
</svg>
