<svg width="75" height="70" viewBox="0 0 75 70" fill="none" xmlns="http://www.w3.org/2000/svg">
<path d="M22.8092 41.2757C22.1776 46.183 18.1461 49.9685 13.2635 49.9685C8.38088 49.9685 4.34947 46.183 3.71777 41.2757H22.8092Z" fill="#D7DEED"/>
<path d="M22.2555 39.3481L13.9444 15.9322C13.7313 15.3317 14.0256 14.6646 14.6021 14.4425C15.1784 14.2201 15.8188 14.5271 16.0319 15.1279L24.343 38.5438C24.5562 39.1443 24.2618 39.8114 23.6852 40.0335C23.1096 40.2555 22.4689 39.9493 22.2555 39.3481Z" fill="#CCD2DB"/>
<path d="M3.73885 40.0335C3.16246 39.8113 2.86793 39.1443 3.08109 38.5438L11.3922 15.1278C11.6054 14.5273 12.2451 14.2201 12.822 14.4424C13.3983 14.6646 13.6929 15.3317 13.4798 15.9322L5.16859 39.3481C4.95543 39.9487 4.31524 40.2556 3.73885 40.0335Z" fill="#CCD2DB"/>
<path d="M51.8933 40.032C51.3175 39.8076 51.0254 39.1394 51.2408 38.5397L59.5519 15.3869C59.7673 14.787 60.4085 14.4829 60.984 14.7071C61.5597 14.9314 61.852 15.5998 61.6365 16.1994L53.3254 39.3522C53.1101 39.952 52.4687 40.2563 51.8933 40.032Z" fill="#CCD2DB"/>
<path d="M70.4161 39.3522L62.105 16.1994C61.8897 15.5995 62.1818 14.9314 62.7575 14.7071C63.3333 14.4829 63.9743 14.787 64.1897 15.3869L72.5008 38.5397C72.7161 39.1395 72.424 39.8076 71.8484 40.032C71.2731 40.2563 70.6317 39.9523 70.4161 39.3522Z" fill="#CCD2DB"/>
<path d="M15.5131 16.7631C14.9452 16.7631 14.4605 16.3126 14.4063 15.7118C14.3489 15.0742 14.7984 14.5088 15.4103 14.4489C19.1083 14.0871 20.0935 13.6483 34.7521 9.45897C35.3448 9.28971 35.9573 9.65282 36.1198 10.2706C36.2825 10.8881 35.9338 11.5262 35.341 11.6957C20.6052 15.9071 19.508 16.3775 15.6185 16.758C15.583 16.7614 15.5479 16.7631 15.5131 16.7631Z" fill="#3E4B5A"/>
<path d="M60.3417 16.8442C60.3068 16.8442 60.2718 16.8426 60.2363 16.8391C56.1988 16.4439 55.1183 15.9729 39.7299 11.575C39.1373 11.4056 38.7885 10.7676 38.951 10.1499C39.1137 9.53242 39.7262 9.16909 40.3187 9.33835C55.7289 13.7423 56.6542 14.1591 60.4445 14.5299C61.0564 14.5898 61.5059 15.1552 61.4485 15.7929C61.3944 16.3936 60.9094 16.8442 60.3417 16.8442Z" fill="#3E4B5A"/>
<path d="M37.7182 5.26017C38.5145 5.26017 39.2602 5.48453 39.902 5.87411V1.57125C39.902 0.70354 39.2269 0 38.3941 0H37.0421C36.2093 0 35.5342 0.70354 35.5342 1.57125V5.87411C36.1761 5.48423 36.9218 5.26017 37.7182 5.26017Z" fill="#205675"/>
<path d="M39.9018 61.1448V13.7014C39.2601 14.0912 38.5144 14.3153 37.718 14.3153C36.9217 14.3153 36.1759 14.091 35.5342 13.7014V61.1448H39.9018Z" fill="#205675"/>
<path d="M38.4738 1.57125C38.4738 1.00743 38.7597 0.514445 39.1879 0.237261C38.9572 0.0877916 38.6858 0 38.3941 0H37.0421C36.2093 0 35.5342 0.70354 35.5342 1.57125V5.87411C36.1759 5.48423 36.9217 5.26017 37.718 5.26017C37.9761 5.26017 38.2281 5.28613 38.4738 5.33116V1.57125Z" fill="#164662"/>
<path d="M37.718 14.3156C36.9217 14.3156 36.1759 14.0914 35.5342 13.7016V61.145H38.4738V14.2445C38.2281 14.2896 37.9761 14.3156 37.718 14.3156Z" fill="#164662"/>
<path d="M50.952 36.6162H72.7905C73.82 36.6162 74.6625 37.4938 74.6625 38.5667V39.3253C74.6625 40.398 73.82 41.2757 72.7905 41.2757H50.952C49.9225 41.2757 49.0801 40.3981 49.0801 39.3253V38.5667C49.0801 37.4938 49.9225 36.6162 50.952 36.6162Z" fill="#92A2B8"/>
<path d="M72.7904 38.1834H50.952C50.3421 38.1834 49.7995 37.874 49.4572 37.3998C49.2217 37.726 49.0801 38.1294 49.0801 38.5666V39.3252C49.0801 40.398 49.9224 41.2757 50.952 41.2757H72.7904C73.8199 41.2757 74.6623 40.3981 74.6623 39.3252V38.5666C74.6623 38.1294 74.5207 37.7259 74.2852 37.3998C73.9429 37.874 73.4004 38.1834 72.7904 38.1834Z" fill="#9EAFC6"/>
<path d="M71.8648 41.2757C71.2333 46.183 67.2018 49.9685 62.3192 49.9685C57.4366 49.9685 53.4052 46.183 52.7734 41.2757H71.8648Z" fill="#D7DEED"/>
<path d="M8.16931 41.2757H3.71777C4.34947 46.183 8.38088 49.9685 13.2635 49.9685C14.0297 49.9685 14.7747 49.8752 15.4892 49.699C11.651 48.7526 8.70176 45.413 8.16931 41.2757Z" fill="#C7CFE2"/>
<path d="M57.2249 41.2757H52.7734C53.4052 46.183 57.4366 49.9685 62.3192 49.9685C63.0854 49.9685 63.8305 49.8752 64.545 49.699C60.7066 48.7526 57.7575 45.413 57.2249 41.2757Z" fill="#C7CFE2"/>
<path d="M13.7116 18.6384C15.3591 18.6384 16.6946 17.2467 16.6946 15.5301C16.6946 13.8134 15.3591 12.4218 13.7116 12.4218C12.0641 12.4218 10.7285 13.8134 10.7285 15.5301C10.7285 17.2467 12.0641 18.6384 13.7116 18.6384Z" fill="#9EAFC6"/>
<path d="M61.8707 18.6384C63.5182 18.6384 64.8538 17.2467 64.8538 15.5301C64.8538 13.8134 63.5182 12.4218 61.8707 12.4218C60.2232 12.4218 58.8877 13.8134 58.8877 15.5301C58.8877 17.2467 60.2232 18.6384 61.8707 18.6384Z" fill="#9EAFC6"/>
<path d="M46.1415 60.6811H29.2948C28.2653 60.6811 27.4229 61.5587 27.4229 62.6315V65.8044H48.0135V62.6315C48.0135 61.5587 47.1711 60.6811 46.1415 60.6811Z" fill="#3E4B5A"/>
<path d="M27.4599 62.2481C27.4358 62.3723 27.4229 62.5002 27.4229 62.6313V65.8041H48.0134V62.6313C48.0134 62.5001 48.0004 62.3721 47.9764 62.2481H27.4599Z" fill="#303F49"/>
<path d="M48.6772 65.3404H26.8388C25.8092 65.3404 24.9668 66.2181 24.9668 67.291V68.0496C24.9668 69.1222 25.8092 70 26.8388 70H48.6772C49.7067 70 50.5492 69.1224 50.5492 68.0496V67.291C50.5492 66.2181 49.7067 65.3404 48.6772 65.3404Z" fill="#576574"/>
<path d="M48.677 66.9076H26.8386C26.2286 66.9076 25.686 66.5981 25.3438 66.1238C25.1084 66.4502 24.9668 66.8536 24.9668 67.2907V68.0494C24.9668 69.122 25.8091 69.9998 26.8387 69.9998H48.6772C49.7066 69.9998 50.5491 69.1222 50.5491 68.0494V67.2907C50.5491 66.8536 50.4075 66.45 50.1721 66.1238C49.8295 66.5981 49.287 66.9076 48.677 66.9076Z" fill="#3E4B5A"/>
<path d="M37.7183 14.3153C40.1181 14.3153 42.0635 12.2883 42.0635 9.78767C42.0635 7.28712 40.1181 5.26001 37.7183 5.26001C35.3184 5.26001 33.373 7.28712 33.373 9.78767C33.373 12.2883 35.3184 14.3153 37.7183 14.3153Z" fill="#92A2B8"/>
<path d="M15.18 15.5301C15.18 14.7367 15.4678 14.015 15.9373 13.4657C15.3909 12.8267 14.5976 12.4218 13.7115 12.4218C12.064 12.4218 10.7285 13.8134 10.7285 15.5301C10.7285 17.2467 12.064 18.6384 13.7115 18.6384C14.5976 18.6384 15.3909 18.2336 15.9373 17.5945C15.4678 17.0452 15.18 16.3236 15.18 15.5301Z" fill="#92A2B8"/>
<path d="M63.3392 15.5301C63.3392 14.7367 63.6269 14.015 64.0964 13.4657C63.5502 12.8267 62.7568 12.4218 61.8707 12.4218C60.2232 12.4218 58.8877 13.8134 58.8877 15.5301C58.8877 17.2467 60.2232 18.6384 61.8707 18.6384C62.7568 18.6384 63.55 18.2336 64.0964 17.5945C63.6268 17.0452 63.3392 16.3236 63.3392 15.5301Z" fill="#92A2B8"/>
<path d="M37.8246 9.78767C37.8246 8.1349 38.6749 6.68959 39.944 5.89902C39.2931 5.49353 38.532 5.26001 37.7183 5.26001C35.3185 5.26001 33.373 7.28719 33.373 9.78767C33.373 12.2882 35.3185 14.3153 37.7183 14.3153C38.5319 14.3153 39.2929 14.0819 39.944 13.6764C38.6747 12.8859 37.8246 11.4404 37.8246 9.78767Z" fill="#9EAFC6"/>
<path d="M2.79279 36.6162H24.6313C25.6608 36.6162 26.5032 37.4938 26.5032 38.5667V39.3253C26.5032 40.398 25.6608 41.2757 24.6313 41.2757H2.79279C1.76316 41.2756 0.920898 40.3978 0.920898 39.3251V38.5665C0.920898 37.4938 1.76316 36.6162 2.79279 36.6162Z" fill="#92A2B8"/>
<path d="M24.6312 38.1834H2.79279C2.18285 38.1834 1.6403 37.874 1.29796 37.3998C1.06248 37.726 0.920898 38.1294 0.920898 38.5666V39.3252C0.920898 40.398 1.76316 41.2757 2.79279 41.2757H24.6312C25.6606 41.2757 26.5031 40.3981 26.5031 39.3252V38.5666C26.5031 38.1294 26.3615 37.7259 26.126 37.3998C25.7837 37.874 25.2412 38.1834 24.6312 38.1834Z" fill="#9EAFC6"/>
</svg>
