<svg width="70" height="70" viewBox="0 0 70 70" fill="none" xmlns="http://www.w3.org/2000/svg">
<g clip-path="url(#clip0_1427_1217)">
<path d="M66.0194 29.825C64.942 29.0307 63.5846 28.0385 63.4203 27.3902C63.4893 26.1355 63.8477 24.9138 64.4672 23.8204C65.4168 21.6413 66.3966 19.3833 65.3071 17.5054C64.2177 15.6276 61.7403 15.3233 59.3574 15.0707C58.1223 15.0624 56.9054 14.7719 55.7997 14.2216C55.2485 13.112 54.959 11.8907 54.9535 10.6517C54.6858 8.26882 54.4087 5.80371 52.5188 4.70197C50.6289 3.60023 48.3676 4.56502 46.1887 5.52667C45.0943 6.14594 43.8715 6.50416 42.6159 6.57362C41.9585 6.39716 40.9695 5.05191 40.1812 3.97457C38.7996 2.11203 37.2443 0 34.9983 0C32.7523 0 31.1972 2.11203 29.8246 3.97457C29.0272 5.0549 28.038 6.40928 27.3898 6.57663C26.1353 6.50102 24.9138 6.14323 23.817 5.52966C21.6258 4.56488 19.3677 3.60323 17.496 4.6867C15.6243 5.77018 15.3109 8.25356 15.043 10.6516C15.0343 11.8863 14.745 13.1029 14.1969 14.2093C13.0934 14.7519 11.8812 15.0369 10.6515 15.0432C8.26554 15.3109 5.79729 15.588 4.69869 17.4779C3.60009 19.3678 4.56502 21.6262 5.52667 23.8083C6.14823 24.9052 6.50658 26.1313 6.57363 27.3902C6.39717 28.0477 5.05191 29.0398 3.97457 29.825C2.11203 31.1945 0 32.7527 0 34.9987C0 37.2447 2.11204 38.8029 3.9777 40.1725C5.05505 40.9668 6.41243 41.9589 6.57677 42.6071C6.50772 43.862 6.14937 45.0837 5.52981 46.1771C4.58029 48.3561 3.60037 50.6142 4.68985 52.492C5.77932 54.3698 8.25669 54.6741 10.6397 54.9267C11.8748 54.935 13.0916 55.2254 14.1973 55.7758C14.7486 56.8855 15.038 58.1067 15.0434 59.3457C15.3112 61.7286 15.5882 64.1937 17.4782 65.2955C19.3681 66.3972 21.6111 65.405 23.7932 64.4555C24.8986 63.8431 26.1285 63.4893 27.3904 63.4208C28.0477 63.5973 29.0368 64.9425 29.8251 66.0199C31.1977 67.8824 32.7529 69.9944 34.9989 69.9944C37.2449 69.9944 38.8 67.8824 40.1726 66.0199C40.9699 64.9395 41.9591 63.5851 42.6073 63.4178C43.8627 63.4889 45.085 63.8469 46.1802 64.4648C48.3593 65.4143 50.6173 66.3883 52.492 65.3077C54.3666 64.2274 54.6771 61.7409 54.945 59.3549C54.9537 58.1202 55.243 56.9037 55.7911 55.7973C56.8967 55.2503 58.1123 54.962 59.3457 54.9543C61.7317 54.6865 64.1999 54.4095 65.2984 52.5196C66.3971 50.6297 65.4051 48.3866 64.4585 46.2046C63.839 45.1021 63.4848 43.8704 63.4238 42.6073C63.6003 41.95 64.9456 40.9578 66.0229 40.1726C67.8854 38.8001 70.0006 37.2419 70.0006 34.9989C70.0006 32.7559 67.8848 31.1945 66.0194 29.825Z" fill="#164662"/>
<path d="M15.4186 14.9454L15.3928 14.9248C15.101 14.7107 14.7938 14.4768 14.4788 14.2374C12.9062 13.0416 11.2791 11.8045 10.1785 11.8045C9.15038 11.8045 8.43359 13.1839 8.43359 14.4219C8.43359 17.0733 9.89668 21.5943 10.6841 22.5179C10.767 22.615 10.8884 22.671 11.016 22.671H11.028C11.1601 22.6674 11.2834 22.6042 11.3635 22.4992C11.773 21.9602 12.2252 21.4086 12.7043 20.8218C13.7993 19.5516 14.7959 18.1995 15.685 16.7775C15.8443 16.5394 15.9349 16.262 15.9468 15.9757C15.9404 15.5689 15.7453 15.188 15.4186 14.9454Z" fill="#C8C6CC"/>
<path d="M31.9895 11.8045C30.8889 11.8045 29.2618 13.0416 27.6891 14.2378C27.3741 14.4772 27.0672 14.7111 26.773 14.9252L26.7485 14.9446C26.4226 15.1876 26.2284 15.5682 26.2227 15.9749C26.2333 16.2588 26.3219 16.5344 26.479 16.7715C27.3692 18.1957 28.3671 19.5497 29.4637 20.8218C29.9435 21.4072 30.3951 21.9602 30.8047 22.4992C30.8846 22.6042 31.0081 22.6674 31.1402 22.671H31.1519C31.2797 22.671 31.4009 22.615 31.484 22.5179C32.2712 21.5943 33.7343 17.0733 33.7343 14.4219C33.7343 13.1839 33.0176 11.8045 31.9895 11.8045Z" fill="#C8C6CC"/>
<path d="M31.3071 26.7235C31.7917 26.4609 32.3177 26.2839 32.8622 26.2C33.1032 26.2 33.2985 26.0046 33.2985 25.7638C33.2985 24.5188 32.3895 23.1465 31.4995 21.9709C31.0803 21.4198 30.6232 20.8612 30.1395 20.2694C29.0704 19.0299 28.0973 17.7108 27.228 16.3238C27.1536 16.2201 27.1085 16.0982 27.0972 15.9709C27.104 15.8407 27.1694 15.7205 27.2751 15.6441C27.3026 15.6245 27.3283 15.6023 27.352 15.5783C27.4678 15.4562 27.5034 15.2784 27.4429 15.1214C27.3826 14.9642 27.2371 14.8557 27.0693 14.8428C26.3444 14.8434 25.6232 14.9444 24.9261 15.1429C23.6691 15.4604 22.3803 15.6341 21.0842 15.6607C19.7891 15.6337 18.5013 15.4596 17.2454 15.1421C16.5481 14.9441 15.8271 14.8432 15.1022 14.8419C14.9344 14.8549 14.7889 14.9634 14.7286 15.1203C14.6681 15.2775 14.7035 15.4554 14.8196 15.5774C14.8432 15.6017 14.8692 15.6236 14.8967 15.6432C15.0036 15.7208 15.0693 15.8426 15.0747 15.9745C15.0613 16.1027 15.014 16.2251 14.9382 16.3295C14.07 17.7143 13.0981 19.031 12.0308 20.2685C11.547 20.8605 11.0897 21.4194 10.6697 21.97C9.77894 23.1486 8.86979 24.5188 8.86979 25.7638C8.86979 26.0046 9.06511 26.2 9.30606 26.2C9.85071 26.2839 10.3768 26.4609 10.8612 26.7235C9.38424 28.5901 8.43359 30.0187 8.43359 31.871C8.43359 32.0109 8.50073 32.1425 8.61424 32.2245C8.72751 32.3065 8.87341 32.3291 9.00633 32.2854C9.32689 32.1804 9.66239 32.1274 9.99957 32.1283C10.4322 32.124 10.8606 32.2122 11.2561 32.387C10.5308 33.2045 10.1453 34.2683 10.1785 35.3608C10.1776 35.5124 10.2556 35.6534 10.3842 35.7335C10.5131 35.8136 10.6742 35.8211 10.8098 35.7533C11.6275 35.3682 12.4979 35.1056 13.3923 34.9742C13.2704 35.5307 13.2165 36.0999 13.2321 36.6694C13.2321 36.8303 13.3207 36.9783 13.4625 37.0541C13.6044 37.1299 13.7765 37.1217 13.9105 37.0324C14.7123 36.4976 16.8793 36.2711 18.6409 36.2375C18.8261 36.2341 18.9891 36.1139 19.047 35.9378C19.105 35.7616 19.0453 35.5682 18.8983 35.4553C18.8577 35.4245 18.8185 35.3916 18.7787 35.3577C18.8202 35.3608 18.8594 35.3608 18.9031 35.3608C19.5273 35.3608 20.5172 35.3608 21.0842 34.8068C21.6514 35.3608 22.641 35.3608 23.2653 35.3608C23.3089 35.3608 23.3494 35.3608 23.3914 35.3577C23.3518 35.3927 23.3107 35.4261 23.2702 35.4589C23.1253 35.5731 23.0681 35.7657 23.1268 35.9403C23.1855 36.115 23.3477 36.2341 23.5317 36.2375C25.2911 36.2711 27.4556 36.4971 28.2584 37.0324C28.3922 37.1214 28.5642 37.1298 28.706 37.0537C28.8476 36.9779 28.9363 36.8303 28.9363 36.6694C28.952 36.0995 28.8983 35.5295 28.7763 34.9725C29.6705 35.1058 30.5406 35.3689 31.3591 35.7533C31.4946 35.8208 31.6556 35.8134 31.7841 35.7333C31.9127 35.6532 31.9907 35.5122 31.9899 35.3608C32.0231 34.2683 31.6375 33.2045 30.9124 32.387C31.308 32.2122 31.7363 32.124 32.1687 32.1283C32.5062 32.1274 32.8414 32.1804 33.162 32.2854C33.2949 32.3291 33.4408 32.3065 33.5543 32.2245C33.6677 32.1425 33.7347 32.0109 33.7347 31.871C33.7347 30.0187 32.7843 28.5901 31.3071 26.7235Z" fill="#C8C6CC"/>
<path d="M16.7221 25.7638C16.2403 25.7638 15.8496 25.3731 15.8496 24.8914C15.8496 24.4096 16.2403 24.0189 16.7221 24.0189C17.2039 24.0189 17.5945 24.4096 17.5945 24.8914C17.5945 25.3731 17.2039 25.7638 16.7221 25.7638Z" fill="#164662"/>
<path d="M25.0102 25.7638C24.5283 25.7638 24.1377 25.3731 24.1377 24.8913C24.1377 24.4096 24.5283 24.0189 25.0102 24.0189C25.492 24.0189 25.8826 24.4096 25.8826 24.8913C25.8826 25.3731 25.492 25.7638 25.0102 25.7638Z" fill="#164662"/>
<path d="M26.0783 21.0111C26.0176 20.9808 25.9509 20.9653 25.8831 20.9653C25.1311 20.9776 24.3892 21.1416 23.702 21.4473V21.4015C23.702 21.2503 23.6238 21.1099 23.4952 21.0302C23.3668 20.9508 23.2062 20.9435 23.0709 21.0111C22.3411 21.374 21.6712 21.8464 21.0847 22.4122C20.498 21.8464 19.8281 21.374 19.0986 21.0111C18.9634 20.9435 18.8028 20.9508 18.6741 21.0302C18.5454 21.1099 18.4673 21.2503 18.4673 21.4015V21.4473C17.7802 21.1416 17.0383 20.9776 16.2861 20.9653C16.2184 20.9653 16.1518 20.9808 16.0912 21.0111C15.4533 21.3544 14.9304 21.8773 14.5871 22.5153C14.4795 22.7308 14.5668 22.9928 14.7826 23.1006C14.9981 23.2084 15.2603 23.1209 15.3679 22.905C15.6088 22.4644 15.9639 22.0965 16.3961 21.8403C16.9052 21.8603 18.0294 22.0171 18.5951 22.582C18.7199 22.7066 18.9073 22.7439 19.0703 22.6765C19.2332 22.6092 19.3396 22.4503 19.3397 22.274V22.1483C19.8754 22.4388 20.3385 22.8467 20.6942 23.3413C20.7077 23.3649 20.7232 23.3871 20.7405 23.4078C20.7462 23.4171 20.7526 23.4261 20.7592 23.4349C20.7933 23.4727 20.8338 23.5043 20.8787 23.5281C20.8832 23.5281 20.8853 23.5347 20.8898 23.5368C20.894 23.539 20.9023 23.5368 20.9089 23.5411C20.9639 23.5673 21.0238 23.5813 21.0847 23.5826C21.1451 23.5813 21.2046 23.5675 21.2591 23.5415C21.2657 23.539 21.2723 23.5415 21.2783 23.5372C21.2845 23.533 21.2849 23.5307 21.2894 23.5286C21.3343 23.5047 21.3748 23.4731 21.4089 23.4353C21.4163 23.4269 21.4206 23.4173 21.4276 23.4086C21.4449 23.3877 21.4604 23.3654 21.4738 23.3419C21.8301 22.8471 22.2936 22.4393 22.8296 22.1487V22.274C22.8296 22.4503 22.9359 22.6094 23.0988 22.6769C23.2619 22.7445 23.4494 22.707 23.5742 22.5824C24.1932 21.9634 25.4065 21.8586 25.7749 21.8407C26.2061 22.0974 26.5605 22.4648 26.8014 22.9046C26.9092 23.1204 27.1712 23.208 27.3869 23.1002C27.6025 22.9924 27.6901 22.7304 27.5823 22.5147C27.2389 21.8771 26.716 21.3543 26.0783 21.0111Z" fill="#D8D8DA"/>
<path d="M13.5629 28.3942C13.4864 28.4131 11.6895 28.8707 10.7426 29.8176C10.6292 29.9272 10.5836 30.0894 10.6237 30.2419C10.6636 30.3945 10.7826 30.5136 10.9351 30.5534C11.0876 30.5934 11.2499 30.5478 11.3594 30.4345C12.1345 29.6598 13.7586 29.2444 13.7744 29.2407C14.0042 29.1788 14.1423 28.9444 14.0845 28.7135C14.0268 28.4825 13.7947 28.3404 13.5629 28.3942Z" fill="#D8D8DA"/>
<path d="M31.4255 29.8176C30.4784 28.8707 28.6815 28.4131 28.6053 28.3942C28.3733 28.3404 28.1412 28.4825 28.0834 28.7135C28.0257 28.9444 28.1637 29.1788 28.3935 29.2407C28.4097 29.2444 30.0335 29.6598 30.8086 30.4345C30.9798 30.5998 31.2518 30.5975 31.4201 30.4291C31.5884 30.2609 31.5908 29.9889 31.4255 29.8176Z" fill="#D8D8DA"/>
<path d="M11.4748 19.3154C11.2842 19.3156 11.1157 19.1918 11.0586 19.0101C10.5642 17.5262 10.2684 15.9834 10.1787 14.4219C10.1791 14.3235 10.1881 14.2255 10.2057 14.1287C10.2554 13.8996 10.4773 13.7506 10.708 13.7915C10.9389 13.8323 11.0963 14.0483 11.0643 14.2804C11.0558 14.3271 11.0516 14.3743 11.0512 14.4219C11.1293 15.896 11.412 17.3521 11.891 18.7483C11.9632 18.9782 11.8354 19.2231 11.6056 19.2953C11.5632 19.3086 11.5191 19.3154 11.4748 19.3154Z" fill="#F5F5F5"/>
<path d="M24.8898 34.1127C24.7304 33.9854 24.5042 33.9854 24.3449 34.1127C24.0389 34.3579 23.6576 34.4907 23.2652 34.4883C21.7821 34.4883 21.5203 34.2597 21.5203 33.6158C21.5203 33.375 21.325 33.1796 21.0841 33.1796C20.8432 33.1796 20.6478 33.375 20.6478 33.6158C20.6478 34.2597 20.3861 34.4883 18.903 34.4883C18.5106 34.4907 18.1295 34.3579 17.8233 34.1127C17.6642 33.9852 17.438 33.985 17.2784 34.1121C17.1191 34.2393 17.069 34.4602 17.158 34.6436C17.3355 35.0095 17.5636 35.3488 17.8356 35.6513C17.9935 35.8296 18.1676 35.993 18.356 36.139C19.0648 36.7182 19.9407 37.0545 20.8551 37.0986C20.9293 37.1035 21.0038 37.1039 21.0837 37.1039C21.1636 37.1039 21.2381 37.1039 21.3067 37.099C22.2217 37.0577 23.0993 36.7237 23.8101 36.1459C23.9977 35.998 24.1718 35.8338 24.3304 35.6551C24.6035 35.3516 24.8323 35.0112 25.0102 34.6436C25.099 34.4602 25.0489 34.2399 24.8898 34.1127Z" fill="#C8C6CC"/>
<path d="M30.6943 19.3154C30.6497 19.3154 30.6057 19.3086 30.5633 19.2953C30.3335 19.2231 30.2057 18.9782 30.2781 18.7483C30.7569 17.3521 31.0395 15.896 31.1177 14.4219C31.1175 14.3743 31.1131 14.3271 31.1047 14.2804C31.0728 14.0483 31.23 13.8323 31.4609 13.7915C31.6918 13.7506 31.9135 13.8996 31.9631 14.1287C31.9808 14.2255 31.99 14.3235 31.9902 14.4219C31.9005 15.9834 31.6047 17.5262 31.1103 19.0101C31.0532 19.1918 30.8847 19.3156 30.6943 19.3154Z" fill="#F5F5F5"/>
<path d="M24.3324 27.9886C24.1167 27.8808 23.8546 27.9683 23.7468 28.1839C23.6393 28.3997 23.7266 28.6617 23.9424 28.7695C24.6504 29.1254 25.0098 29.4992 25.0098 30.5623V32.7434C25.0123 33.2768 24.7678 33.7814 24.3476 34.11C24.041 34.3571 23.6585 34.4906 23.2649 34.4884C21.7817 34.4884 21.5199 34.2598 21.5199 33.6159C21.5199 33.3749 21.3246 33.1796 21.0837 33.1796C20.8428 33.1796 20.6474 33.3749 20.6474 33.6159C20.6474 34.2598 20.3857 34.4884 18.9026 34.4884C18.5103 34.4906 18.1291 34.358 17.8229 34.1128C17.4009 33.7842 17.1551 33.2783 17.1577 32.7434V30.5623C17.1577 29.4992 17.5172 29.1254 18.2252 28.7738C18.4408 28.6661 18.5283 28.4039 18.4205 28.1884C18.313 27.9726 18.0508 27.8853 17.8352 27.9929C16.7342 28.5413 16.2852 29.2864 16.2852 30.5623V32.7434C16.2816 33.5433 16.6473 34.2999 17.2763 34.7938H17.2784C17.7403 35.161 18.3127 35.3608 18.9026 35.3608C19.5269 35.3608 20.5167 35.3608 21.0837 34.8055C21.651 35.3608 22.6405 35.3608 23.2649 35.3608C23.8525 35.361 24.4231 35.1627 24.8841 34.7981H24.8864C25.5184 34.3043 25.8861 33.5456 25.8822 32.7434V30.5623C25.8822 29.2864 25.4334 28.5413 24.3324 27.9886Z" fill="#D8D8DA"/>
<path d="M22.8287 32.3073C22.8287 33.2708 22.0474 34.0521 21.0838 34.0521C20.1202 34.0521 19.3389 33.2708 19.3389 32.3073C19.3389 31.3436 20.1202 30.5623 21.0838 30.5623C22.0474 30.5623 22.8287 31.3436 22.8287 32.3073Z" fill="#164662"/>
<path d="M43.2496 14.9454L43.2238 14.9248C42.932 14.7107 42.6249 14.4768 42.3099 14.2374C40.7372 13.0416 39.1101 11.8045 38.0096 11.8045C36.9814 11.8045 36.2646 13.1839 36.2646 14.4219C36.2646 17.0733 37.7277 21.5943 38.5152 22.5179C38.5981 22.615 38.7195 22.671 38.8471 22.671H38.859C38.9911 22.6674 39.1144 22.6042 39.1945 22.4992C39.6041 21.9602 40.0563 21.4086 40.5353 20.8218C41.6304 19.5516 42.627 18.1995 43.5161 16.7775C43.6754 16.5394 43.766 16.262 43.7778 15.9757C43.7714 15.5689 43.5764 15.188 43.2496 14.9454Z" fill="#C8C6CC"/>
<path d="M59.8205 11.8045C58.7199 11.8045 57.0928 13.0416 55.5202 14.2378C55.2052 14.4772 54.8983 14.7111 54.6041 14.9252L54.5796 14.9446C54.2537 15.1876 54.0594 15.5682 54.0537 15.9749C54.0643 16.2588 54.153 16.5344 54.3101 16.7715C55.2003 18.1957 56.1982 19.5497 57.2947 20.8218C57.7746 21.4072 58.2261 21.9602 58.6358 22.4992C58.7156 22.6042 58.8392 22.6674 58.9713 22.671H58.983C59.1107 22.671 59.2319 22.615 59.315 22.5179C60.1023 21.5943 61.5654 17.0733 61.5654 14.4219C61.5654 13.1839 60.8487 11.8045 59.8205 11.8045Z" fill="#C8C6CC"/>
<path d="M59.1382 26.7235C59.6228 26.4609 60.1487 26.2839 60.6933 26.2C60.9343 26.2 61.1296 26.0046 61.1296 25.7638C61.1296 24.5188 60.2205 23.1465 59.3306 21.9709C58.9113 21.4198 58.4542 20.8612 57.9706 20.2694C56.9015 19.0299 55.9283 17.7108 55.0591 16.3238C54.9847 16.2201 54.9396 16.0982 54.9282 15.9709C54.9351 15.8407 55.0004 15.7205 55.1061 15.6441C55.1336 15.6245 55.1593 15.6023 55.183 15.5783C55.2988 15.4562 55.3344 15.2784 55.2739 15.1214C55.2136 14.9642 55.0682 14.8557 54.9003 14.8428C54.1755 14.8434 53.4543 14.9444 52.7572 15.1429C51.5002 15.4604 50.2113 15.6341 48.9153 15.6607C47.6202 15.6337 46.3323 15.4596 45.0765 15.1421C44.3792 14.9441 43.6582 14.8432 42.9333 14.8419C42.7655 14.8549 42.62 14.9634 42.5597 15.1203C42.4992 15.2775 42.5345 15.4554 42.6507 15.5774C42.6743 15.6017 42.7003 15.6236 42.7278 15.6432C42.8347 15.7208 42.9003 15.8426 42.9058 15.9745C42.8924 16.1027 42.8451 16.2251 42.7693 16.3295C41.9011 17.7143 40.9292 19.031 39.8618 20.2685C39.378 20.8605 38.9208 21.4194 38.5008 21.97C37.61 23.1486 36.7008 24.5188 36.7008 25.7638C36.7008 26.0046 36.8962 26.2 37.1371 26.2C37.6818 26.2839 38.2079 26.4609 38.6922 26.7235C37.2153 28.5901 36.2646 30.0187 36.2646 31.871C36.2646 32.0109 36.3318 32.1425 36.4453 32.2245C36.5586 32.3065 36.7045 32.3291 36.8374 32.2854C37.1579 32.1804 37.4934 32.1274 37.8306 32.1283C38.2633 32.124 38.6916 32.2122 39.0872 32.387C38.3619 33.2045 37.9764 34.2683 38.0096 35.3608C38.0087 35.5124 38.0867 35.6534 38.2153 35.7335C38.3442 35.8136 38.5052 35.8211 38.6409 35.7533C39.4586 35.3682 40.3289 35.1056 41.2233 34.9742C41.1015 35.5307 41.0476 36.0999 41.0631 36.6694C41.0631 36.8303 41.1517 36.9783 41.2936 37.0541C41.4355 37.1299 41.6076 37.1217 41.7415 37.0324C42.5433 36.4976 44.7104 36.2711 46.4719 36.2375C46.6572 36.2341 46.8201 36.1139 46.8781 35.9378C46.936 35.7616 46.8764 35.5682 46.7294 35.4553C46.6887 35.4245 46.6495 35.3916 46.6097 35.3577C46.6512 35.3608 46.6904 35.3608 46.7341 35.3608C47.3584 35.3608 48.3483 35.3608 48.9153 34.8068C49.4824 35.3608 50.472 35.3608 51.0964 35.3608C51.14 35.3608 51.1805 35.3608 51.2225 35.3577C51.1828 35.3927 51.1418 35.4261 51.1013 35.4589C50.9564 35.5731 50.8991 35.7657 50.9579 35.9403C51.0165 36.115 51.1788 36.2341 51.3628 36.2375C53.1222 36.2711 55.2867 36.4971 56.0895 37.0324C56.2232 37.1214 56.3952 37.1298 56.5371 37.0537C56.6787 36.9779 56.7673 36.8303 56.7673 36.6694C56.7831 36.0995 56.7294 35.5295 56.6073 34.9725C57.5016 35.1058 58.3717 35.3689 59.1902 35.7533C59.3257 35.8208 59.4867 35.8134 59.6151 35.7333C59.7437 35.6532 59.8218 35.5122 59.8209 35.3608C59.8541 34.2683 59.4686 33.2045 58.7435 32.387C59.139 32.2122 59.5674 32.124 59.9998 32.1283C60.3372 32.1274 60.6725 32.1804 60.993 32.2854C61.1259 32.3291 61.2719 32.3065 61.3854 32.2245C61.4987 32.1425 61.5658 32.0109 61.5658 31.871C61.5658 30.0187 60.6154 28.5901 59.1382 26.7235Z" fill="#C8C6CC"/>
<path d="M44.5531 25.7638C44.0713 25.7638 43.6807 25.3731 43.6807 24.8914C43.6807 24.4096 44.0713 24.0189 44.5531 24.0189C45.035 24.0189 45.4256 24.4096 45.4256 24.8914C45.4256 25.3731 45.035 25.7638 44.5531 25.7638Z" fill="#164662"/>
<path d="M52.8412 25.7638C52.3594 25.7638 51.9688 25.3731 51.9688 24.8913C51.9688 24.4096 52.3594 24.0189 52.8412 24.0189C53.323 24.0189 53.7137 24.4096 53.7137 24.8913C53.7137 25.3731 53.323 25.7638 52.8412 25.7638Z" fill="#164662"/>
<path d="M53.9093 21.0111C53.8486 20.9808 53.782 20.9653 53.7142 20.9653C52.9621 20.9776 52.2202 21.1416 51.533 21.4473V21.4015C51.533 21.2503 51.4549 21.1099 51.3263 21.0302C51.1978 20.9508 51.0372 20.9435 50.902 21.0111C50.1722 21.374 49.5023 21.8464 48.9157 22.4122C48.3291 21.8464 47.6592 21.374 46.9297 21.0111C46.7945 20.9435 46.6338 20.9508 46.5052 21.0302C46.3765 21.1099 46.2983 21.2503 46.2983 21.4015V21.4473C45.6112 21.1416 44.8693 20.9776 44.1172 20.9653C44.0495 20.9653 43.9828 20.9808 43.9223 21.0111C43.2844 21.3544 42.7615 21.8773 42.4181 22.5153C42.3105 22.7308 42.3979 22.9928 42.6136 23.1006C42.8292 23.2084 43.0914 23.1209 43.199 22.905C43.4399 22.4644 43.7949 22.0965 44.2272 21.8403C44.7362 21.8603 45.8604 22.0171 46.4262 22.582C46.551 22.7066 46.7384 22.7439 46.9013 22.6765C47.0643 22.6092 47.1706 22.4503 47.1708 22.274V22.1483C47.7065 22.4388 48.1696 22.8467 48.5252 23.3413C48.5387 23.3649 48.5543 23.3871 48.5715 23.4078C48.5773 23.4171 48.5836 23.4261 48.5903 23.4349C48.6243 23.4727 48.6648 23.5043 48.7098 23.5281C48.7142 23.5281 48.7164 23.5347 48.7208 23.5368C48.725 23.539 48.7334 23.5368 48.74 23.5411C48.795 23.5673 48.8548 23.5813 48.9157 23.5826C48.9762 23.5813 49.0357 23.5675 49.0901 23.5415C49.0968 23.539 49.1034 23.5415 49.1094 23.5372C49.1155 23.533 49.1159 23.5307 49.1204 23.5286C49.1654 23.5047 49.2058 23.4731 49.2399 23.4353C49.2473 23.4269 49.2516 23.4173 49.2586 23.4086C49.2759 23.3877 49.2914 23.3654 49.3049 23.3419C49.6612 22.8471 50.1247 22.4393 50.6607 22.1487V22.274C50.6607 22.4503 50.7669 22.6094 50.9299 22.6769C51.093 22.7445 51.2805 22.707 51.4053 22.5824C52.0242 21.9634 53.2375 21.8586 53.606 21.8407C54.0371 22.0974 54.3916 22.4648 54.6324 22.9046C54.7402 23.1204 55.0023 23.208 55.218 23.1002C55.4336 22.9924 55.5211 22.7304 55.4133 22.5147C55.07 21.8771 54.5471 21.3543 53.9093 21.0111Z" fill="#D8D8DA"/>
<path d="M41.394 28.3942C41.3175 28.4131 39.5206 28.8707 38.5736 29.8176C38.4603 29.9272 38.4147 30.0894 38.4547 30.2419C38.4946 30.3945 38.6136 30.5136 38.7662 30.5534C38.9187 30.5934 39.081 30.5478 39.1905 30.4345C39.9655 29.6598 41.5897 29.2444 41.6055 29.2407C41.8353 29.1788 41.9734 28.9444 41.9156 28.7135C41.8579 28.4825 41.6257 28.3404 41.394 28.3942Z" fill="#D8D8DA"/>
<path d="M59.2565 29.8176C58.3095 28.8707 56.5126 28.4131 56.4364 28.3942C56.2043 28.3404 55.9722 28.4825 55.9145 28.7135C55.8568 28.9444 55.9948 29.1788 56.2246 29.2407C56.2408 29.2444 57.8645 29.6598 58.6397 30.4345C58.8109 30.5998 59.0829 30.5975 59.2512 30.4291C59.4194 30.2609 59.4218 29.9889 59.2565 29.8176Z" fill="#D8D8DA"/>
<path d="M39.3059 19.3154C39.1153 19.3156 38.9468 19.1918 38.8897 19.0101C38.3953 17.5262 38.0994 15.9834 38.0098 14.4219C38.0102 14.3235 38.0191 14.2255 38.0368 14.1287C38.0864 13.8996 38.3084 13.7506 38.5391 13.7915C38.77 13.8323 38.9274 14.0483 38.8954 14.2804C38.8869 14.3271 38.8827 14.3743 38.8822 14.4219C38.9603 15.896 39.243 17.3521 39.7221 18.7483C39.7943 18.9782 39.6665 19.2231 39.4367 19.2953C39.3942 19.3086 39.3501 19.3154 39.3059 19.3154Z" fill="#F5F5F5"/>
<path d="M52.7209 34.1127C52.5615 33.9854 52.3353 33.9854 52.176 34.1127C51.8699 34.3579 51.4886 34.4907 51.0963 34.4883C49.6131 34.4883 49.3514 34.2597 49.3514 33.6158C49.3514 33.375 49.156 33.1796 48.9152 33.1796C48.6742 33.1796 48.4789 33.375 48.4789 33.6158C48.4789 34.2597 48.2171 34.4883 46.734 34.4883C46.3417 34.4907 45.9606 34.3579 45.6543 34.1127C45.4952 33.9852 45.269 33.985 45.1094 34.1121C44.9501 34.2393 44.9 34.4602 44.9891 34.6436C45.1665 35.0095 45.3947 35.3488 45.6667 35.6513C45.8245 35.8296 45.9987 35.993 46.187 36.139C46.8959 36.7182 47.7717 37.0545 48.6862 37.0986C48.7603 37.1035 48.8349 37.1039 48.9147 37.1039C48.9946 37.1039 49.0692 37.1039 49.1377 37.099C50.0528 37.0577 50.9303 36.7237 51.6411 36.1459C51.8288 35.998 52.0028 35.8338 52.1615 35.6551C52.4346 35.3516 52.6634 35.0112 52.8412 34.6436C52.9301 34.4602 52.88 34.2399 52.7209 34.1127Z" fill="#C8C6CC"/>
<path d="M58.5253 19.3154C58.4808 19.3154 58.4368 19.3086 58.3943 19.2953C58.1645 19.2231 58.0368 18.9782 58.1091 18.7483C58.588 17.3521 58.8706 15.896 58.9488 14.4219C58.9486 14.3743 58.9441 14.3271 58.9358 14.2804C58.9038 14.0483 59.061 13.8323 59.2919 13.7915C59.5229 13.7506 59.7446 13.8996 59.7942 14.1287C59.8119 14.2255 59.8211 14.3235 59.8212 14.4219C59.7316 15.9834 59.4357 17.5262 58.9414 19.0101C58.8843 19.1918 58.7157 19.3156 58.5253 19.3154Z" fill="#F5F5F5"/>
<path d="M52.1635 27.9886C51.9477 27.8808 51.6857 27.9683 51.5779 28.1839C51.4704 28.3997 51.5577 28.6617 51.7735 28.7695C52.4815 29.1254 52.8409 29.4992 52.8409 30.5623V32.7434C52.8434 33.2768 52.5989 33.7814 52.1786 34.11C51.8721 34.3571 51.4895 34.4906 51.0959 34.4884C49.6128 34.4884 49.351 34.2598 49.351 33.6159C49.351 33.3749 49.1556 33.1796 48.9148 33.1796C48.6738 33.1796 48.4785 33.3749 48.4785 33.6159C48.4785 34.2598 48.2168 34.4884 46.7336 34.4884C46.3413 34.4906 45.9602 34.358 45.654 34.1128C45.2319 33.7842 44.9862 33.2783 44.9887 32.7434V30.5623C44.9887 29.4992 45.3482 29.1254 46.0563 28.7738C46.2718 28.6661 46.3594 28.4039 46.2516 28.1884C46.144 27.9726 45.8818 27.8853 45.6663 27.9929C44.5653 28.5413 44.1162 29.2864 44.1162 30.5623V32.7434C44.1126 33.5433 44.4784 34.2999 45.1074 34.7938H45.1095C45.5713 35.161 46.1438 35.3608 46.7336 35.3608C47.3579 35.3608 48.3478 35.3608 48.9148 34.8055C49.482 35.3608 50.4716 35.3608 51.0959 35.3608C51.6836 35.361 52.2542 35.1627 52.7152 34.7981H52.7175C53.3495 34.3043 53.7171 33.5456 53.7132 32.7434V30.5623C53.7132 29.2864 53.2645 28.5413 52.1635 27.9886Z" fill="#D8D8DA"/>
<path d="M50.6598 32.3073C50.6598 33.2708 49.8785 34.0521 48.9149 34.0521C47.9512 34.0521 47.1699 33.2708 47.1699 32.3073C47.1699 31.3436 47.9512 30.5623 48.9149 30.5623C49.8785 30.5623 50.6598 31.3436 50.6598 32.3073Z" fill="#164662"/>
<path d="M28.069 41.9334L28.0432 41.9128C27.7514 41.6987 27.4442 41.4648 27.1292 41.2254C25.5566 40.0296 23.9294 38.7925 22.8289 38.7925C21.8008 38.7925 21.084 40.1719 21.084 41.4099C21.084 44.0613 22.5471 48.5823 23.3345 49.5059C23.4174 49.603 23.5388 49.659 23.6664 49.659H23.6784C23.8104 49.6554 23.9337 49.5921 24.0139 49.4871C24.4234 48.9482 24.8756 48.3966 25.3547 47.8097C26.4497 46.5395 27.4463 45.1874 28.3354 43.7654C28.4947 43.5273 28.5853 43.25 28.5972 42.9637C28.5908 42.5569 28.3957 42.176 28.069 41.9334Z" fill="#C8C6CC"/>
<path d="M44.6399 38.7925C43.5393 38.7925 41.9121 40.0296 40.3395 41.2258C40.0245 41.4652 39.7176 41.6991 39.4234 41.9132L39.3989 41.9325C39.073 42.1756 38.8788 42.5562 38.873 42.9629C38.8837 43.2468 38.9723 43.5224 39.1294 43.7594C40.0196 45.1836 41.0175 46.5377 42.114 47.8097C42.5939 48.3952 43.0455 48.9482 43.4551 49.4871C43.535 49.5921 43.6585 49.6554 43.7906 49.659H43.8023C43.9301 49.659 44.0513 49.603 44.1343 49.5059C44.9216 48.5823 46.3847 44.0613 46.3847 41.4099C46.3847 40.1719 45.668 38.7925 44.6399 38.7925Z" fill="#C8C6CC"/>
<path d="M43.9575 53.7115C44.4421 53.4489 44.9681 53.2719 45.5126 53.1879C45.7536 53.1879 45.9489 52.9926 45.9489 52.7518C45.9489 51.5068 45.0398 50.1344 44.1499 48.9588C43.7307 48.4078 43.2736 47.8491 42.7899 47.2574C41.7208 46.0179 40.7477 44.6988 39.8784 43.3118C39.804 43.2081 39.7589 43.0862 39.7476 42.9588C39.7544 42.8287 39.8198 42.7085 39.9255 42.632C39.9529 42.6125 39.9787 42.5903 40.0024 42.5662C40.1182 42.4442 40.1538 42.2663 40.0933 42.1094C40.033 41.9522 39.8875 41.8437 39.7197 41.8307C38.9948 41.8314 38.2736 41.9324 37.5765 42.1309C36.3195 42.4484 35.0307 42.6221 33.7346 42.6486C32.4395 42.6217 31.1517 42.4476 29.8958 42.1301C29.1985 41.9321 28.4775 41.8312 27.7526 41.8299C27.5848 41.8429 27.4393 41.9513 27.379 42.1083C27.3185 42.2655 27.3539 42.4434 27.47 42.5654C27.4936 42.5897 27.5196 42.6116 27.5471 42.6312C27.654 42.7088 27.7196 42.8306 27.7251 42.9625C27.7117 43.0907 27.6644 43.2131 27.5886 43.3175C26.7204 44.7023 25.7485 46.019 24.6811 47.2565C24.1974 47.8485 23.7401 48.4074 23.3201 48.958C22.4293 50.1365 21.5202 51.5068 21.5202 52.7518C21.5202 52.9926 21.7155 53.1879 21.9565 53.1879C22.5011 53.2719 23.0272 53.4489 23.5116 53.7115C22.0346 55.5781 21.084 57.0067 21.084 58.859C21.084 58.9989 21.1511 59.1305 21.2646 59.2125C21.3779 59.2945 21.5238 59.3171 21.6567 59.2734C21.9773 59.1684 22.3128 59.1153 22.65 59.1163C23.0826 59.112 23.511 59.2002 23.9065 59.375C23.1812 60.1925 22.7957 61.2563 22.8289 62.3488C22.828 62.5004 22.906 62.6414 23.0346 62.7215C23.1635 62.8016 23.3246 62.8091 23.4602 62.7413C24.2779 62.3562 25.1483 62.0935 26.0427 61.9622C25.9208 62.5187 25.8669 63.0879 25.8824 63.6574C25.8824 63.8182 25.9711 63.9663 26.1129 64.0421C26.2548 64.1179 26.4269 64.1096 26.5609 64.0204C27.3626 63.4855 29.5297 63.2591 31.2912 63.2254C31.4765 63.2221 31.6395 63.1019 31.6974 62.9258C31.7554 62.7496 31.6957 62.5562 31.5487 62.4433C31.5081 62.4124 31.4689 62.3796 31.4291 62.3457C31.4705 62.3488 31.5098 62.3488 31.5535 62.3488C32.1777 62.3488 33.1676 62.3488 33.7346 61.7947C34.3018 62.3488 35.2914 62.3488 35.9157 62.3488C35.9593 62.3488 35.9998 62.3488 36.0418 62.3457C36.0022 62.3807 35.9611 62.4141 35.9206 62.4469C35.7757 62.5611 35.7185 62.7537 35.7772 62.9283C35.8359 63.103 35.9981 63.2221 36.1821 63.2254C37.9415 63.2591 40.106 63.4851 40.9088 64.0204C41.0426 64.1094 41.2145 64.1177 41.3564 64.0417C41.498 63.9658 41.5866 63.8182 41.5866 63.6574C41.6024 63.0875 41.5487 62.5174 41.4267 61.9605C42.3209 62.0938 43.191 62.3569 44.0095 62.7413C44.145 62.8088 44.306 62.8014 44.4345 62.7213C44.5631 62.6412 44.6411 62.5002 44.6402 62.3488C44.6735 61.2563 44.2879 60.1925 43.5628 59.375C43.9584 59.2002 44.3867 59.112 44.8191 59.1163C45.1566 59.1153 45.4918 59.1684 45.8124 59.2734C45.9453 59.3171 46.0912 59.2945 46.2047 59.2125C46.3181 59.1305 46.3851 58.9989 46.3851 58.859C46.3851 57.0067 45.4347 55.5781 43.9575 53.7115Z" fill="#C8C6CC"/>
<path d="M29.3725 52.7518C28.8907 52.7518 28.5 52.3611 28.5 51.8794C28.5 51.3975 28.8907 51.0069 29.3725 51.0069C29.8543 51.0069 30.2449 51.3975 30.2449 51.8794C30.2449 52.3611 29.8543 52.7518 29.3725 52.7518Z" fill="#164662"/>
<path d="M37.6606 52.7518C37.1787 52.7518 36.7881 52.3611 36.7881 51.8793C36.7881 51.3975 37.1787 51.0069 37.6606 51.0069C38.1424 51.0069 38.533 51.3975 38.533 51.8793C38.533 52.3611 38.1424 52.7518 37.6606 52.7518Z" fill="#164662"/>
<path d="M38.7287 47.9991C38.668 47.9688 38.6013 47.9533 38.5335 47.9533C37.7815 47.9656 37.0396 48.1297 36.3524 48.4353V48.3895C36.3524 48.2383 36.2742 48.098 36.1456 48.0183C36.0171 47.9388 35.8566 47.9316 35.7213 47.9991C34.9915 48.362 34.3216 48.8345 33.7351 49.4002C33.1484 48.8345 32.4785 48.362 31.749 47.9991C31.6138 47.9316 31.4531 47.9388 31.3245 48.0183C31.1958 48.098 31.1177 48.2383 31.1177 48.3895V48.4353C30.4306 48.1297 29.6886 47.9656 28.9365 47.9533C28.8688 47.9533 28.8022 47.9688 28.7416 47.9991C28.1037 48.3425 27.5808 48.8654 27.2375 49.5034C27.1298 49.7188 27.2172 49.9809 27.433 50.0887C27.6485 50.1964 27.9107 50.1089 28.0183 49.8931C28.2592 49.4524 28.6143 49.0845 29.0465 48.8283C29.5556 48.8483 30.6798 49.0051 31.2455 49.57C31.3703 49.6946 31.5577 49.7319 31.7207 49.6645C31.8836 49.5972 31.99 49.4383 31.9901 49.262V49.1363C32.5258 49.4269 32.9889 49.8347 33.3446 50.3294C33.3581 50.353 33.3736 50.3752 33.3909 50.3958C33.3966 50.4052 33.4029 50.4141 33.4096 50.4229C33.4437 50.4608 33.4842 50.4923 33.5291 50.5162C33.5336 50.5162 33.5357 50.5227 33.5402 50.5249C33.5444 50.5271 33.5527 50.5249 33.5593 50.5292C33.6143 50.5553 33.6742 50.5694 33.7351 50.5707C33.7955 50.5694 33.855 50.5556 33.9095 50.5296C33.9161 50.5271 33.9227 50.5296 33.9287 50.5253C33.9349 50.5211 33.9353 50.5187 33.9397 50.5166C33.9847 50.4927 34.0252 50.4612 34.0593 50.4233C34.0667 50.415 34.071 50.4054 34.078 50.3967C34.0953 50.3757 34.1108 50.3534 34.1242 50.33C34.4805 49.8351 34.944 49.4273 35.48 49.1367V49.262C35.48 49.4383 35.5863 49.5975 35.7492 49.665C35.9123 49.7325 36.0998 49.6951 36.2246 49.5704C36.8436 48.9515 38.0568 48.8466 38.4253 48.8287C38.8564 49.0854 39.2109 49.4528 39.4518 49.8927C39.5596 50.1085 39.8216 50.196 40.0373 50.0882C40.2529 49.9805 40.3404 49.7184 40.2327 49.5027C39.8893 48.8652 39.3664 48.3423 38.7287 47.9991Z" fill="#D8D8DA"/>
<path d="M26.2133 55.3821C26.1368 55.4011 24.3399 55.8586 23.393 56.8056C23.2796 56.9151 23.234 57.0774 23.2741 57.2299C23.3139 57.3825 23.4329 57.5015 23.5855 57.5413C23.738 57.5814 23.9003 57.5358 24.0098 57.4225C24.7849 56.6478 26.409 56.2324 26.4248 56.2286C26.6546 56.1668 26.7927 55.9324 26.7349 55.7014C26.6772 55.4705 26.4451 55.3284 26.2133 55.3821Z" fill="#D8D8DA"/>
<path d="M44.0759 56.8056C43.1288 55.8586 41.3319 55.4011 41.2557 55.3821C41.0237 55.3284 40.7916 55.4705 40.7338 55.7014C40.6761 55.9324 40.8141 56.1668 41.0439 56.2286C41.0601 56.2324 42.6839 56.6478 43.459 57.4225C43.6302 57.5877 43.9022 57.5854 44.0705 57.4171C44.2388 57.2489 44.2412 56.9769 44.0759 56.8056Z" fill="#D8D8DA"/>
<path d="M24.1252 46.3034C23.9346 46.3035 23.7661 46.1798 23.709 45.9981C23.2146 44.5141 22.9188 42.9714 22.8291 41.4099C22.8295 41.3114 22.8385 41.2134 22.8561 41.1167C22.9058 40.8876 23.1277 40.7386 23.3584 40.7795C23.5893 40.8203 23.7467 41.0362 23.7147 41.2684C23.7062 41.3151 23.702 41.3623 23.7016 41.4099C23.7797 42.884 24.0624 44.3401 24.5414 45.7363C24.6136 45.9662 24.4858 46.2111 24.256 46.2833C24.2136 46.2965 24.1695 46.3034 24.1252 46.3034Z" fill="#F5F5F5"/>
<path d="M37.5402 61.1007C37.3808 60.9734 37.1546 60.9734 36.9953 61.1007C36.6893 61.3459 36.308 61.4786 35.9156 61.4763C34.4325 61.4763 34.1707 61.2477 34.1707 60.6038C34.1707 60.3629 33.9754 60.1676 33.7345 60.1676C33.4936 60.1676 33.2982 60.3629 33.2982 60.6038C33.2982 61.2477 33.0364 61.4763 31.5534 61.4763C31.161 61.4786 30.7799 61.3459 30.4737 61.1007C30.3145 60.9732 30.0883 60.9729 29.9288 61.1001C29.7695 61.2273 29.7194 61.4482 29.8084 61.6315C29.9859 61.9975 30.214 62.3368 30.486 62.6393C30.6439 62.8176 30.818 62.9809 31.0064 63.127C31.7152 63.7061 32.5911 64.0425 33.5055 64.0866C33.5797 64.0915 33.6542 64.0919 33.7341 64.0919C33.814 64.0919 33.8885 64.0919 33.9571 64.087C34.8721 64.0457 35.7497 63.7117 36.4605 63.1338C36.6481 62.986 36.8222 62.8218 36.9808 62.6431C37.2539 62.3395 37.4827 61.9992 37.6606 61.6315C37.7494 61.4482 37.6993 61.2279 37.5402 61.1007Z" fill="#C8C6CC"/>
<path d="M43.3447 46.3034C43.3001 46.3034 43.2561 46.2965 43.2137 46.2833C42.9839 46.2111 42.8561 45.9662 42.9284 45.7363C43.4073 44.3401 43.6899 42.884 43.7681 41.4099C43.7679 41.3623 43.7635 41.3151 43.7551 41.2684C43.7232 41.0362 43.8804 40.8203 44.1113 40.7795C44.3422 40.7386 44.5639 40.8876 44.6135 41.1167C44.6312 41.2134 44.6404 41.3114 44.6406 41.4099C44.5509 42.9714 44.2551 44.5141 43.7607 45.9981C43.7036 46.1798 43.5351 46.3035 43.3447 46.3034Z" fill="#F5F5F5"/>
<path d="M36.9828 54.9766C36.7671 54.8688 36.505 54.9563 36.3972 55.1719C36.2897 55.3877 36.377 55.6496 36.5928 55.7574C37.3008 56.1133 37.6602 56.4872 37.6602 57.5503V59.7314C37.6627 60.2648 37.4182 60.7694 36.998 61.098C36.6914 61.3451 36.3089 61.4786 35.9153 61.4764C34.4321 61.4764 34.1703 61.2478 34.1703 60.6039C34.1703 60.3629 33.975 60.1676 33.7341 60.1676C33.4932 60.1676 33.2978 60.3629 33.2978 60.6039C33.2978 61.2478 33.0361 61.4764 31.553 61.4764C31.1606 61.4786 30.7795 61.346 30.4733 61.1008C30.0513 60.7721 29.8055 60.2663 29.808 59.7314V57.5503C29.808 56.4872 30.1676 56.1133 30.8756 55.7617C31.0912 55.6541 31.1787 55.3919 31.0709 55.1763C30.9634 54.9606 30.7012 54.8732 30.4856 54.9809C29.3846 55.5293 28.9356 56.2744 28.9356 57.5503V59.7314C28.9319 60.5313 29.2977 61.2879 29.9267 61.7817H29.9288C30.3906 62.1489 30.9631 62.3488 31.553 62.3488C32.1772 62.3488 33.1671 62.3488 33.7341 61.7935C34.3014 62.3488 35.2909 62.3488 35.9153 62.3488C36.5029 62.349 37.0735 62.1507 37.5345 61.786H37.5368C38.1688 61.2923 38.5365 60.5335 38.5326 59.7314V57.5503C38.5326 56.2744 38.0838 55.5293 36.9828 54.9766Z" fill="#D8D8DA"/>
<path d="M35.4791 59.2952C35.4791 60.2588 34.6978 61.0401 33.7342 61.0401C32.7706 61.0401 31.9893 60.2588 31.9893 59.2952C31.9893 58.3316 32.7706 57.5503 33.7342 57.5503C34.6978 57.5503 35.4791 58.3316 35.4791 59.2952Z" fill="#164662"/>
</g>
<defs>
<clipPath id="clip0_1427_1217">
<rect width="70" height="70" fill="white"/>
</clipPath>
</defs>
</svg>
