<svg width="75" height="70" viewBox="0 0 75 70" fill="none" xmlns="http://www.w3.org/2000/svg">
<path d="M39.2465 17.7616C38.8347 17.4893 38.3092 17.4252 37.8378 17.5896L36.2558 18.1419L36.9376 16.3581C37.0557 16.0493 37.0614 15.7108 36.9512 15.3988L35.575 11.4789C35.4073 11.0025 34.9944 10.6415 34.4802 10.5229C33.9672 10.4044 33.4248 10.5442 33.0455 10.8947L24.0528 19.2004L19.6071 20.4789C19.4283 20.5301 19.2618 20.6124 19.1143 20.7203C18.9906 20.8111 16.028 22.9858 12.2901 26.2735C7.24475 30.7115 3.40436 34.8536 0.873778 38.5845C0.570021 39.0331 0.54856 39.6057 0.817462 40.0735C1.08636 40.5414 1.604 40.8319 2.16543 40.8319H5.36547C3.96579 43.0535 2.24522 46.6553 2.16658 51.0174C2.1565 51.5772 2.48618 52.094 3.01506 52.3461L5.28797 53.4249C5.47133 55.3797 6.32773 59.9898 10.2996 63.7409C10.7565 64.1724 11.4485 64.2878 12.0324 64.0314L14.9511 62.741C15.4733 63.4823 16.2215 64.5226 17.0317 65.5738C19.8828 69.2758 21.0622 70 22.1377 70C23.3732 70 24.5863 69.0088 26.4642 66.4625C26.8885 65.8856 27.2835 65.3132 27.6109 64.8218L30.4452 66.8C31.037 67.2124 31.8528 67.1718 32.3941 66.6997C35.4007 64.0806 35.9688 60.4299 36.0194 58.332H37.5002C38.3307 58.332 39.0113 57.7083 39.0362 56.9179C39.2454 50.2741 35.2272 40.8747 34.4297 39.0802L34.5005 28.2218L39.6224 21.3442C39.8048 21.0985 39.9038 20.8037 39.9038 20.5025V18.9581C39.9038 18.4816 39.6583 18.0351 39.2465 17.7616Z" fill="#C8C6CC"/>
<path d="M34.4294 39.0801C34.4294 39.0801 28.6695 42.9595 26.7352 42.9253C24.7997 42.8953 15.1344 38.3282 14.9871 39.1207C14.8397 39.9133 24.2014 45.8435 26.7352 45.8435C29.2681 45.8435 34.5531 39.36 34.4294 39.0801Z" fill="#B3B2B6"/>
<path d="M59.0071 0C50.5365 0 43.6436 6.54227 43.6436 14.583C43.6436 22.6247 50.5365 29.167 59.0071 29.167C67.4778 29.167 74.3706 22.6247 74.3706 14.583C74.3706 6.54213 67.4778 0 59.0071 0Z" fill="#245E7E"/>
<path d="M68.2246 13.125C67.3761 13.125 66.6875 13.7776 66.6875 14.583C66.6875 15.3883 67.3761 16.042 68.2246 16.042C69.0731 16.042 69.7617 15.3883 69.7617 14.583C69.7617 13.7776 69.0731 13.125 68.2246 13.125Z" fill="#164662"/>
<path d="M59.0078 18.9581C58.1593 18.9581 57.4707 19.6117 57.4707 20.417C57.4707 21.2225 58.1593 21.875 59.0078 21.875C59.8562 21.875 60.5449 21.2225 60.5449 20.417C60.5449 19.6117 59.8562 18.9581 59.0078 18.9581Z" fill="#164662"/>
<path d="M59.0078 10.2078C59.0078 7.79608 56.9397 5.83289 54.3989 5.83289C51.8581 5.83289 49.79 7.79608 49.79 10.2078C49.79 12.6207 51.8581 14.5829 54.3989 14.5829C56.9397 14.5829 59.0078 12.6207 59.0078 10.2078Z" fill="#164662"/>
<path d="M5.19704 40.8317L4.16406 42.9956L10.7342 36.3928L5.19704 40.8317Z" fill="#AAB2BC"/>
<path d="M20.5911 20.1692L19.0381 26.1688L24.0521 19.2004L20.5911 20.1692Z" fill="#B3B2B6"/>
<path d="M36.2557 18.142L36.7722 16.7908L33.958 20.0743L37.8377 17.5898L36.2557 18.142Z" fill="#AAB2BC"/>
</svg>
