<svg width="70" height="70" viewBox="0 0 70 70" fill="none" xmlns="http://www.w3.org/2000/svg">
<g clip-path="url(#clip0_1427_1317)">
<path d="M70 35C70 54.3358 54.3369 70 35 70C15.6631 70 0 54.3358 0 35C0 15.6631 15.6631 0 35 0C54.3369 0 70 15.6631 70 35Z" fill="#C7CFE2" fill-opacity="0.25"/>
<path d="M64.3552 35C64.3552 51.205 51.2153 64.3548 35.0003 64.3548C18.7854 64.3548 5.64551 51.205 5.64551 35C5.64551 18.7961 18.7854 5.64514 35.0003 5.64514C51.2153 5.64514 64.3552 18.7961 64.3552 35Z" fill="#C7CFE2" fill-opacity="0.5"/>
<path d="M58.7094 35C58.7094 48.0842 48.0999 58.7097 34.9997 58.7097C21.8995 58.7097 11.29 48.0842 11.29 35C11.29 21.9169 21.8995 11.2903 34.9997 11.2903C48.0999 11.2903 58.7094 21.9169 58.7094 35Z" fill="#C7CFE2"/>
<path d="M44.5968 62.6613L42.3388 64.9194H27.6614L25.4033 62.6613V54.7581H44.5968V62.6613Z" fill="#164662"/>
<path d="M53.6291 35C53.6291 24.7114 45.2876 16.371 35.0001 16.371C24.7126 16.371 16.3711 24.7114 16.3711 35C16.3711 41.7742 19.9974 47.6834 25.4033 50.9454V54.7581H44.5969V50.9454C50.0028 47.6834 53.6291 41.7742 53.6291 35Z" fill="#205675" fill-opacity="0.75"/>
<path d="M29.9189 64.9194C29.9189 64.9194 31.0479 67.1774 34.9995 67.1774C38.9511 67.1774 40.0802 64.9194 40.0802 64.9194H29.9189Z" fill="#656D78"/>
<path d="M24.8388 58.7097C24.5405 58.7097 24.2925 58.4759 24.2754 58.1755C24.2572 57.8651 24.4953 57.5977 24.8085 57.5806L45.1299 56.4516C45.4298 56.4235 45.7066 56.6738 45.7237 56.9858C45.7407 57.2973 45.5037 57.5636 45.1906 57.5784L24.8691 58.7075C24.8603 58.7097 24.8487 58.7097 24.8388 58.7097Z" fill="#205675"/>
<path d="M24.8388 62.0968C24.5405 62.0968 24.2925 61.863 24.2754 61.5626C24.2572 61.2522 24.4953 60.9848 24.8085 60.9677L45.1299 59.8387C45.4298 59.8062 45.7066 60.0609 45.7237 60.3729C45.7407 60.6844 45.5037 60.9506 45.1906 60.9655L24.8691 62.0946C24.8603 62.0968 24.8487 62.0968 24.8388 62.0968Z" fill="#205675"/>
<path d="M44.0323 29.9193C45.2853 29.9193 46.2903 30.9254 46.2903 32.1774C46.2903 33.4294 45.2853 34.4355 44.0323 34.4355C44.9694 34.4355 45.7258 35.1918 45.7258 36.129C45.7258 36.8292 45.3079 37.4174 44.7098 37.687C45.4998 39.1887 45.2627 41.063 44.0108 42.3172C43.0736 43.2417 41.8089 43.6144 40.6 43.4225H40.5889C40.4985 43.9633 40.2378 44.4838 39.8199 44.9016C38.7146 46.0081 36.9295 46.0081 35.8242 44.9016C35.2933 44.3597 35.011 43.6596 35 42.9484V25.4032C35 24.1513 36.005 23.1452 37.2581 23.1452C38.5111 23.1452 39.5161 24.1513 39.5161 25.4032C39.5161 25.718 39.4483 26.0129 39.3353 26.2825C39.832 25.8437 40.488 25.584 41.2097 25.584C42.7792 25.584 44.0323 26.836 44.0323 28.4066C44.0323 28.9822 43.863 29.5241 43.5582 29.9646C43.7164 29.942 43.874 29.9193 44.0323 29.9193Z" fill="#9EAFC6"/>
<path d="M35.0003 37.8226V42.9484C34.9893 43.6596 34.718 44.3597 34.1761 44.9005C33.0708 46.007 31.2857 46.007 30.1804 44.9005C29.7625 44.4838 29.5018 43.9633 29.4113 43.4214H29.4003C28.2035 43.6133 26.9278 43.2406 26.0016 42.3161C24.7486 41.063 24.5115 39.1876 25.2905 37.6859C24.6923 37.4163 24.2745 36.8281 24.2745 36.1279C24.2745 35.1907 25.0308 34.4344 25.968 34.4344C24.7149 34.4344 23.71 33.4283 23.71 32.1763C23.71 30.9243 24.7149 29.9182 25.968 29.9182C26.1373 29.9182 26.2955 29.9409 26.4421 29.9635C26.1373 29.5241 25.968 28.9822 25.968 28.4066C25.968 26.836 27.2327 25.584 28.7906 25.584C29.5133 25.584 30.1683 25.8437 30.665 26.2825C30.552 26.0129 30.4841 25.718 30.4841 25.4032C30.4841 24.1513 31.4891 23.1452 32.7422 23.1452C33.9953 23.1452 35.0003 24.1513 35.0003 25.4032V37.8226Z" fill="#9EAFC6"/>
<path d="M46.2907 36.129C46.2907 35.4978 46.0288 34.9278 45.6088 34.5165C46.3596 34.0099 46.8552 33.1504 46.8552 32.1774C46.8552 30.7639 45.8089 29.6024 44.4516 29.3967C44.5475 29.0814 44.5972 28.7484 44.5972 28.4066C44.5972 26.5389 43.0773 25.0195 41.2101 25.0195C40.8126 25.0195 40.4278 25.0906 40.0617 25.2202C39.9658 23.7505 38.7524 22.5806 37.2584 22.5806C36.3317 22.5806 35.5153 23.0344 35.0004 23.7268C34.4855 23.0344 33.669 22.5806 32.7423 22.5806C31.2483 22.5806 30.035 23.7505 29.939 25.2202C29.5741 25.0917 29.1882 25.0195 28.7907 25.0195C26.9235 25.0195 25.4036 26.5389 25.4036 28.4066C25.4036 28.7495 25.4532 29.0825 25.5491 29.3967C24.1919 29.6024 23.1455 30.7639 23.1455 32.1774C23.1455 33.1504 23.64 34.0099 24.392 34.5165C23.9719 34.9278 23.7101 35.4978 23.7101 36.129C23.7101 36.8314 24.0474 37.4758 24.5894 37.9025C23.9537 39.5613 24.3253 41.4379 25.6021 42.7158C26.4527 43.5659 27.6054 44.0356 28.7863 44.0356C28.8519 44.0356 28.9158 44.0234 28.9803 44.0196C29.143 44.4975 29.4126 44.9342 29.7797 45.3002C30.4209 45.9414 31.2726 46.2958 32.1767 46.2958C33.0808 46.2958 33.9325 45.9425 34.5737 45.3002C34.7363 45.1387 34.8774 44.9617 35.0004 44.7754C35.1233 44.9601 35.2644 45.1365 35.4249 45.3002C36.066 45.9414 36.9177 46.2958 37.8219 46.2958C38.726 46.2958 39.5777 45.9425 40.2188 45.3013C40.5882 44.932 40.86 44.4931 41.0204 44.0196C41.0904 44.0234 41.1604 44.0367 41.2294 44.0367C42.4102 44.0367 43.5392 43.5752 44.4086 42.7158C45.6937 41.4296 46.0592 39.5453 45.4136 37.9003C45.9544 37.4736 46.2907 36.8303 46.2907 36.129ZM30.5791 44.5009C30.2527 44.1767 30.0416 43.7715 29.9649 43.3084C29.8161 42.5862 30.0449 41.8365 30.5791 41.3045C30.799 41.0856 30.799 40.7262 30.5791 40.5062C30.3591 40.2863 30.0008 40.2863 29.7808 40.5062C29.1353 41.1523 28.8034 42.0123 28.8067 42.8839C27.9114 42.8905 27.0442 42.5598 26.4014 41.9175C25.3496 40.8651 25.1054 39.2703 25.7934 37.9444C25.951 37.6385 26.1545 37.3595 26.4014 37.1147C27.7201 35.7994 29.869 35.8016 31.1921 37.1258C31.4121 37.3463 31.7704 37.3463 31.9904 37.1258C32.2103 36.9058 32.2103 36.548 31.9904 36.3275C30.2268 34.5667 27.3623 34.5606 25.6048 36.3154C25.4306 36.4879 25.2752 36.6754 25.1324 36.8733C24.9521 36.6698 24.8391 36.4135 24.8391 36.129C24.8391 35.5061 25.3452 35 25.9681 35C26.2796 35 26.5326 34.747 26.5326 34.4355C26.5326 34.124 26.2796 33.871 25.9681 33.871C25.0342 33.871 24.2746 33.1113 24.2746 32.1774C24.2746 31.2435 25.0342 30.4839 25.9681 30.4839C26.0392 30.4839 26.0993 30.4965 26.1655 30.5043C26.8022 31.3058 27.7532 31.7948 28.7907 31.7948C29.1022 31.7948 29.3552 31.5418 29.3552 31.2303C29.3552 30.9183 29.1022 30.6658 28.7907 30.6658C28.031 30.6658 27.3298 30.2876 26.9064 29.6448C26.6611 29.2914 26.5326 28.8636 26.5326 28.4077C26.5326 27.1624 27.5453 26.1497 28.7907 26.1497C29.3326 26.1497 29.8486 26.3393 30.2494 26.6767C30.7246 27.6161 31.6706 28.2258 32.7423 28.2258C33.0538 28.2258 33.3068 27.9728 33.3068 27.6613C33.3068 27.3498 33.0538 27.0968 32.7423 27.0968C32.0582 27.0968 31.4473 26.6927 31.1855 26.0648C31.0951 25.8492 31.0488 25.6254 31.0488 25.4032C31.0488 24.4693 31.8084 23.7097 32.7423 23.7097C33.6762 23.7097 34.4359 24.4693 34.4359 25.4032V29.9194C34.4359 29.9894 34.4111 31.6129 32.1778 31.6129C31.8663 31.6129 31.6133 31.8659 31.6133 32.1774C31.6133 32.4889 31.8663 32.7419 32.1778 32.7419C33.1894 32.7419 33.9188 32.479 34.4359 32.0986V37.6688C34.2947 37.8849 33.905 38.3871 33.3068 38.3871C32.9954 38.3871 32.7423 38.6401 32.7423 38.9516C32.7423 39.2631 32.9954 39.5161 33.3068 39.5161C33.7561 39.5161 34.1277 39.3783 34.4359 39.1953V42.9396C34.427 43.5311 34.1922 44.0863 33.7765 44.502C32.9182 45.3598 31.4374 45.3609 30.5791 44.5009ZM43.6137 41.9153C42.9521 42.5669 42.0872 42.8944 41.193 42.885C41.1963 42.0057 40.8633 41.1485 40.2199 40.5062C40 40.2863 39.6417 40.2863 39.4217 40.5062C39.2017 40.7262 39.2017 41.0856 39.4217 41.3045C39.9559 41.8376 40.1847 42.5873 40.0325 43.3299C39.9592 43.7726 39.748 44.1767 39.4217 44.502C38.5633 45.3598 37.0787 45.3564 36.2275 44.5053C35.8097 44.0797 35.5737 43.5229 35.5649 42.9396V39.1953C35.8731 39.3783 36.2446 39.5161 36.6939 39.5161C37.0054 39.5161 37.2584 39.2631 37.2584 38.9516C37.2584 38.6401 37.0054 38.3871 36.6939 38.3871C36.093 38.3871 35.7038 37.8827 35.5649 37.6655V32.0986C36.082 32.479 36.8114 32.7419 37.823 32.7419C38.1344 32.7419 38.3875 32.4889 38.3875 32.1774C38.3875 31.8659 38.1344 31.6129 37.823 31.6129C35.663 31.6129 35.5682 30.0941 35.5649 29.9149V25.4032C35.5649 24.4693 36.3246 23.7097 37.2584 23.7097C38.1923 23.7097 38.952 24.4693 38.952 25.4032C38.952 25.6254 38.9057 25.8492 38.8142 26.0659C38.5534 26.6927 37.9426 27.0968 37.2584 27.0968C36.947 27.0968 36.6939 27.3498 36.6939 27.6613C36.6939 27.9728 36.947 28.2258 37.2584 28.2258C38.3301 28.2258 39.2761 27.6161 39.7503 26.6767C40.1521 26.3382 40.6681 26.1486 41.2101 26.1486C42.4758 26.1486 43.4681 27.1409 43.4681 28.4066C43.4681 28.8614 43.3397 29.2892 43.0866 29.6542C42.671 30.2865 41.9697 30.6647 41.2101 30.6647C40.8986 30.6647 40.6455 30.9172 40.6455 31.2292C40.6455 31.5407 40.8986 31.7937 41.2101 31.7937C42.252 31.7937 43.2063 31.3025 43.8364 30.5032C43.9014 30.4965 43.967 30.4839 44.0326 30.4839C44.9665 30.4839 45.7262 31.2435 45.7262 32.1774C45.7262 33.1113 44.9665 33.871 44.0326 33.871C43.7212 33.871 43.4681 34.124 43.4681 34.4355C43.4681 34.747 43.7212 35 44.0326 35C44.6556 35 45.1617 35.5061 45.1617 36.129C45.1617 36.4091 45.0509 36.6632 44.875 36.865C44.7383 36.6731 44.5834 36.489 44.4097 36.3165C42.6517 34.5584 39.7861 34.5656 38.0225 36.3275C37.8026 36.548 37.8026 36.9058 38.0225 37.1258C38.243 37.3463 38.6008 37.3463 38.8208 37.1258C40.1433 35.8027 42.2917 35.7972 43.6115 37.1147C43.8623 37.3656 44.0597 37.6407 44.2102 37.9499C44.9042 39.2686 44.665 40.8629 43.6137 41.9153Z" fill="white"/>
</g>
<defs>
<clipPath id="clip0_1427_1317">
<rect width="70" height="70" fill="white"/>
</clipPath>
</defs>
</svg>
