<svg width="21" height="25" viewBox="0 0 21 25" fill="none" xmlns="http://www.w3.org/2000/svg">
<path d="M10.5 12.2266C13.2796 12.2266 15.5331 9.48964 15.5331 6.11336C15.5331 2.737 14.7932 0 10.5 0C6.2068 0 5.4668 2.737 5.4668 6.11336C5.4668 9.48964 7.7203 12.2266 10.5 12.2266Z" fill="#666666"/>
<path d="M0.993178 21.5609C0.99232 21.3551 0.991462 21.5029 0.993178 21.5609V21.5609Z" fill="#666666"/>
<path d="M20.0059 21.7217C20.0086 21.6653 20.0068 21.3307 20.0059 21.7217V21.7217Z" fill="#666666"/>
<path d="M19.9951 21.3141C19.9019 15.4325 19.1337 13.7566 13.2557 12.6957C13.2557 12.6957 12.4282 13.7501 10.4997 13.7501C8.57109 13.7501 7.74352 12.6957 7.74352 12.6957C1.92959 13.745 1.11474 15.3961 1.00759 21.123C0.998807 21.5906 0.994735 21.6152 0.993164 21.5609C0.993521 21.6626 0.99395 21.8508 0.99395 22.1789C0.99395 22.1789 2.39338 25 10.4997 25C18.6058 25 20.0054 22.1789 20.0054 22.1789C20.0054 21.9681 20.0055 21.8215 20.0057 21.7218C20.0042 21.7554 20.001 21.6903 19.9951 21.3141Z" fill="#666666"/>
</svg>
