<svg width="25" height="25" viewBox="0 0 25 25" fill="none" xmlns="http://www.w3.org/2000/svg">
<path d="M24.4395 19.7573L20.5787 15.8961C19.8097 15.1301 18.5362 15.1534 17.7404 15.9495L15.7952 17.8942C15.6723 17.8264 15.5452 17.7557 15.4114 17.6806C14.1831 17 12.5019 16.0672 10.7329 14.2968C8.95853 12.5227 8.02483 10.839 7.34215 9.60987C7.27011 9.47966 7.20109 9.35411 7.13293 9.23488L8.43839 7.93136L9.0802 7.28876C9.87722 6.49152 9.8992 5.21839 9.13198 4.45024L5.27113 0.588519C4.50391 -0.178553 3.22984 -0.155282 2.43282 0.641956L1.3447 1.73633L1.37443 1.76584C1.00957 2.2314 0.704682 2.76835 0.477793 3.34739C0.268644 3.89856 0.138428 4.42452 0.0788868 4.95156C-0.430914 9.17793 1.50041 13.0405 6.74178 18.2819C13.9869 25.5266 19.8256 24.9793 20.0775 24.9526C20.6261 24.887 21.1518 24.7559 21.6861 24.5485C22.2601 24.3242 22.7967 24.0198 23.262 23.6557L23.2858 23.6768L24.3881 22.5974C25.1835 21.8003 25.2064 20.5267 24.4395 19.7573Z" fill="#666666"/>
</svg>
