<svg width="25" height="25" viewBox="0 0 25 25" fill="none" xmlns="http://www.w3.org/2000/svg">
<path d="M13.75 14.1667H15.4167V15.8333H13.75V14.1667Z" fill="black"/>
<path d="M1.25 9.16667H23.75V10.8333H1.25V9.16667Z" fill="black"/>
<path d="M9.58301 14.1667H11.2497V15.8333H9.58301V14.1667Z" fill="black"/>
<path d="M3.33301 7.5H21.6663V8.33333H3.33301V7.5Z" fill="black"/>
<path d="M5.41699 14.1667H7.08366V15.8333H5.41699V14.1667Z" fill="black"/>
<path d="M9.16699 20.8333H15.8337V21.6667H9.16699V20.8333Z" fill="black"/>
<path d="M9.16699 19.1667H15.8337V20H9.16699V19.1667Z" fill="black"/>
<path d="M17.917 14.1667H19.5837V15.8333H17.917V14.1667Z" fill="black"/>
<path d="M22.5 23.3333V11.6667H2.5V23.3333H0V24.1667H25V23.3333H22.5ZM17.0833 13.75C17.0833 13.5199 17.2699 13.3333 17.5 13.3333H20C20.2301 13.3333 20.4167 13.5199 20.4167 13.75V16.25C20.4167 16.4801 20.2301 16.6667 20 16.6667H17.5C17.2699 16.6667 17.0833 16.4801 17.0833 16.25V13.75ZM12.9167 13.75C12.9167 13.5199 13.1032 13.3333 13.3333 13.3333H15.8333C16.0634 13.3333 16.25 13.5199 16.25 13.75V16.25C16.25 16.4801 16.0634 16.6667 15.8333 16.6667H13.3333C13.1032 16.6667 12.9167 16.4801 12.9167 16.25V13.75ZM8.75 13.75C8.75 13.5199 8.93656 13.3333 9.16667 13.3333H11.6667C11.8968 13.3333 12.0833 13.5199 12.0833 13.75V16.25C12.0833 16.4801 11.8968 16.6667 11.6667 16.6667H9.16667C8.93656 16.6667 8.75 16.4801 8.75 16.25V13.75ZM4.58333 13.75C4.58333 13.5199 4.7699 13.3333 5 13.3333H7.5C7.7301 13.3333 7.91667 13.5199 7.91667 13.75V16.25C7.91667 16.4801 7.7301 16.6667 7.5 16.6667H5C4.7699 16.6667 4.58333 16.4801 4.58333 16.25V13.75ZM15.8333 23.3333V22.5H9.16667V23.3333H8.33333V18.75C8.33333 18.5199 8.5199 18.3333 8.75 18.3333H16.25C16.4801 18.3333 16.6667 18.5199 16.6667 18.75V23.3333H15.8333Z" fill="#666666"/>
</svg>
