<svg width="25" height="21" viewBox="0 0 25 21" fill="none" xmlns="http://www.w3.org/2000/svg">
<path d="M2.39951 6.73338C2.71575 6.95654 3.66904 7.61933 5.25941 8.7214C6.84983 9.82347 8.0682 10.672 8.91457 11.2672C9.00756 11.3324 9.20511 11.4742 9.50733 11.6928C9.80961 11.9115 10.0608 12.0882 10.2606 12.223C10.4606 12.3578 10.7024 12.509 10.9862 12.6763C11.2699 12.8435 11.5373 12.9693 11.7884 13.0526C12.0396 13.1365 12.2721 13.1781 12.486 13.1781H12.5H12.5141C12.728 13.1781 12.9605 13.1365 13.2117 13.0526C13.4627 12.9693 13.7304 12.8434 14.0139 12.6763C14.2975 12.5088 14.5392 12.3577 14.7392 12.223C14.9392 12.0882 15.1902 11.9115 15.4926 11.6928C15.7947 11.474 15.9925 11.3324 16.0855 11.2672C16.941 10.672 19.1176 9.16064 22.6145 6.73309C23.2934 6.25896 23.8606 5.68686 24.3162 5.01718C24.7722 4.3478 25 3.64558 25 2.91091C25 2.29699 24.779 1.77146 24.3372 1.33437C23.8954 0.897185 23.3722 0.678715 22.7678 0.678715H2.23205C1.51595 0.678715 0.964865 0.920493 0.57889 1.40405C0.192963 1.8877 0 2.49225 0 3.21763C0 3.80355 0.255851 4.43849 0.767309 5.12205C1.27872 5.80565 1.82296 6.34281 2.39951 6.73338Z" fill="#666666"/>
<path d="M23.6047 8.22597C20.5544 10.2905 18.2383 11.895 16.6574 13.0391C16.1273 13.4296 15.6972 13.7344 15.367 13.9528C15.0367 14.1714 14.5975 14.3946 14.0486 14.6223C13.5 14.8504 12.9887 14.9641 12.5143 14.9641H12.5H12.486C12.0117 14.9641 11.5001 14.8504 10.9514 14.6223C10.4028 14.3946 9.96327 14.1714 9.6331 13.9528C9.30303 13.7344 8.87283 13.4296 8.34275 13.0391C7.0871 12.1184 4.77594 10.5138 1.40918 8.22597C0.878913 7.87278 0.409234 7.46795 0 7.01229V18.089C0 18.7032 0.21847 19.2284 0.655654 19.6656C1.09274 20.1029 1.61832 20.3214 2.23219 20.3214H22.768C23.3817 20.3214 23.9072 20.1029 24.3444 19.6656C24.7816 19.2283 25 18.7033 25 18.089V7.01229C24.6 7.45852 24.1351 7.86335 23.6047 8.22597Z" fill="#666666"/>
</svg>
