<svg width="387" height="236" viewBox="0 0 387 236" fill="none" xmlns="http://www.w3.org/2000/svg">
<g filter="url(#filter0_d_1802_849)">
<path d="M100.75 222.738C100.75 224.038 100.5 225.146 99.9824 226.044C99.4645 226.962 98.8123 227.707 98.0066 228.28C97.201 228.873 96.261 229.293 95.206 229.58C94.1509 229.866 93.0959 230 92.0217 230H63.0752C62.0585 230 61.0226 229.847 59.9868 229.541C58.9509 229.236 58.011 228.777 57.1861 228.146C56.3613 227.516 55.6899 226.751 55.1911 225.834C54.6924 224.917 54.4238 223.885 54.4238 222.719V215.974H65.6648V220.636H89.4896V198.833H81.7398V189.488H100.75V222.738Z" fill="#666666"/>
<path d="M117.4 189.507V220.655H141.225V189.507H152.466V222.719C152.466 223.885 152.197 224.917 151.679 225.834C151.142 226.751 150.471 227.516 149.646 228.146C148.821 228.777 147.9 229.235 146.884 229.541C145.867 229.847 144.85 230 143.834 230H114.868C113.775 230 112.701 229.866 111.684 229.579C110.667 229.293 109.746 228.872 108.922 228.28C108.097 227.688 107.444 226.942 106.946 226.044C106.466 225.127 106.217 224.038 106.217 222.738V189.507H117.4Z" fill="#666666"/>
<path d="M192.385 230L169.25 205.731V230H157.933V189.507H169.749L192.998 213.891V189.507H204.182V229.981H192.385V230Z" fill="#666666"/>
<path d="M220.929 189.507V229.981H209.745V189.507H220.929Z" fill="#666666"/>
<path d="M226.376 196.788C226.376 195.489 226.625 194.38 227.105 193.482C227.584 192.565 228.256 191.82 229.081 191.246C229.906 190.673 230.826 190.233 231.843 189.947C232.86 189.66 233.915 189.526 235.027 189.526H264.012C265.029 189.526 266.046 189.679 267.062 189.985C268.079 190.291 269 190.749 269.825 191.38C270.649 192.011 271.321 192.775 271.858 193.692C272.395 194.61 272.644 195.641 272.644 196.807V222.758C272.644 223.923 272.376 224.955 271.858 225.872C271.321 226.79 270.649 227.554 269.825 228.185C269 228.815 268.079 229.274 267.062 229.58C266.046 229.885 265.029 230.038 264.012 230.038H235.027C233.934 230.038 232.86 229.904 231.843 229.618C230.826 229.331 229.906 228.911 229.081 228.318C228.256 227.726 227.604 226.981 227.105 226.083C226.625 225.165 226.376 224.076 226.376 222.777V196.788ZM261.403 220.656V198.852H237.579V220.656H261.403Z" fill="#666666"/>
<path d="M310.147 206.381C310.742 206.209 311.087 205.941 311.164 205.597V199.368C311.087 199.158 310.934 198.986 310.742 198.89C310.55 198.775 310.358 198.68 310.147 198.603H278.112V189.526H317.264C317.859 189.526 318.472 189.718 319.144 190.081C319.796 190.444 320.41 190.921 320.947 191.476C321.503 192.03 321.945 192.66 322.309 193.329C322.673 193.998 322.846 194.629 322.846 195.24V208.215C322.846 209.591 322.539 210.795 321.925 211.789C321.312 212.783 320.506 213.604 319.508 214.216C318.511 214.846 317.398 215.305 316.132 215.572C314.885 215.859 313.619 215.993 312.353 215.993L327.028 230H311.72L296.278 215.993H289.488V230H278.112V206.381H310.147Z" fill="#666666"/>
<path d="M65.626 124.956H92.0787V53.3151H65.626V24.1542H152.772V53.3151H126.3V124.975H152.753V154.136H65.626V124.956Z" fill="#0066CC"/>
<path d="M278.226 154.117L208.977 76.208V154.117H174.353V24.1542H212.871L281.737 102.464V24.1542H315.977V154.136H278.226V154.117Z" fill="#0066CC"/>
<path d="M381.084 95.9289H375.808C372.01 95.9289 368.845 97.171 366.332 99.6552C363.8 102.139 362.534 106.286 362.534 112.076V151.594C362.534 161.111 360.424 167.952 356.204 172.08C351.984 176.226 344.867 178.29 334.873 178.29H326.854V165.105H331.938C338.287 165.105 342.45 164.13 344.426 162.2C346.402 160.27 347.399 155.837 347.399 148.919V109.898C347.399 100.209 351.811 93.2918 360.635 89.1451C351.811 84.9983 347.399 78.0808 347.399 68.3923V29.3711C347.399 21.7655 345.979 16.9882 343.16 15.0582C341.318 13.8161 337.578 13.1854 331.938 13.1854H326.854V0H334.873C344.867 0 351.964 2.08292 356.204 6.22964C360.424 10.3955 362.534 17.2557 362.534 26.8104V66.5196C362.534 72.348 363.8 76.4947 366.332 78.998C368.864 81.5013 372.01 82.7434 375.808 82.7434H381.084V95.9289Z" fill="#666666"/>
<path d="M54.5576 178.29H46.7695C36.7945 178.29 29.697 176.226 25.4768 172.08C21.2567 167.933 19.1466 161.111 19.1466 151.594V112.076C19.1466 106.286 17.8805 102.139 15.3484 99.6552C12.8163 97.171 9.63202 95.9289 5.83387 95.9289H0.347656V82.7434H5.83387C9.63202 82.7434 12.7971 81.5013 15.3292 78.998C17.8613 76.4947 19.1466 72.348 19.1466 66.5196V26.8104C19.1466 17.2557 21.2567 10.3955 25.4768 6.22964C29.697 2.06381 36.7945 0 46.7695 0H54.5768V13.1854H49.7236C41.7053 13.1854 36.9864 14.9817 35.586 18.5743C34.742 20.6572 34.32 24.2498 34.32 29.3711V68.3923C34.32 78.0808 29.8888 84.9983 21.0456 89.1451C29.8888 93.2918 34.32 100.209 34.32 109.898V148.919C34.32 156.677 35.6628 161.436 38.3291 163.232C40.1515 164.474 43.9496 165.105 49.7236 165.105H54.5768V178.29H54.5576Z" fill="#666666"/>
</g>
<defs>
<filter id="filter0_d_1802_849" x="0.347656" y="0" width="385.736" height="235.038" filterUnits="userSpaceOnUse" color-interpolation-filters="sRGB">
<feFlood flood-opacity="0" result="BackgroundImageFix"/>
<feColorMatrix in="SourceAlpha" type="matrix" values="0 0 0 0 0 0 0 0 0 0 0 0 0 0 0 0 0 0 127 0" result="hardAlpha"/>
<feOffset dx="5" dy="5"/>
<feComposite in2="hardAlpha" operator="out"/>
<feColorMatrix type="matrix" values="0 0 0 0 0 0 0 0 0 0.125583 0 0 0 0 0.570833 0 0 0 0.25 0"/>
<feBlend mode="normal" in2="BackgroundImageFix" result="effect1_dropShadow_1802_849"/>
<feBlend mode="normal" in="SourceGraphic" in2="effect1_dropShadow_1802_849" result="shape"/>
</filter>
</defs>
</svg>
