<svg width="87" height="54" viewBox="0 0 87 54" fill="none" xmlns="http://www.w3.org/2000/svg">
<path d="M14.9164 29.1548H20.961V12.649H14.9164V5.93044H34.8298V12.649H28.7808V29.1592H34.8254V35.8778H14.9164V29.1548Z" fill="url(#paint0_linear_1887_146)"/>
<path d="M63.4968 35.8731L47.673 17.9232V35.8731H39.7611V5.93018H48.5628L64.2989 23.9726V5.93018H72.1231V35.8775H63.4968V35.8731Z" fill="url(#paint1_linear_1887_146)"/>
<path d="M22.9422 51.6837C22.9422 51.9831 22.8852 52.2385 22.7669 52.4454C22.6485 52.6567 22.4995 52.8284 22.3154 52.9605C22.1313 53.097 21.9165 53.1938 21.6754 53.2599C21.4344 53.3259 21.1933 53.3567 20.9478 53.3567H14.3334C14.1011 53.3567 13.8644 53.3215 13.6277 53.2511C13.391 53.1806 13.1762 53.075 12.9877 52.9297C12.7992 52.7844 12.6458 52.6083 12.5318 52.3969C12.4179 52.1856 12.3565 51.9479 12.3565 51.6793V50.1251H14.9251V51.1994H20.3692V46.1759H18.5983V44.023H22.9422V51.6837Z" fill="url(#paint2_linear_1887_146)"/>
<path d="M26.747 44.027V51.2034H32.1911V44.027H34.7597V51.6789C34.7597 51.9475 34.6984 52.1853 34.58 52.3966C34.4573 52.6079 34.3039 52.784 34.1154 52.9293C33.9269 53.0746 33.7165 53.1803 33.4842 53.2507C33.2519 53.3212 33.0195 53.3564 32.7872 53.3564H26.1684C25.9186 53.3564 25.6731 53.3256 25.4408 53.2595C25.2085 53.1935 24.9981 53.0966 24.8096 52.9601C24.6211 52.8237 24.4721 52.6519 24.3581 52.445C24.2485 52.2337 24.1916 51.9827 24.1916 51.6833V44.027H26.747Z" fill="url(#paint3_linear_1887_146)"/>
<path d="M43.8814 53.3564L38.5951 47.7649V53.3564H36.009V44.027H38.7091L44.0217 49.6449V44.027H46.5772V53.352H43.8814V53.3564Z" fill="url(#paint4_linear_1887_146)"/>
<path d="M50.4039 44.027V53.352H47.8484V44.027H50.4039Z" fill="url(#paint5_linear_1887_146)"/>
<path d="M51.6486 45.7045C51.6486 45.4051 51.7056 45.1497 51.8151 44.9428C51.9247 44.7315 52.0781 44.5598 52.2666 44.4277C52.4551 44.2956 52.6655 44.1943 52.8978 44.1283C53.1301 44.0623 53.3712 44.0314 53.6255 44.0314H60.2487C60.481 44.0314 60.7133 44.0667 60.9456 44.1371C61.1779 44.2076 61.3883 44.3132 61.5768 44.4585C61.7653 44.6038 61.9187 44.7799 62.0414 44.9912C62.1642 45.2026 62.2212 45.4403 62.2212 45.7089V51.6878C62.2212 51.9564 62.1598 52.1941 62.0414 52.4054C61.9187 52.6168 61.7653 52.7929 61.5768 52.9382C61.3883 53.0835 61.1779 53.1891 60.9456 53.2596C60.7133 53.33 60.481 53.3652 60.2487 53.3652H53.6255C53.3756 53.3652 53.1301 53.3344 52.8978 53.2684C52.6655 53.2023 52.4551 53.1055 52.2666 52.969C52.0781 52.8325 51.9291 52.6608 51.8151 52.4539C51.7056 52.2425 51.6486 51.9916 51.6486 51.6922V45.7045ZM59.6525 51.2035V46.18H54.2084V51.2035H59.6525Z" fill="url(#paint6_linear_1887_146)"/>
<path d="M70.7906 47.9146C70.9264 47.875 71.0053 47.8134 71.0229 47.7341V46.2988C71.0053 46.2504 70.9703 46.2108 70.9264 46.1888C70.8826 46.1624 70.8388 46.1404 70.7906 46.1227H63.4704V44.0314H72.4168C72.5526 44.0314 72.6929 44.0755 72.8463 44.1591C72.9954 44.2428 73.1356 44.3528 73.2584 44.4805C73.3855 44.6082 73.4863 44.7535 73.5696 44.9076C73.6529 45.0617 73.6923 45.207 73.6923 45.3479V48.3373C73.6923 48.6543 73.6222 48.9317 73.4819 49.1606C73.3416 49.3896 73.1575 49.5789 72.9296 49.7198C72.7017 49.8651 72.4474 49.9707 72.1581 50.0324C71.8732 50.0984 71.5839 50.1292 71.2946 50.1292L74.6479 53.3564H71.15L67.6214 50.1292H66.0697V53.3564H63.4704V47.9146H70.7906Z" fill="url(#paint7_linear_1887_146)"/>
<path d="M10.6076 41.4427C8.3283 41.4427 6.70647 40.9672 5.74214 40.0118C4.77781 39.0564 4.29565 37.4846 4.29565 35.2921V26.1872C4.29565 24.8532 4.00635 23.8978 3.42775 23.3255C2.84916 22.7531 2.12153 22.4669 1.25363 22.4669H0V19.429H1.25363C2.12153 19.429 2.84477 19.1429 3.42337 18.5661C4.00197 17.9894 4.29565 17.034 4.29565 15.6911V6.54226C4.29565 4.3409 4.77781 2.76032 5.74214 1.80052C6.70647 0.840729 8.3283 0.365234 10.6076 0.365234H12.3916V3.40312H11.2827C9.45043 3.40312 8.37213 3.81697 8.05215 4.64469C7.85929 5.12458 7.76285 5.9523 7.76285 7.13223V16.1226C7.76285 18.3548 6.75031 19.9486 4.7296 20.904C6.75031 21.8593 7.76285 23.4531 7.76285 25.6853V34.6757C7.76285 36.4632 8.06968 37.5595 8.67897 37.9733C9.09538 38.2595 9.96328 38.4048 11.2827 38.4048H12.3916V41.4427H10.6076Z" fill="url(#paint8_linear_1887_146)"/>
<path d="M87 22.4669H85.7946C84.9267 22.4669 84.2035 22.7531 83.6292 23.3255C83.0506 23.8978 82.7613 24.8532 82.7613 26.1872V35.2921C82.7613 37.4846 82.2792 39.0608 81.3149 40.0118C80.3505 40.9672 78.7243 41.4427 76.4406 41.4427H74.6084V38.4048H75.77C77.2209 38.4048 78.172 38.1803 78.6235 37.7356C79.075 37.2909 79.3029 36.2695 79.3029 34.6757V25.6853C79.3029 23.4531 80.3111 21.8593 82.3274 20.904C80.3111 19.9486 79.3029 18.3548 79.3029 16.1226V7.13223C79.3029 5.37994 78.9786 4.27926 78.3342 3.83458C77.9134 3.54841 77.0587 3.40312 75.77 3.40312H74.6084V0.365234H76.4406C78.7243 0.365234 80.3461 0.845131 81.3149 1.80052C82.2792 2.76032 82.7613 4.3409 82.7613 6.54226V15.6911C82.7613 17.034 83.0506 17.9894 83.6292 18.5661C84.2078 19.1429 84.9267 19.429 85.7946 19.429H87V22.4669Z" fill="url(#paint9_linear_1887_146)"/>
<defs>
<linearGradient id="paint0_linear_1887_146" x1="86.3998" y1="0.365232" x2="9.71922" y2="44.6466" gradientUnits="userSpaceOnUse">
<stop stop-color="#004B96"/>
<stop offset="1" stop-color="#047EF8"/>
</linearGradient>
<linearGradient id="paint1_linear_1887_146" x1="86.3998" y1="0.365232" x2="9.71922" y2="44.6466" gradientUnits="userSpaceOnUse">
<stop stop-color="#004B96"/>
<stop offset="1" stop-color="#047EF8"/>
</linearGradient>
<linearGradient id="paint2_linear_1887_146" x1="86.3998" y1="0.365232" x2="9.71922" y2="44.6466" gradientUnits="userSpaceOnUse">
<stop stop-color="#004B96"/>
<stop offset="1" stop-color="#047EF8"/>
</linearGradient>
<linearGradient id="paint3_linear_1887_146" x1="86.3998" y1="0.365232" x2="9.71922" y2="44.6466" gradientUnits="userSpaceOnUse">
<stop stop-color="#004B96"/>
<stop offset="1" stop-color="#047EF8"/>
</linearGradient>
<linearGradient id="paint4_linear_1887_146" x1="86.3998" y1="0.365232" x2="9.71922" y2="44.6466" gradientUnits="userSpaceOnUse">
<stop stop-color="#004B96"/>
<stop offset="1" stop-color="#047EF8"/>
</linearGradient>
<linearGradient id="paint5_linear_1887_146" x1="86.3998" y1="0.365232" x2="9.71922" y2="44.6466" gradientUnits="userSpaceOnUse">
<stop stop-color="#004B96"/>
<stop offset="1" stop-color="#047EF8"/>
</linearGradient>
<linearGradient id="paint6_linear_1887_146" x1="86.3998" y1="0.365232" x2="9.71922" y2="44.6466" gradientUnits="userSpaceOnUse">
<stop stop-color="#004B96"/>
<stop offset="1" stop-color="#047EF8"/>
</linearGradient>
<linearGradient id="paint7_linear_1887_146" x1="86.3998" y1="0.365232" x2="9.71922" y2="44.6466" gradientUnits="userSpaceOnUse">
<stop stop-color="#004B96"/>
<stop offset="1" stop-color="#047EF8"/>
</linearGradient>
<linearGradient id="paint8_linear_1887_146" x1="86.3998" y1="0.365232" x2="9.71922" y2="44.6466" gradientUnits="userSpaceOnUse">
<stop stop-color="#004B96"/>
<stop offset="1" stop-color="#047EF8"/>
</linearGradient>
<linearGradient id="paint9_linear_1887_146" x1="86.3998" y1="0.365232" x2="9.71922" y2="44.6466" gradientUnits="userSpaceOnUse">
<stop stop-color="#004B96"/>
<stop offset="1" stop-color="#047EF8"/>
</linearGradient>
</defs>
</svg>
