<svg width="54" height="54" viewBox="0 0 54 54" fill="none" xmlns="http://www.w3.org/2000/svg">
<g clip-path="url(#clip0_1841_817)">
<path d="M6.89853 31.4692C3.46281 31.4692 0.668945 28.71 0.668945 25.3169C0.668945 22.3308 4.8925 17.5302 5.73962 16.599C6.32977 15.9501 7.4674 15.9501 8.05744 16.599C8.90456 17.5302 13.1281 22.3307 13.1281 25.3169C13.1281 28.71 10.3343 31.4692 6.89853 31.4692Z" fill="#235B7C"/>
<path d="M19.3575 16.0885C15.9218 16.0885 13.1279 13.3292 13.1279 9.93616C13.1279 6.9501 17.3515 1.94446 18.1986 1.0132C18.7887 0.364334 19.9264 0.364334 20.5165 1.0132C21.3635 1.94446 25.5871 6.9501 25.5871 9.93616C25.5871 13.3292 22.7933 16.0885 19.3575 16.0885Z" fill="#235B7C"/>
<path d="M35.1397 16.0885C31.704 16.0885 28.9102 13.3292 28.9102 9.93616C28.9102 6.9501 33.1337 1.94446 33.9809 1.0132C34.571 0.364334 35.7086 0.364334 36.2986 1.0132C37.1457 1.94446 41.3693 6.9501 41.3693 9.93616C41.3693 13.3292 38.5755 16.0885 35.1397 16.0885Z" fill="#1D5270"/>
<path d="M47.5987 31.4692C44.163 31.4692 41.3691 28.71 41.3691 25.3169C41.3691 22.3308 45.5927 17.5302 46.4399 16.599C47.03 15.9501 48.1676 15.9501 48.7576 16.599C49.6047 17.5302 53.8283 22.3307 53.8283 25.3169C53.8283 28.71 51.0345 31.4692 47.5987 31.4692Z" fill="#1D5270"/>
<path d="M47.4113 40.2361C46.695 36.2063 43.4867 32.8227 39.4375 31.8074C38.7521 31.6228 38.2538 31.0076 38.2538 30.3001V29.9309C38.2538 23.9939 33.2598 19.1644 27.2482 19.1644C21.2367 19.1644 16.2426 23.9939 16.2426 29.9309V30.3001C16.2426 31.0075 15.7443 31.6228 15.059 31.8074C11.0098 32.8227 7.80142 36.2063 7.08513 40.2361C6.49332 43.4355 7.36556 46.6962 9.42121 49.1263C13.0654 53.4331 19.9804 54.1712 24.4658 50.7565C25.1821 50.2337 26.2515 49.957 27.2483 49.957C28.2452 49.957 29.3145 50.2337 30.0309 50.7565C31.962 52.2332 34.267 53.0022 36.6965 53.0022C39.9358 53.0022 42.9886 51.5871 45.0753 49.1263C47.1309 46.6962 48.0031 43.4355 47.4113 40.2361Z" fill="#235B7C"/>
<path d="M45.0751 49.1265C42.9882 51.5874 39.9356 53.0025 36.6963 53.0025C34.2666 53.0025 31.9617 52.2334 30.0306 50.7567C29.3143 50.2339 28.2449 49.9571 27.248 49.9571V19.1647C33.2596 19.1647 38.2537 23.9943 38.2537 29.9313V30.3004C38.2537 31.0078 38.7519 31.6232 39.4373 31.8077C43.4865 32.8229 46.6948 36.2067 47.4112 40.2364C48.003 43.4356 47.1307 46.6963 45.0751 49.1265Z" fill="#1D5270"/>
<path d="M35.9134 33.6587L29.764 33.0954L27.3212 27.4935C27.1502 27.1013 26.5871 27.1013 26.416 27.4935L23.9734 33.0955L17.8239 33.6587C17.3933 33.6981 17.2193 34.227 17.5442 34.5089L22.1839 38.5343L20.8261 44.4844C20.731 44.9009 21.1866 45.2278 21.5584 45.0098L26.8686 41.8958L32.1789 45.0098C32.5507 45.2278 33.0063 44.9009 32.9113 44.4844L31.5534 38.5343L36.1932 34.5089C36.518 34.227 36.344 33.6981 35.9134 33.6587Z" fill="#C7CFE2"/>
<path d="M27.3212 27.4935C27.1502 27.1013 26.587 27.1013 26.416 27.4935L23.9733 33.0955L17.8239 33.6587C17.3933 33.6981 17.2193 34.227 17.5442 34.5089L22.1839 38.5343L20.8261 44.4844C20.731 44.9009 21.1866 45.2278 21.5584 45.0098L22.7436 44.3147C22.9077 37.6461 26.0451 32.9499 28.529 30.2634L27.3212 27.4935Z" fill="#D7DEED"/>
</g>
<defs>
<clipPath id="clip0_1841_817">
<rect width="53.1591" height="52.5" fill="white" transform="translate(0.668945 0.514404)"/>
</clipPath>
</defs>
</svg>
