<svg width="70" height="70" viewBox="0 0 70 70" fill="none" xmlns="http://www.w3.org/2000/svg">
<g clip-path="url(#clip0_1427_1307)">
<path d="M8.20312 41.2731C3.67897 41.2731 0 37.5941 0 33.07C0 29.0885 5.56159 22.6878 6.67707 21.4462C7.45418 20.581 8.95221 20.581 9.72918 21.4462C10.8447 22.6878 16.4062 29.0884 16.4062 33.07C16.4062 37.5941 12.7273 41.2731 8.20312 41.2731Z" fill="#235B7C"/>
<path d="M24.6094 20.7653C20.0852 20.7653 16.4062 17.0862 16.4062 12.5622C16.4062 8.58073 21.9679 1.90654 23.0833 0.664858C23.8604 -0.200298 25.3585 -0.200298 26.1355 0.664858C27.2509 1.90654 32.8125 8.58073 32.8125 12.5622C32.8125 17.0862 29.1336 20.7653 24.6094 20.7653Z" fill="#235B7C"/>
<path d="M45.3906 20.7653C40.8664 20.7653 37.1875 17.0862 37.1875 12.5622C37.1875 8.58073 42.7491 1.90654 43.8646 0.664858C44.6417 -0.200298 46.1397 -0.200298 46.9166 0.664858C48.0321 1.90654 53.5938 8.58073 53.5938 12.5622C53.5938 17.0862 49.9148 20.7653 45.3906 20.7653Z" fill="#1D5270"/>
<path d="M61.7969 41.2731C57.2727 41.2731 53.5938 37.5941 53.5938 33.07C53.5938 29.0885 59.1554 22.6878 60.2709 21.4462C61.048 20.581 62.546 20.581 63.3229 21.4462C64.4384 22.6878 70 29.0884 70 33.07C70 37.5941 66.3211 41.2731 61.7969 41.2731Z" fill="#1D5270"/>
<path d="M61.5509 52.9624C60.6077 47.5893 56.3829 43.0778 51.0509 41.7241C50.1484 41.478 49.4923 40.6577 49.4923 39.7143V39.2221C49.4923 31.3061 42.9161 24.8668 35.0001 24.8668C27.0841 24.8668 20.5079 31.3061 20.5079 39.2221V39.7143C20.5079 40.6576 19.8518 41.478 18.9493 41.7241C13.6173 43.0778 9.39258 47.5893 8.44936 52.9624C7.67007 57.2282 8.81864 61.5759 11.5255 64.8159C16.3242 70.5583 25.4298 71.5424 31.3362 66.9896C32.2794 66.2924 33.6876 65.9235 35.0002 65.9235C36.313 65.9235 37.7209 66.2924 38.6643 66.9896C41.2073 68.9584 44.2424 69.9838 47.4416 69.9838C51.7072 69.9838 55.727 68.097 58.4748 64.8159C61.1817 61.5759 62.3302 57.2282 61.5509 52.9624Z" fill="#235B7C"/>
<path d="M58.4746 64.816C55.7267 68.0973 51.7069 69.984 47.4414 69.984C44.2421 69.984 41.2069 68.9586 38.6641 66.9897C37.7208 66.2926 36.3126 65.9236 35 65.9236V24.8669C42.916 24.8669 49.4922 31.3064 49.4922 39.2224V39.7146C49.4922 40.6578 50.1483 41.4783 51.0508 41.7244C56.3828 43.078 60.6075 47.5896 61.5508 52.9626C62.3301 57.2282 61.1815 61.5758 58.4746 64.816Z" fill="#1D5270"/>
<path d="M46.4101 44.1924L38.3125 43.4414L35.0959 35.9721C34.8707 35.4492 34.1291 35.4492 33.9039 35.9721L30.6874 43.4415L22.5899 44.1924C22.0229 44.2449 21.7937 44.9502 22.2215 45.326L28.3311 50.6933L26.5431 58.6267C26.4179 59.1821 27.0178 59.6179 27.5075 59.3272L34.4999 55.1752L41.4925 59.3272C41.982 59.6179 42.582 59.1821 42.4568 58.6267L40.6688 50.6933L46.7785 45.326C47.2062 44.9502 46.9771 44.2449 46.4101 44.1924Z" fill="#C7CFE2"/>
<path d="M35.0959 35.9721C34.8707 35.4492 34.1291 35.4492 33.9039 35.9721L30.6874 43.4415L22.5899 44.1924C22.0229 44.2449 21.7937 44.9502 22.2215 45.326L28.3311 50.6933L26.5431 58.6267C26.4179 59.1821 27.0178 59.6179 27.5075 59.3272L29.0681 58.4005C29.2842 49.5089 33.4155 43.2473 36.6863 39.6653L35.0959 35.9721Z" fill="#D7DEED"/>
</g>
<defs>
<clipPath id="clip0_1427_1307">
<rect width="70" height="70" fill="white"/>
</clipPath>
</defs>
</svg>
